G04 EAGLE Gerber RS-274X export*
G75*
%MOMM*%
%FSLAX34Y34*%
%LPD*%
%INBottom Copper*%
%IPPOS*%
%AMOC8*
5,1,8,0,0,1.08239X$1,22.5*%
G01*
%ADD10C,1.008000*%
%ADD11C,0.452400*%
%ADD12C,0.502400*%
%ADD13C,0.203200*%

G36*
X480777Y2003D02*
X480777Y2003D01*
X480804Y2001D01*
X480978Y2023D01*
X481151Y2041D01*
X481176Y2048D01*
X481203Y2052D01*
X481369Y2107D01*
X481435Y2128D01*
X482600Y2128D01*
X482666Y2134D01*
X482759Y2134D01*
X486082Y2395D01*
X486154Y2408D01*
X486228Y2412D01*
X486393Y2451D01*
X486478Y2467D01*
X486509Y2479D01*
X486551Y2489D01*
X492871Y4542D01*
X493011Y4604D01*
X493154Y4658D01*
X493201Y4687D01*
X493240Y4704D01*
X493310Y4753D01*
X493437Y4831D01*
X498814Y8737D01*
X498928Y8839D01*
X499047Y8935D01*
X499083Y8977D01*
X499114Y9005D01*
X499166Y9074D01*
X499263Y9186D01*
X503169Y14563D01*
X503246Y14695D01*
X503330Y14823D01*
X503351Y14874D01*
X503372Y14910D01*
X503400Y14992D01*
X503458Y15129D01*
X505511Y21449D01*
X505527Y21521D01*
X505552Y21590D01*
X505579Y21758D01*
X505597Y21843D01*
X505598Y21876D01*
X505605Y21918D01*
X505866Y25241D01*
X505865Y25307D01*
X505872Y25400D01*
X505872Y26548D01*
X505913Y26700D01*
X505963Y26867D01*
X505965Y26893D01*
X505972Y26919D01*
X505999Y27250D01*
X505999Y861750D01*
X505997Y861777D01*
X505999Y861804D01*
X505977Y861978D01*
X505959Y862151D01*
X505952Y862176D01*
X505948Y862203D01*
X505893Y862369D01*
X505872Y862435D01*
X505872Y863600D01*
X505866Y863666D01*
X505866Y863759D01*
X505605Y867082D01*
X505592Y867154D01*
X505588Y867228D01*
X505549Y867393D01*
X505533Y867478D01*
X505521Y867509D01*
X505511Y867551D01*
X503458Y873871D01*
X503396Y874011D01*
X503342Y874154D01*
X503313Y874201D01*
X503296Y874240D01*
X503247Y874310D01*
X503169Y874437D01*
X499263Y879814D01*
X499161Y879928D01*
X499065Y880047D01*
X499023Y880083D01*
X498995Y880114D01*
X498926Y880166D01*
X498814Y880263D01*
X493437Y884169D01*
X493305Y884246D01*
X493177Y884330D01*
X493126Y884351D01*
X493090Y884372D01*
X493008Y884400D01*
X492871Y884458D01*
X486551Y886511D01*
X486479Y886527D01*
X486410Y886552D01*
X486242Y886579D01*
X486157Y886597D01*
X486124Y886598D01*
X486082Y886605D01*
X482759Y886866D01*
X482693Y886865D01*
X482600Y886872D01*
X481452Y886872D01*
X481300Y886913D01*
X481133Y886963D01*
X481107Y886965D01*
X481081Y886972D01*
X480750Y886999D01*
X27250Y886999D01*
X27223Y886997D01*
X27196Y886999D01*
X27022Y886977D01*
X26849Y886959D01*
X26824Y886952D01*
X26797Y886948D01*
X26631Y886893D01*
X26565Y886872D01*
X25400Y886872D01*
X25334Y886866D01*
X25241Y886866D01*
X21918Y886605D01*
X21846Y886592D01*
X21772Y886588D01*
X21607Y886549D01*
X21522Y886533D01*
X21491Y886521D01*
X21449Y886511D01*
X15129Y884458D01*
X14989Y884396D01*
X14846Y884342D01*
X14799Y884313D01*
X14760Y884296D01*
X14690Y884247D01*
X14563Y884169D01*
X9186Y880263D01*
X9072Y880161D01*
X8953Y880065D01*
X8917Y880023D01*
X8886Y879995D01*
X8834Y879926D01*
X8737Y879814D01*
X4831Y874437D01*
X4754Y874305D01*
X4670Y874177D01*
X4649Y874126D01*
X4628Y874090D01*
X4600Y874008D01*
X4542Y873871D01*
X2489Y867551D01*
X2473Y867479D01*
X2448Y867410D01*
X2421Y867242D01*
X2403Y867157D01*
X2402Y867124D01*
X2395Y867082D01*
X2134Y863759D01*
X2135Y863693D01*
X2128Y863600D01*
X2128Y862452D01*
X2087Y862300D01*
X2037Y862133D01*
X2035Y862107D01*
X2028Y862081D01*
X2001Y861750D01*
X2001Y27250D01*
X2003Y27223D01*
X2001Y27196D01*
X2023Y27022D01*
X2041Y26849D01*
X2048Y26824D01*
X2052Y26797D01*
X2107Y26631D01*
X2128Y26565D01*
X2128Y25400D01*
X2134Y25334D01*
X2134Y25241D01*
X2395Y21918D01*
X2408Y21846D01*
X2412Y21772D01*
X2451Y21607D01*
X2467Y21522D01*
X2479Y21491D01*
X2489Y21449D01*
X4542Y15129D01*
X4604Y14989D01*
X4658Y14846D01*
X4687Y14799D01*
X4704Y14760D01*
X4753Y14690D01*
X4831Y14563D01*
X8737Y9186D01*
X8839Y9072D01*
X8935Y8953D01*
X8977Y8917D01*
X9005Y8886D01*
X9074Y8834D01*
X9186Y8737D01*
X14563Y4831D01*
X14695Y4754D01*
X14823Y4670D01*
X14874Y4649D01*
X14910Y4628D01*
X14992Y4600D01*
X15129Y4542D01*
X21449Y2489D01*
X21521Y2473D01*
X21590Y2448D01*
X21758Y2421D01*
X21843Y2403D01*
X21876Y2402D01*
X21918Y2395D01*
X25241Y2134D01*
X25307Y2135D01*
X25400Y2128D01*
X26548Y2128D01*
X26700Y2087D01*
X26867Y2037D01*
X26893Y2035D01*
X26919Y2028D01*
X27250Y2001D01*
X480750Y2001D01*
X480777Y2003D01*
G37*
%LPC*%
G36*
X474334Y36915D02*
X474334Y36915D01*
X471921Y37915D01*
X470061Y39775D01*
X470001Y39882D01*
X469916Y40040D01*
X469902Y40057D01*
X469891Y40077D01*
X469774Y40212D01*
X469660Y40350D01*
X469642Y40365D01*
X469628Y40382D01*
X469486Y40491D01*
X469347Y40604D01*
X469327Y40615D01*
X469310Y40628D01*
X469149Y40708D01*
X468991Y40791D01*
X468969Y40798D01*
X468949Y40808D01*
X468776Y40854D01*
X468604Y40904D01*
X468582Y40906D01*
X468560Y40912D01*
X468230Y40939D01*
X455848Y40939D01*
X444043Y52744D01*
X444022Y52761D01*
X444004Y52782D01*
X443866Y52889D01*
X443731Y52999D01*
X443707Y53012D01*
X443686Y53028D01*
X443529Y53106D01*
X443375Y53188D01*
X443350Y53196D01*
X443326Y53208D01*
X443156Y53253D01*
X442989Y53303D01*
X442963Y53305D01*
X442937Y53312D01*
X442606Y53339D01*
X336768Y53339D01*
X292099Y98008D01*
X292099Y169064D01*
X292097Y169091D01*
X292099Y169117D01*
X292077Y169291D01*
X292059Y169465D01*
X292052Y169490D01*
X292048Y169517D01*
X291993Y169683D01*
X291941Y169850D01*
X291928Y169873D01*
X291920Y169899D01*
X291833Y170050D01*
X291749Y170204D01*
X291732Y170224D01*
X291719Y170247D01*
X291504Y170500D01*
X290853Y171151D01*
X290853Y174289D01*
X293071Y176507D01*
X295148Y176507D01*
X295166Y176509D01*
X295184Y176507D01*
X295366Y176528D01*
X295549Y176547D01*
X295566Y176552D01*
X295583Y176554D01*
X295758Y176611D01*
X295934Y176665D01*
X295949Y176673D01*
X295966Y176679D01*
X296126Y176769D01*
X296288Y176857D01*
X296301Y176868D01*
X296317Y176877D01*
X296456Y176997D01*
X296597Y177114D01*
X296608Y177128D01*
X296622Y177140D01*
X296734Y177285D01*
X296849Y177428D01*
X296857Y177444D01*
X296868Y177458D01*
X296950Y177623D01*
X297035Y177785D01*
X297040Y177802D01*
X297048Y177818D01*
X297095Y177997D01*
X297146Y178172D01*
X297148Y178190D01*
X297152Y178207D01*
X297179Y178538D01*
X297179Y197004D01*
X297178Y197020D01*
X297179Y197036D01*
X297178Y197046D01*
X297179Y197057D01*
X297157Y197231D01*
X297139Y197405D01*
X297133Y197424D01*
X297132Y197436D01*
X297130Y197442D01*
X297128Y197457D01*
X297073Y197623D01*
X297021Y197790D01*
X297010Y197810D01*
X297007Y197819D01*
X297006Y197822D01*
X297000Y197839D01*
X296913Y197990D01*
X296829Y198144D01*
X296812Y198164D01*
X296799Y198187D01*
X296584Y198440D01*
X295933Y199091D01*
X295933Y202229D01*
X298151Y204447D01*
X300228Y204447D01*
X300246Y204449D01*
X300264Y204447D01*
X300446Y204468D01*
X300629Y204487D01*
X300646Y204492D01*
X300663Y204494D01*
X300838Y204551D01*
X301014Y204605D01*
X301029Y204613D01*
X301046Y204619D01*
X301206Y204709D01*
X301368Y204797D01*
X301381Y204808D01*
X301397Y204817D01*
X301536Y204937D01*
X301677Y205054D01*
X301688Y205068D01*
X301702Y205080D01*
X301814Y205225D01*
X301929Y205368D01*
X301937Y205384D01*
X301948Y205398D01*
X302030Y205563D01*
X302115Y205725D01*
X302120Y205742D01*
X302128Y205758D01*
X302175Y205937D01*
X302226Y206112D01*
X302228Y206130D01*
X302232Y206147D01*
X302259Y206478D01*
X302259Y208926D01*
X302257Y208953D01*
X302259Y208980D01*
X302237Y209153D01*
X302219Y209327D01*
X302212Y209352D01*
X302208Y209379D01*
X302153Y209545D01*
X302101Y209712D01*
X302088Y209735D01*
X302080Y209761D01*
X301993Y209912D01*
X301909Y210066D01*
X301892Y210086D01*
X301879Y210110D01*
X301664Y210363D01*
X228143Y283884D01*
X228122Y283901D01*
X228104Y283922D01*
X227966Y284029D01*
X227831Y284139D01*
X227807Y284152D01*
X227786Y284168D01*
X227629Y284246D01*
X227475Y284328D01*
X227450Y284336D01*
X227426Y284348D01*
X227256Y284393D01*
X227089Y284443D01*
X227063Y284445D01*
X227037Y284452D01*
X226706Y284479D01*
X128488Y284479D01*
X124209Y288758D01*
X124188Y288775D01*
X124170Y288796D01*
X124032Y288903D01*
X123897Y289013D01*
X123873Y289026D01*
X123852Y289042D01*
X123695Y289120D01*
X123541Y289202D01*
X123516Y289210D01*
X123492Y289222D01*
X123322Y289267D01*
X123155Y289317D01*
X123129Y289319D01*
X123103Y289326D01*
X122772Y289353D01*
X121851Y289353D01*
X119633Y291571D01*
X119633Y294709D01*
X121977Y297053D01*
X122082Y297085D01*
X122090Y297089D01*
X122098Y297092D01*
X122266Y297185D01*
X122436Y297277D01*
X122443Y297282D01*
X122451Y297287D01*
X122598Y297411D01*
X122745Y297534D01*
X122751Y297541D01*
X122758Y297547D01*
X122877Y297699D01*
X122997Y297848D01*
X123002Y297856D01*
X123007Y297863D01*
X123095Y298036D01*
X123183Y298205D01*
X123185Y298214D01*
X123189Y298222D01*
X123241Y298408D01*
X123294Y298592D01*
X123295Y298601D01*
X123297Y298610D01*
X123312Y298803D01*
X123327Y298994D01*
X123326Y299002D01*
X123327Y299011D01*
X123303Y299204D01*
X123280Y299393D01*
X123278Y299402D01*
X123276Y299411D01*
X123215Y299593D01*
X123155Y299776D01*
X123151Y299784D01*
X123148Y299792D01*
X123052Y299959D01*
X122958Y300127D01*
X122952Y300134D01*
X122947Y300141D01*
X122733Y300394D01*
X99059Y324068D01*
X99059Y344324D01*
X99057Y344351D01*
X99059Y344377D01*
X99037Y344551D01*
X99019Y344725D01*
X99012Y344750D01*
X99008Y344777D01*
X98953Y344943D01*
X98901Y345110D01*
X98888Y345133D01*
X98880Y345159D01*
X98793Y345310D01*
X98709Y345464D01*
X98692Y345484D01*
X98679Y345507D01*
X98464Y345760D01*
X97813Y346411D01*
X97813Y349549D01*
X100031Y351767D01*
X103169Y351767D01*
X105387Y349549D01*
X105387Y346411D01*
X104736Y345760D01*
X104719Y345740D01*
X104698Y345722D01*
X104591Y345584D01*
X104481Y345449D01*
X104468Y345425D01*
X104452Y345404D01*
X104374Y345247D01*
X104292Y345093D01*
X104284Y345068D01*
X104272Y345044D01*
X104227Y344874D01*
X104177Y344707D01*
X104175Y344681D01*
X104168Y344655D01*
X104141Y344324D01*
X104141Y327014D01*
X104143Y326987D01*
X104141Y326961D01*
X104163Y326787D01*
X104181Y326613D01*
X104188Y326588D01*
X104192Y326561D01*
X104247Y326395D01*
X104299Y326228D01*
X104312Y326205D01*
X104320Y326179D01*
X104407Y326028D01*
X104491Y325874D01*
X104508Y325854D01*
X104521Y325831D01*
X104736Y325578D01*
X135078Y295236D01*
X135098Y295219D01*
X135116Y295198D01*
X135254Y295091D01*
X135389Y294981D01*
X135413Y294968D01*
X135434Y294952D01*
X135591Y294874D01*
X135745Y294792D01*
X135770Y294784D01*
X135794Y294772D01*
X135964Y294727D01*
X136131Y294677D01*
X136157Y294675D01*
X136183Y294668D01*
X136514Y294641D01*
X227722Y294641D01*
X227731Y294642D01*
X227740Y294641D01*
X227932Y294662D01*
X228123Y294681D01*
X228131Y294683D01*
X228140Y294684D01*
X228323Y294742D01*
X228508Y294799D01*
X228516Y294803D01*
X228524Y294806D01*
X228693Y294899D01*
X228862Y294991D01*
X228869Y294996D01*
X228877Y295001D01*
X229024Y295126D01*
X229171Y295248D01*
X229177Y295255D01*
X229184Y295261D01*
X229303Y295412D01*
X229423Y295562D01*
X229428Y295570D01*
X229433Y295577D01*
X229520Y295748D01*
X229609Y295919D01*
X229611Y295928D01*
X229615Y295936D01*
X229667Y296121D01*
X229720Y296306D01*
X229721Y296315D01*
X229723Y296324D01*
X229738Y296516D01*
X229753Y296708D01*
X229752Y296716D01*
X229753Y296725D01*
X229729Y296916D01*
X229706Y297107D01*
X229704Y297116D01*
X229702Y297125D01*
X229642Y297306D01*
X229581Y297490D01*
X229577Y297498D01*
X229574Y297506D01*
X229479Y297672D01*
X229384Y297841D01*
X229378Y297848D01*
X229373Y297855D01*
X229159Y298108D01*
X228599Y298668D01*
X228599Y386726D01*
X228597Y386753D01*
X228599Y386780D01*
X228577Y386953D01*
X228559Y387127D01*
X228552Y387152D01*
X228548Y387179D01*
X228493Y387345D01*
X228441Y387512D01*
X228428Y387535D01*
X228420Y387561D01*
X228333Y387712D01*
X228249Y387866D01*
X228232Y387886D01*
X228219Y387910D01*
X228004Y388163D01*
X212903Y403264D01*
X212882Y403281D01*
X212864Y403302D01*
X212726Y403409D01*
X212591Y403519D01*
X212567Y403532D01*
X212546Y403548D01*
X212389Y403626D01*
X212235Y403708D01*
X212210Y403716D01*
X212186Y403728D01*
X212016Y403773D01*
X211849Y403823D01*
X211823Y403825D01*
X211797Y403832D01*
X211466Y403859D01*
X164416Y403859D01*
X164389Y403857D01*
X164363Y403859D01*
X164189Y403837D01*
X164015Y403819D01*
X163990Y403812D01*
X163963Y403808D01*
X163797Y403753D01*
X163630Y403701D01*
X163607Y403688D01*
X163581Y403680D01*
X163430Y403593D01*
X163276Y403509D01*
X163256Y403492D01*
X163233Y403479D01*
X162980Y403264D01*
X162329Y402613D01*
X159191Y402613D01*
X156973Y404831D01*
X156973Y407969D01*
X159191Y410187D01*
X162329Y410187D01*
X162980Y409536D01*
X163000Y409519D01*
X163018Y409498D01*
X163156Y409391D01*
X163291Y409281D01*
X163315Y409268D01*
X163336Y409252D01*
X163493Y409174D01*
X163647Y409092D01*
X163672Y409084D01*
X163696Y409072D01*
X163866Y409027D01*
X164033Y408977D01*
X164059Y408975D01*
X164085Y408968D01*
X164416Y408941D01*
X214412Y408941D01*
X233681Y389672D01*
X233681Y301614D01*
X233683Y301587D01*
X233681Y301560D01*
X233703Y301387D01*
X233721Y301213D01*
X233728Y301188D01*
X233732Y301161D01*
X233787Y300995D01*
X233839Y300828D01*
X233852Y300805D01*
X233860Y300779D01*
X233947Y300628D01*
X234031Y300474D01*
X234048Y300454D01*
X234061Y300430D01*
X234276Y300177D01*
X258152Y276301D01*
X258159Y276296D01*
X258164Y276289D01*
X258314Y276169D01*
X258463Y276046D01*
X258471Y276042D01*
X258478Y276037D01*
X258649Y275948D01*
X258819Y275858D01*
X258827Y275855D01*
X258835Y275851D01*
X259021Y275798D01*
X259205Y275743D01*
X259214Y275742D01*
X259222Y275740D01*
X259414Y275724D01*
X259606Y275707D01*
X259615Y275708D01*
X259624Y275707D01*
X259813Y275729D01*
X260006Y275750D01*
X260015Y275753D01*
X260023Y275754D01*
X260205Y275813D01*
X260390Y275871D01*
X260398Y275876D01*
X260406Y275879D01*
X260575Y275974D01*
X260742Y276066D01*
X260749Y276072D01*
X260757Y276076D01*
X260903Y276202D01*
X261049Y276327D01*
X261055Y276334D01*
X261062Y276340D01*
X261179Y276491D01*
X261299Y276643D01*
X261303Y276651D01*
X261308Y276658D01*
X261394Y276830D01*
X261481Y277002D01*
X261484Y277010D01*
X261488Y277018D01*
X261538Y277205D01*
X261589Y277390D01*
X261590Y277398D01*
X261592Y277407D01*
X261619Y277738D01*
X261619Y305446D01*
X261617Y305473D01*
X261619Y305500D01*
X261597Y305673D01*
X261579Y305847D01*
X261572Y305872D01*
X261568Y305899D01*
X261513Y306065D01*
X261461Y306232D01*
X261448Y306255D01*
X261440Y306281D01*
X261353Y306432D01*
X261269Y306586D01*
X261252Y306606D01*
X261239Y306630D01*
X261024Y306883D01*
X257329Y310578D01*
X257308Y310595D01*
X257290Y310616D01*
X257152Y310723D01*
X257017Y310833D01*
X256993Y310846D01*
X256972Y310862D01*
X256815Y310940D01*
X256661Y311022D01*
X256636Y311030D01*
X256612Y311042D01*
X256442Y311087D01*
X256275Y311137D01*
X256249Y311139D01*
X256223Y311146D01*
X255892Y311173D01*
X254971Y311173D01*
X252753Y313391D01*
X252753Y316529D01*
X254971Y318747D01*
X255802Y318747D01*
X255820Y318749D01*
X255838Y318747D01*
X256020Y318768D01*
X256203Y318787D01*
X256220Y318792D01*
X256237Y318794D01*
X256412Y318851D01*
X256588Y318905D01*
X256603Y318913D01*
X256620Y318919D01*
X256780Y319009D01*
X256942Y319097D01*
X256955Y319108D01*
X256971Y319117D01*
X257110Y319237D01*
X257251Y319354D01*
X257262Y319368D01*
X257276Y319380D01*
X257388Y319525D01*
X257503Y319668D01*
X257511Y319684D01*
X257522Y319698D01*
X257604Y319863D01*
X257689Y320025D01*
X257694Y320042D01*
X257702Y320058D01*
X257749Y320237D01*
X257800Y320412D01*
X257802Y320430D01*
X257806Y320447D01*
X257833Y320778D01*
X257833Y321609D01*
X260051Y323827D01*
X260882Y323827D01*
X260900Y323829D01*
X260918Y323827D01*
X261100Y323848D01*
X261283Y323867D01*
X261300Y323872D01*
X261317Y323874D01*
X261492Y323931D01*
X261668Y323985D01*
X261683Y323993D01*
X261700Y323999D01*
X261860Y324089D01*
X262022Y324177D01*
X262035Y324188D01*
X262051Y324197D01*
X262190Y324317D01*
X262331Y324434D01*
X262342Y324448D01*
X262356Y324460D01*
X262468Y324605D01*
X262583Y324748D01*
X262591Y324764D01*
X262602Y324778D01*
X262684Y324942D01*
X262769Y325105D01*
X262774Y325122D01*
X262782Y325138D01*
X262829Y325317D01*
X262880Y325492D01*
X262882Y325510D01*
X262886Y325527D01*
X262913Y325858D01*
X262913Y326689D01*
X265131Y328907D01*
X265962Y328907D01*
X265980Y328909D01*
X265998Y328907D01*
X266180Y328928D01*
X266363Y328947D01*
X266380Y328952D01*
X266397Y328954D01*
X266572Y329011D01*
X266748Y329065D01*
X266763Y329073D01*
X266780Y329079D01*
X266940Y329169D01*
X267102Y329257D01*
X267115Y329268D01*
X267131Y329277D01*
X267270Y329397D01*
X267411Y329514D01*
X267422Y329528D01*
X267436Y329540D01*
X267548Y329685D01*
X267663Y329828D01*
X267671Y329844D01*
X267682Y329858D01*
X267764Y330023D01*
X267849Y330185D01*
X267854Y330202D01*
X267862Y330218D01*
X267909Y330397D01*
X267960Y330572D01*
X267962Y330590D01*
X267966Y330607D01*
X267993Y330938D01*
X267993Y331769D01*
X270211Y333987D01*
X273349Y333987D01*
X275567Y331769D01*
X275567Y330848D01*
X275569Y330821D01*
X275567Y330794D01*
X275589Y330621D01*
X275607Y330447D01*
X275614Y330422D01*
X275618Y330395D01*
X275674Y330229D01*
X275725Y330062D01*
X275737Y330039D01*
X275746Y330013D01*
X275833Y329862D01*
X275917Y329708D01*
X275934Y329688D01*
X275947Y329665D01*
X276162Y329411D01*
X278472Y327101D01*
X278479Y327096D01*
X278484Y327089D01*
X278634Y326969D01*
X278783Y326846D01*
X278791Y326842D01*
X278798Y326837D01*
X278968Y326748D01*
X279139Y326658D01*
X279148Y326655D01*
X279155Y326651D01*
X279340Y326598D01*
X279525Y326543D01*
X279534Y326542D01*
X279542Y326540D01*
X279733Y326524D01*
X279926Y326507D01*
X279935Y326508D01*
X279944Y326507D01*
X280133Y326529D01*
X280326Y326550D01*
X280335Y326553D01*
X280343Y326554D01*
X280525Y326613D01*
X280710Y326671D01*
X280718Y326676D01*
X280726Y326679D01*
X280895Y326774D01*
X281062Y326866D01*
X281069Y326872D01*
X281077Y326876D01*
X281223Y327002D01*
X281369Y327127D01*
X281375Y327134D01*
X281382Y327140D01*
X281499Y327291D01*
X281619Y327443D01*
X281623Y327451D01*
X281628Y327458D01*
X281714Y327630D01*
X281801Y327802D01*
X281804Y327810D01*
X281808Y327818D01*
X281858Y328004D01*
X281909Y328189D01*
X281910Y328198D01*
X281912Y328207D01*
X281939Y328538D01*
X281939Y407046D01*
X281937Y407073D01*
X281939Y407100D01*
X281917Y407273D01*
X281899Y407447D01*
X281892Y407472D01*
X281888Y407499D01*
X281833Y407665D01*
X281781Y407832D01*
X281768Y407855D01*
X281760Y407881D01*
X281673Y408032D01*
X281589Y408186D01*
X281572Y408206D01*
X281559Y408230D01*
X281344Y408483D01*
X243383Y446444D01*
X243362Y446461D01*
X243344Y446482D01*
X243206Y446589D01*
X243071Y446699D01*
X243047Y446712D01*
X243026Y446728D01*
X242869Y446806D01*
X242715Y446888D01*
X242690Y446896D01*
X242666Y446908D01*
X242496Y446953D01*
X242329Y447003D01*
X242303Y447005D01*
X242277Y447012D01*
X241946Y447039D01*
X57368Y447039D01*
X55285Y449122D01*
X55284Y449123D01*
X37758Y466649D01*
X37751Y466654D01*
X37746Y466661D01*
X37596Y466781D01*
X37447Y466904D01*
X37439Y466908D01*
X37432Y466913D01*
X37261Y467002D01*
X37091Y467092D01*
X37083Y467095D01*
X37075Y467099D01*
X36889Y467152D01*
X36705Y467207D01*
X36696Y467208D01*
X36688Y467210D01*
X36496Y467226D01*
X36304Y467243D01*
X36295Y467242D01*
X36286Y467243D01*
X36097Y467221D01*
X35904Y467200D01*
X35895Y467197D01*
X35887Y467196D01*
X35705Y467137D01*
X35520Y467079D01*
X35512Y467074D01*
X35504Y467071D01*
X35335Y466976D01*
X35168Y466884D01*
X35161Y466878D01*
X35153Y466874D01*
X35007Y466748D01*
X34861Y466623D01*
X34855Y466616D01*
X34848Y466610D01*
X34731Y466459D01*
X34611Y466307D01*
X34607Y466299D01*
X34602Y466292D01*
X34516Y466120D01*
X34429Y465948D01*
X34426Y465940D01*
X34422Y465932D01*
X34372Y465745D01*
X34321Y465560D01*
X34320Y465552D01*
X34318Y465543D01*
X34291Y465212D01*
X34291Y292724D01*
X34293Y292697D01*
X34291Y292670D01*
X34313Y292497D01*
X34331Y292323D01*
X34338Y292298D01*
X34342Y292271D01*
X34397Y292105D01*
X34449Y291938D01*
X34462Y291915D01*
X34470Y291889D01*
X34557Y291738D01*
X34641Y291584D01*
X34658Y291564D01*
X34671Y291540D01*
X34886Y291287D01*
X37311Y288862D01*
X37332Y288845D01*
X37350Y288824D01*
X37488Y288717D01*
X37623Y288607D01*
X37647Y288594D01*
X37668Y288578D01*
X37825Y288500D01*
X37979Y288418D01*
X38004Y288410D01*
X38028Y288398D01*
X38198Y288353D01*
X38365Y288303D01*
X38391Y288301D01*
X38417Y288294D01*
X38748Y288267D01*
X39669Y288267D01*
X41887Y286049D01*
X41887Y282911D01*
X39669Y280693D01*
X38838Y280693D01*
X38820Y280691D01*
X38802Y280693D01*
X38620Y280672D01*
X38437Y280653D01*
X38420Y280648D01*
X38403Y280646D01*
X38228Y280589D01*
X38052Y280535D01*
X38037Y280527D01*
X38020Y280521D01*
X37860Y280431D01*
X37698Y280343D01*
X37685Y280332D01*
X37669Y280323D01*
X37530Y280203D01*
X37389Y280086D01*
X37378Y280072D01*
X37364Y280060D01*
X37252Y279915D01*
X37137Y279772D01*
X37129Y279756D01*
X37118Y279742D01*
X37036Y279577D01*
X36951Y279415D01*
X36946Y279398D01*
X36938Y279382D01*
X36891Y279203D01*
X36840Y279028D01*
X36838Y279010D01*
X36834Y278993D01*
X36807Y278662D01*
X36807Y277831D01*
X34589Y275613D01*
X33758Y275613D01*
X33740Y275611D01*
X33722Y275613D01*
X33540Y275592D01*
X33357Y275573D01*
X33340Y275568D01*
X33323Y275566D01*
X33148Y275509D01*
X32972Y275455D01*
X32957Y275447D01*
X32940Y275441D01*
X32780Y275351D01*
X32618Y275263D01*
X32605Y275252D01*
X32589Y275243D01*
X32450Y275123D01*
X32309Y275006D01*
X32298Y274992D01*
X32284Y274980D01*
X32172Y274835D01*
X32057Y274692D01*
X32049Y274676D01*
X32038Y274662D01*
X31956Y274497D01*
X31871Y274335D01*
X31866Y274318D01*
X31858Y274302D01*
X31811Y274123D01*
X31760Y273948D01*
X31758Y273930D01*
X31754Y273913D01*
X31727Y273582D01*
X31727Y272751D01*
X29509Y270533D01*
X28678Y270533D01*
X28660Y270531D01*
X28642Y270533D01*
X28460Y270512D01*
X28277Y270493D01*
X28260Y270488D01*
X28243Y270486D01*
X28068Y270429D01*
X27892Y270375D01*
X27877Y270367D01*
X27860Y270361D01*
X27700Y270271D01*
X27538Y270183D01*
X27525Y270172D01*
X27509Y270163D01*
X27370Y270043D01*
X27229Y269926D01*
X27218Y269912D01*
X27204Y269900D01*
X27092Y269755D01*
X26977Y269612D01*
X26969Y269596D01*
X26958Y269582D01*
X26876Y269417D01*
X26791Y269255D01*
X26786Y269238D01*
X26778Y269222D01*
X26731Y269043D01*
X26680Y268868D01*
X26678Y268850D01*
X26674Y268833D01*
X26647Y268502D01*
X26647Y267671D01*
X24429Y265453D01*
X21291Y265453D01*
X19073Y267671D01*
X19073Y268592D01*
X19071Y268619D01*
X19073Y268646D01*
X19051Y268819D01*
X19033Y268993D01*
X19026Y269018D01*
X19022Y269045D01*
X18967Y269211D01*
X18915Y269378D01*
X18902Y269401D01*
X18894Y269427D01*
X18807Y269578D01*
X18723Y269732D01*
X18706Y269752D01*
X18693Y269776D01*
X18478Y270029D01*
X10159Y278348D01*
X10159Y871002D01*
X12242Y873085D01*
X12243Y873086D01*
X17998Y878841D01*
X104294Y878841D01*
X104321Y878843D01*
X104347Y878841D01*
X104521Y878863D01*
X104695Y878881D01*
X104720Y878888D01*
X104747Y878892D01*
X104913Y878947D01*
X105080Y878999D01*
X105103Y879012D01*
X105129Y879020D01*
X105280Y879107D01*
X105434Y879191D01*
X105454Y879208D01*
X105477Y879221D01*
X105730Y879436D01*
X106381Y880087D01*
X109519Y880087D01*
X111737Y877869D01*
X111737Y874522D01*
X111739Y874504D01*
X111737Y874486D01*
X111758Y874304D01*
X111777Y874121D01*
X111782Y874104D01*
X111784Y874087D01*
X111841Y873912D01*
X111895Y873736D01*
X111903Y873721D01*
X111909Y873704D01*
X111999Y873544D01*
X112087Y873382D01*
X112098Y873369D01*
X112107Y873353D01*
X112227Y873214D01*
X112344Y873073D01*
X112358Y873062D01*
X112370Y873048D01*
X112515Y872936D01*
X112658Y872821D01*
X112674Y872813D01*
X112688Y872802D01*
X112853Y872720D01*
X113015Y872635D01*
X113032Y872630D01*
X113048Y872622D01*
X113227Y872575D01*
X113402Y872524D01*
X113420Y872522D01*
X113437Y872518D01*
X113768Y872491D01*
X142394Y872491D01*
X142421Y872493D01*
X142447Y872491D01*
X142622Y872513D01*
X142795Y872531D01*
X142820Y872538D01*
X142847Y872542D01*
X143013Y872598D01*
X143180Y872649D01*
X143203Y872662D01*
X143229Y872670D01*
X143380Y872757D01*
X143534Y872841D01*
X143554Y872858D01*
X143577Y872871D01*
X143830Y873086D01*
X144481Y873737D01*
X147619Y873737D01*
X149837Y871519D01*
X149837Y868172D01*
X149839Y868154D01*
X149837Y868136D01*
X149858Y867954D01*
X149877Y867771D01*
X149882Y867754D01*
X149884Y867737D01*
X149941Y867562D01*
X149995Y867386D01*
X150003Y867371D01*
X150009Y867354D01*
X150099Y867194D01*
X150187Y867032D01*
X150198Y867019D01*
X150207Y867003D01*
X150327Y866864D01*
X150444Y866723D01*
X150458Y866712D01*
X150470Y866698D01*
X150615Y866586D01*
X150758Y866471D01*
X150774Y866463D01*
X150788Y866452D01*
X150953Y866370D01*
X151115Y866285D01*
X151132Y866280D01*
X151148Y866272D01*
X151327Y866225D01*
X151502Y866174D01*
X151520Y866172D01*
X151537Y866168D01*
X151868Y866141D01*
X180494Y866141D01*
X180521Y866143D01*
X180547Y866141D01*
X180721Y866163D01*
X180895Y866181D01*
X180920Y866188D01*
X180947Y866192D01*
X181113Y866247D01*
X181280Y866299D01*
X181303Y866312D01*
X181329Y866320D01*
X181480Y866407D01*
X181634Y866491D01*
X181654Y866508D01*
X181677Y866521D01*
X181930Y866736D01*
X182581Y867387D01*
X185719Y867387D01*
X187937Y865169D01*
X187937Y861822D01*
X187939Y861804D01*
X187937Y861786D01*
X187958Y861604D01*
X187977Y861421D01*
X187982Y861404D01*
X187984Y861387D01*
X188041Y861212D01*
X188095Y861036D01*
X188103Y861021D01*
X188109Y861004D01*
X188199Y860844D01*
X188287Y860682D01*
X188298Y860669D01*
X188307Y860653D01*
X188427Y860514D01*
X188544Y860373D01*
X188558Y860362D01*
X188570Y860348D01*
X188715Y860236D01*
X188858Y860121D01*
X188874Y860113D01*
X188888Y860102D01*
X189053Y860020D01*
X189215Y859935D01*
X189232Y859930D01*
X189248Y859922D01*
X189427Y859875D01*
X189602Y859824D01*
X189620Y859822D01*
X189637Y859818D01*
X189968Y859791D01*
X218594Y859791D01*
X218621Y859793D01*
X218647Y859791D01*
X218821Y859813D01*
X218995Y859831D01*
X219020Y859838D01*
X219047Y859842D01*
X219213Y859897D01*
X219380Y859949D01*
X219403Y859962D01*
X219429Y859970D01*
X219580Y860057D01*
X219734Y860141D01*
X219754Y860158D01*
X219777Y860171D01*
X220030Y860386D01*
X220681Y861037D01*
X223819Y861037D01*
X226037Y858819D01*
X226037Y855472D01*
X226039Y855454D01*
X226037Y855436D01*
X226058Y855254D01*
X226077Y855071D01*
X226082Y855054D01*
X226084Y855037D01*
X226141Y854862D01*
X226195Y854686D01*
X226203Y854671D01*
X226209Y854654D01*
X226299Y854494D01*
X226387Y854332D01*
X226398Y854319D01*
X226407Y854303D01*
X226527Y854164D01*
X226644Y854023D01*
X226658Y854012D01*
X226670Y853998D01*
X226815Y853886D01*
X226958Y853771D01*
X226974Y853763D01*
X226988Y853752D01*
X227153Y853670D01*
X227315Y853585D01*
X227332Y853580D01*
X227348Y853572D01*
X227527Y853525D01*
X227702Y853474D01*
X227720Y853472D01*
X227737Y853468D01*
X228068Y853441D01*
X250344Y853441D01*
X250371Y853443D01*
X250397Y853441D01*
X250572Y853463D01*
X250745Y853481D01*
X250770Y853488D01*
X250797Y853492D01*
X250963Y853548D01*
X251130Y853599D01*
X251153Y853612D01*
X251179Y853620D01*
X251330Y853707D01*
X251484Y853791D01*
X251504Y853808D01*
X251527Y853821D01*
X251780Y854036D01*
X252431Y854687D01*
X255569Y854687D01*
X257787Y852469D01*
X257787Y849122D01*
X257789Y849104D01*
X257787Y849086D01*
X257808Y848904D01*
X257827Y848721D01*
X257832Y848704D01*
X257834Y848687D01*
X257891Y848512D01*
X257945Y848336D01*
X257953Y848321D01*
X257959Y848304D01*
X258049Y848144D01*
X258137Y847982D01*
X258148Y847969D01*
X258157Y847953D01*
X258277Y847814D01*
X258394Y847673D01*
X258408Y847662D01*
X258420Y847648D01*
X258565Y847536D01*
X258708Y847421D01*
X258724Y847413D01*
X258738Y847402D01*
X258903Y847320D01*
X259065Y847235D01*
X259082Y847230D01*
X259098Y847222D01*
X259277Y847175D01*
X259452Y847124D01*
X259470Y847122D01*
X259487Y847118D01*
X259818Y847091D01*
X288444Y847091D01*
X288471Y847093D01*
X288497Y847091D01*
X288671Y847113D01*
X288845Y847131D01*
X288870Y847138D01*
X288897Y847142D01*
X289063Y847197D01*
X289230Y847249D01*
X289253Y847262D01*
X289279Y847270D01*
X289430Y847357D01*
X289584Y847441D01*
X289604Y847458D01*
X289627Y847471D01*
X289880Y847686D01*
X290531Y848337D01*
X293669Y848337D01*
X295887Y846119D01*
X295887Y842772D01*
X295889Y842754D01*
X295887Y842736D01*
X295908Y842554D01*
X295927Y842371D01*
X295932Y842354D01*
X295934Y842337D01*
X295991Y842162D01*
X296045Y841986D01*
X296053Y841971D01*
X296059Y841954D01*
X296149Y841794D01*
X296237Y841632D01*
X296248Y841619D01*
X296257Y841603D01*
X296377Y841464D01*
X296494Y841323D01*
X296508Y841312D01*
X296520Y841298D01*
X296665Y841186D01*
X296808Y841071D01*
X296824Y841063D01*
X296838Y841052D01*
X297003Y840970D01*
X297165Y840885D01*
X297182Y840880D01*
X297198Y840872D01*
X297377Y840825D01*
X297552Y840774D01*
X297570Y840772D01*
X297587Y840768D01*
X297918Y840741D01*
X326544Y840741D01*
X326571Y840743D01*
X326597Y840741D01*
X326771Y840763D01*
X326945Y840781D01*
X326970Y840788D01*
X326997Y840792D01*
X327163Y840847D01*
X327330Y840899D01*
X327353Y840912D01*
X327379Y840920D01*
X327530Y841007D01*
X327684Y841091D01*
X327704Y841108D01*
X327727Y841121D01*
X327980Y841336D01*
X328631Y841987D01*
X331769Y841987D01*
X333987Y839769D01*
X333987Y836422D01*
X333989Y836404D01*
X333987Y836386D01*
X334008Y836204D01*
X334027Y836021D01*
X334032Y836004D01*
X334034Y835987D01*
X334091Y835812D01*
X334145Y835636D01*
X334153Y835621D01*
X334159Y835604D01*
X334249Y835444D01*
X334337Y835282D01*
X334348Y835269D01*
X334357Y835253D01*
X334477Y835114D01*
X334594Y834973D01*
X334608Y834962D01*
X334620Y834948D01*
X334765Y834836D01*
X334908Y834721D01*
X334924Y834713D01*
X334938Y834702D01*
X335103Y834620D01*
X335265Y834535D01*
X335282Y834530D01*
X335298Y834522D01*
X335477Y834475D01*
X335652Y834424D01*
X335670Y834422D01*
X335687Y834418D01*
X336018Y834391D01*
X364644Y834391D01*
X364671Y834393D01*
X364697Y834391D01*
X364872Y834413D01*
X365045Y834431D01*
X365070Y834438D01*
X365097Y834442D01*
X365263Y834498D01*
X365430Y834549D01*
X365453Y834562D01*
X365479Y834570D01*
X365630Y834657D01*
X365784Y834741D01*
X365804Y834758D01*
X365827Y834771D01*
X366080Y834986D01*
X366731Y835637D01*
X369869Y835637D01*
X372087Y833419D01*
X372087Y830281D01*
X369869Y828063D01*
X366731Y828063D01*
X366080Y828714D01*
X366060Y828731D01*
X366042Y828752D01*
X365904Y828859D01*
X365769Y828969D01*
X365745Y828982D01*
X365724Y828998D01*
X365568Y829076D01*
X365413Y829158D01*
X365388Y829166D01*
X365364Y829178D01*
X365195Y829223D01*
X365027Y829273D01*
X365001Y829275D01*
X364975Y829282D01*
X364644Y829309D01*
X65394Y829309D01*
X65367Y829307D01*
X65340Y829309D01*
X65167Y829287D01*
X64993Y829269D01*
X64968Y829262D01*
X64941Y829258D01*
X64775Y829203D01*
X64608Y829151D01*
X64585Y829138D01*
X64559Y829130D01*
X64408Y829043D01*
X64254Y828959D01*
X64234Y828942D01*
X64210Y828929D01*
X63957Y828714D01*
X60286Y825043D01*
X60269Y825022D01*
X60248Y825004D01*
X60141Y824866D01*
X60031Y824731D01*
X60018Y824707D01*
X60002Y824686D01*
X59924Y824529D01*
X59842Y824375D01*
X59834Y824350D01*
X59822Y824326D01*
X59777Y824156D01*
X59727Y823989D01*
X59725Y823963D01*
X59718Y823937D01*
X59691Y823606D01*
X59691Y471794D01*
X59693Y471767D01*
X59691Y471740D01*
X59713Y471567D01*
X59731Y471393D01*
X59738Y471368D01*
X59742Y471341D01*
X59797Y471175D01*
X59849Y471008D01*
X59862Y470985D01*
X59870Y470959D01*
X59957Y470808D01*
X60041Y470654D01*
X60058Y470634D01*
X60071Y470610D01*
X60286Y470357D01*
X62687Y467956D01*
X62708Y467939D01*
X62726Y467918D01*
X62864Y467811D01*
X62999Y467701D01*
X63023Y467688D01*
X63044Y467672D01*
X63201Y467594D01*
X63355Y467512D01*
X63380Y467504D01*
X63404Y467492D01*
X63574Y467447D01*
X63741Y467397D01*
X63767Y467395D01*
X63793Y467388D01*
X64124Y467361D01*
X252512Y467361D01*
X302261Y417612D01*
X302261Y293994D01*
X302263Y293967D01*
X302261Y293940D01*
X302283Y293767D01*
X302301Y293593D01*
X302308Y293568D01*
X302312Y293541D01*
X302367Y293375D01*
X302419Y293208D01*
X302432Y293185D01*
X302440Y293159D01*
X302527Y293008D01*
X302611Y292854D01*
X302628Y292834D01*
X302641Y292810D01*
X302856Y292557D01*
X358141Y237272D01*
X358141Y174614D01*
X358143Y174587D01*
X358141Y174560D01*
X358163Y174387D01*
X358181Y174213D01*
X358188Y174188D01*
X358192Y174161D01*
X358247Y173995D01*
X358299Y173828D01*
X358312Y173805D01*
X358320Y173779D01*
X358407Y173628D01*
X358491Y173474D01*
X358508Y173454D01*
X358521Y173430D01*
X358736Y173177D01*
X360681Y171232D01*
X360681Y138648D01*
X360121Y138088D01*
X360116Y138081D01*
X360109Y138076D01*
X359988Y137926D01*
X359866Y137777D01*
X359862Y137769D01*
X359857Y137762D01*
X359768Y137592D01*
X359678Y137421D01*
X359675Y137412D01*
X359671Y137405D01*
X359618Y137220D01*
X359563Y137035D01*
X359562Y137026D01*
X359560Y137018D01*
X359544Y136827D01*
X359527Y136634D01*
X359528Y136625D01*
X359527Y136616D01*
X359549Y136427D01*
X359570Y136234D01*
X359573Y136225D01*
X359574Y136217D01*
X359633Y136035D01*
X359691Y135850D01*
X359696Y135842D01*
X359699Y135834D01*
X359793Y135667D01*
X359886Y135498D01*
X359892Y135491D01*
X359896Y135483D01*
X360022Y135338D01*
X360147Y135191D01*
X360154Y135185D01*
X360160Y135178D01*
X360310Y135062D01*
X360463Y134941D01*
X360471Y134937D01*
X360478Y134932D01*
X360648Y134847D01*
X360822Y134759D01*
X360830Y134756D01*
X360838Y134752D01*
X361024Y134703D01*
X361209Y134651D01*
X361218Y134650D01*
X361227Y134648D01*
X361558Y134621D01*
X470546Y134621D01*
X470573Y134623D01*
X470600Y134621D01*
X470773Y134643D01*
X470947Y134661D01*
X470972Y134668D01*
X470999Y134672D01*
X471165Y134727D01*
X471332Y134779D01*
X471355Y134792D01*
X471381Y134800D01*
X471532Y134887D01*
X471686Y134971D01*
X471706Y134988D01*
X471730Y135001D01*
X471983Y135216D01*
X484544Y147777D01*
X484561Y147798D01*
X484582Y147816D01*
X484689Y147954D01*
X484799Y148089D01*
X484812Y148113D01*
X484828Y148134D01*
X484906Y148291D01*
X484988Y148445D01*
X484996Y148470D01*
X485008Y148494D01*
X485053Y148664D01*
X485103Y148831D01*
X485105Y148857D01*
X485112Y148883D01*
X485139Y149214D01*
X485139Y156602D01*
X485138Y156611D01*
X485139Y156620D01*
X485118Y156811D01*
X485099Y157003D01*
X485097Y157011D01*
X485096Y157020D01*
X485038Y157203D01*
X484981Y157388D01*
X484977Y157396D01*
X484974Y157404D01*
X484881Y157573D01*
X484789Y157742D01*
X484784Y157749D01*
X484779Y157757D01*
X484655Y157903D01*
X484532Y158051D01*
X484525Y158057D01*
X484519Y158063D01*
X484368Y158183D01*
X484218Y158303D01*
X484210Y158308D01*
X484203Y158313D01*
X484030Y158401D01*
X483861Y158489D01*
X483852Y158491D01*
X483844Y158495D01*
X483658Y158547D01*
X483474Y158600D01*
X483465Y158601D01*
X483456Y158603D01*
X483263Y158618D01*
X483072Y158633D01*
X483064Y158632D01*
X483055Y158633D01*
X482862Y158609D01*
X482673Y158586D01*
X482664Y158584D01*
X482655Y158582D01*
X482472Y158521D01*
X482290Y158461D01*
X482282Y158457D01*
X482274Y158454D01*
X482107Y158358D01*
X481939Y158264D01*
X481932Y158258D01*
X481925Y158253D01*
X481672Y158039D01*
X476822Y153189D01*
X476805Y153168D01*
X476784Y153150D01*
X476678Y153013D01*
X476567Y152877D01*
X476554Y152853D01*
X476538Y152832D01*
X476460Y152676D01*
X476378Y152521D01*
X476370Y152496D01*
X476358Y152472D01*
X476313Y152303D01*
X476263Y152135D01*
X476261Y152109D01*
X476254Y152083D01*
X476227Y151752D01*
X476227Y150831D01*
X474009Y148613D01*
X470871Y148613D01*
X468653Y150831D01*
X468653Y151662D01*
X468651Y151680D01*
X468653Y151698D01*
X468632Y151880D01*
X468613Y152063D01*
X468608Y152080D01*
X468606Y152097D01*
X468549Y152272D01*
X468495Y152448D01*
X468487Y152463D01*
X468481Y152480D01*
X468391Y152640D01*
X468303Y152802D01*
X468292Y152815D01*
X468283Y152831D01*
X468163Y152970D01*
X468046Y153111D01*
X468032Y153122D01*
X468020Y153136D01*
X467875Y153248D01*
X467732Y153363D01*
X467716Y153371D01*
X467702Y153382D01*
X467537Y153464D01*
X467375Y153549D01*
X467358Y153554D01*
X467342Y153562D01*
X467163Y153609D01*
X466988Y153660D01*
X466970Y153662D01*
X466953Y153666D01*
X466622Y153693D01*
X465791Y153693D01*
X463573Y155911D01*
X463573Y159049D01*
X465791Y161267D01*
X466712Y161267D01*
X466739Y161269D01*
X466766Y161267D01*
X466939Y161289D01*
X467113Y161307D01*
X467138Y161314D01*
X467165Y161318D01*
X467331Y161373D01*
X467498Y161425D01*
X467521Y161438D01*
X467547Y161446D01*
X467698Y161533D01*
X467852Y161617D01*
X467872Y161634D01*
X467896Y161647D01*
X468149Y161862D01*
X474384Y168097D01*
X474401Y168118D01*
X474422Y168136D01*
X474529Y168274D01*
X474639Y168409D01*
X474652Y168433D01*
X474668Y168454D01*
X474746Y168611D01*
X474828Y168765D01*
X474836Y168790D01*
X474848Y168814D01*
X474893Y168984D01*
X474943Y169151D01*
X474945Y169177D01*
X474952Y169203D01*
X474979Y169534D01*
X474979Y204862D01*
X474978Y204871D01*
X474979Y204880D01*
X474958Y205073D01*
X474939Y205263D01*
X474937Y205271D01*
X474936Y205280D01*
X474877Y205465D01*
X474821Y205648D01*
X474817Y205656D01*
X474814Y205664D01*
X474721Y205832D01*
X474629Y206002D01*
X474624Y206009D01*
X474619Y206016D01*
X474495Y206164D01*
X474372Y206311D01*
X474365Y206317D01*
X474359Y206323D01*
X474208Y206442D01*
X474058Y206563D01*
X474050Y206568D01*
X474043Y206573D01*
X473870Y206661D01*
X473701Y206749D01*
X473692Y206751D01*
X473684Y206755D01*
X473498Y206807D01*
X473314Y206860D01*
X473305Y206861D01*
X473296Y206863D01*
X473103Y206878D01*
X472912Y206893D01*
X472904Y206892D01*
X472895Y206893D01*
X472702Y206869D01*
X472513Y206846D01*
X472504Y206844D01*
X472495Y206842D01*
X472313Y206781D01*
X472130Y206721D01*
X472122Y206717D01*
X472114Y206714D01*
X471947Y206618D01*
X471779Y206524D01*
X471772Y206518D01*
X471765Y206513D01*
X471512Y206299D01*
X460336Y195123D01*
X460336Y195122D01*
X458252Y193039D01*
X437996Y193039D01*
X437969Y193037D01*
X437943Y193039D01*
X437769Y193017D01*
X437595Y192999D01*
X437570Y192992D01*
X437543Y192988D01*
X437377Y192933D01*
X437210Y192881D01*
X437187Y192868D01*
X437161Y192860D01*
X437010Y192773D01*
X436856Y192689D01*
X436836Y192672D01*
X436813Y192659D01*
X436560Y192444D01*
X435909Y191793D01*
X432771Y191793D01*
X430553Y194011D01*
X430553Y194842D01*
X430551Y194860D01*
X430553Y194878D01*
X430532Y195060D01*
X430513Y195243D01*
X430508Y195260D01*
X430506Y195277D01*
X430449Y195452D01*
X430395Y195628D01*
X430387Y195643D01*
X430381Y195660D01*
X430291Y195820D01*
X430203Y195982D01*
X430192Y195995D01*
X430183Y196011D01*
X430063Y196150D01*
X429946Y196291D01*
X429932Y196302D01*
X429920Y196316D01*
X429775Y196428D01*
X429632Y196543D01*
X429616Y196551D01*
X429602Y196562D01*
X429437Y196644D01*
X429275Y196729D01*
X429258Y196734D01*
X429242Y196742D01*
X429063Y196789D01*
X428888Y196840D01*
X428870Y196842D01*
X428853Y196846D01*
X428522Y196873D01*
X427691Y196873D01*
X425616Y198948D01*
X425603Y198960D01*
X425591Y198973D01*
X425447Y199087D01*
X425305Y199204D01*
X425289Y199212D01*
X425275Y199223D01*
X425111Y199306D01*
X424949Y199392D01*
X424932Y199397D01*
X424916Y199405D01*
X424739Y199455D01*
X424563Y199507D01*
X424545Y199509D01*
X424528Y199513D01*
X424345Y199527D01*
X424162Y199543D01*
X424144Y199541D01*
X424127Y199543D01*
X423945Y199520D01*
X423762Y199500D01*
X423745Y199495D01*
X423727Y199492D01*
X423554Y199434D01*
X423378Y199378D01*
X423362Y199370D01*
X423346Y199364D01*
X423186Y199272D01*
X423026Y199184D01*
X423012Y199172D01*
X422997Y199163D01*
X422744Y198948D01*
X420669Y196873D01*
X417531Y196873D01*
X415313Y199091D01*
X415313Y202229D01*
X415964Y202880D01*
X415981Y202900D01*
X416002Y202918D01*
X416109Y203056D01*
X416219Y203191D01*
X416232Y203215D01*
X416248Y203236D01*
X416326Y203393D01*
X416408Y203547D01*
X416416Y203572D01*
X416428Y203596D01*
X416473Y203766D01*
X416523Y203933D01*
X416525Y203959D01*
X416532Y203985D01*
X416559Y204316D01*
X416559Y209332D01*
X420588Y213361D01*
X437526Y213361D01*
X437553Y213363D01*
X437580Y213361D01*
X437753Y213383D01*
X437927Y213401D01*
X437952Y213408D01*
X437979Y213412D01*
X438145Y213467D01*
X438312Y213519D01*
X438335Y213532D01*
X438361Y213540D01*
X438512Y213627D01*
X438666Y213711D01*
X438686Y213728D01*
X438710Y213741D01*
X438963Y213956D01*
X454064Y229057D01*
X454081Y229078D01*
X454102Y229096D01*
X454209Y229234D01*
X454319Y229369D01*
X454332Y229393D01*
X454348Y229414D01*
X454426Y229571D01*
X454508Y229725D01*
X454516Y229750D01*
X454528Y229774D01*
X454573Y229944D01*
X454623Y230111D01*
X454625Y230137D01*
X454632Y230163D01*
X454659Y230494D01*
X454659Y480706D01*
X454657Y480733D01*
X454659Y480760D01*
X454637Y480933D01*
X454619Y481107D01*
X454612Y481132D01*
X454608Y481159D01*
X454553Y481325D01*
X454501Y481492D01*
X454488Y481515D01*
X454480Y481541D01*
X454393Y481692D01*
X454309Y481846D01*
X454292Y481866D01*
X454279Y481890D01*
X454064Y482143D01*
X431343Y504864D01*
X431322Y504881D01*
X431304Y504902D01*
X431166Y505009D01*
X431031Y505119D01*
X431007Y505132D01*
X430986Y505148D01*
X430829Y505226D01*
X430675Y505308D01*
X430650Y505316D01*
X430626Y505328D01*
X430456Y505373D01*
X430289Y505423D01*
X430263Y505425D01*
X430237Y505432D01*
X429906Y505459D01*
X378306Y505459D01*
X378279Y505457D01*
X378253Y505459D01*
X378079Y505437D01*
X377905Y505419D01*
X377880Y505412D01*
X377853Y505408D01*
X377687Y505353D01*
X377520Y505301D01*
X377497Y505288D01*
X377471Y505280D01*
X377320Y505193D01*
X377166Y505109D01*
X377146Y505092D01*
X377123Y505079D01*
X376870Y504864D01*
X376219Y504213D01*
X373081Y504213D01*
X372430Y504864D01*
X372410Y504881D01*
X372392Y504902D01*
X372254Y505009D01*
X372119Y505119D01*
X372095Y505132D01*
X372074Y505148D01*
X371917Y505226D01*
X371763Y505308D01*
X371738Y505316D01*
X371714Y505328D01*
X371544Y505373D01*
X371377Y505423D01*
X371351Y505425D01*
X371325Y505432D01*
X370994Y505459D01*
X340206Y505459D01*
X340179Y505457D01*
X340153Y505459D01*
X339978Y505437D01*
X339805Y505419D01*
X339780Y505412D01*
X339753Y505408D01*
X339587Y505352D01*
X339420Y505301D01*
X339397Y505288D01*
X339371Y505280D01*
X339220Y505193D01*
X339066Y505109D01*
X339046Y505092D01*
X339023Y505079D01*
X338770Y504864D01*
X338119Y504213D01*
X334981Y504213D01*
X334330Y504864D01*
X334310Y504881D01*
X334292Y504902D01*
X334154Y505009D01*
X334019Y505119D01*
X333995Y505132D01*
X333974Y505148D01*
X333818Y505226D01*
X333663Y505308D01*
X333638Y505316D01*
X333614Y505328D01*
X333445Y505373D01*
X333277Y505423D01*
X333251Y505425D01*
X333225Y505432D01*
X332894Y505459D01*
X302106Y505459D01*
X302079Y505457D01*
X302053Y505459D01*
X301878Y505437D01*
X301705Y505419D01*
X301680Y505412D01*
X301653Y505408D01*
X301487Y505352D01*
X301320Y505301D01*
X301297Y505288D01*
X301271Y505280D01*
X301120Y505193D01*
X300966Y505109D01*
X300946Y505092D01*
X300923Y505079D01*
X300670Y504864D01*
X300019Y504213D01*
X296881Y504213D01*
X296230Y504864D01*
X296210Y504881D01*
X296192Y504902D01*
X296054Y505009D01*
X295919Y505119D01*
X295895Y505132D01*
X295874Y505148D01*
X295718Y505226D01*
X295563Y505308D01*
X295538Y505316D01*
X295514Y505328D01*
X295345Y505373D01*
X295177Y505423D01*
X295151Y505425D01*
X295125Y505432D01*
X294794Y505459D01*
X264006Y505459D01*
X263979Y505457D01*
X263953Y505459D01*
X263778Y505437D01*
X263605Y505419D01*
X263580Y505412D01*
X263553Y505408D01*
X263387Y505352D01*
X263220Y505301D01*
X263197Y505288D01*
X263171Y505280D01*
X263020Y505193D01*
X262866Y505109D01*
X262846Y505092D01*
X262823Y505079D01*
X262570Y504864D01*
X261919Y504213D01*
X258781Y504213D01*
X258130Y504864D01*
X258110Y504881D01*
X258092Y504902D01*
X257954Y505009D01*
X257819Y505119D01*
X257795Y505132D01*
X257774Y505148D01*
X257618Y505226D01*
X257463Y505308D01*
X257438Y505316D01*
X257414Y505328D01*
X257245Y505373D01*
X257077Y505423D01*
X257051Y505425D01*
X257025Y505432D01*
X256694Y505459D01*
X225906Y505459D01*
X225879Y505457D01*
X225853Y505459D01*
X225678Y505437D01*
X225505Y505419D01*
X225480Y505412D01*
X225453Y505408D01*
X225287Y505352D01*
X225120Y505301D01*
X225097Y505288D01*
X225071Y505280D01*
X224920Y505193D01*
X224766Y505109D01*
X224746Y505092D01*
X224723Y505079D01*
X224470Y504864D01*
X223819Y504213D01*
X220681Y504213D01*
X220030Y504864D01*
X220010Y504881D01*
X219992Y504902D01*
X219854Y505009D01*
X219719Y505119D01*
X219695Y505132D01*
X219674Y505148D01*
X219518Y505226D01*
X219363Y505308D01*
X219338Y505316D01*
X219314Y505328D01*
X219145Y505373D01*
X218977Y505423D01*
X218951Y505425D01*
X218925Y505432D01*
X218594Y505459D01*
X187806Y505459D01*
X187779Y505457D01*
X187753Y505459D01*
X187578Y505437D01*
X187405Y505419D01*
X187380Y505412D01*
X187353Y505408D01*
X187187Y505352D01*
X187020Y505301D01*
X186997Y505288D01*
X186971Y505280D01*
X186820Y505193D01*
X186666Y505109D01*
X186646Y505092D01*
X186623Y505079D01*
X186370Y504864D01*
X185719Y504213D01*
X182581Y504213D01*
X181930Y504864D01*
X181910Y504881D01*
X181892Y504902D01*
X181754Y505009D01*
X181619Y505119D01*
X181595Y505132D01*
X181574Y505148D01*
X181418Y505226D01*
X181263Y505308D01*
X181238Y505316D01*
X181214Y505328D01*
X181045Y505373D01*
X180877Y505423D01*
X180851Y505425D01*
X180825Y505432D01*
X180494Y505459D01*
X149706Y505459D01*
X149679Y505457D01*
X149653Y505459D01*
X149478Y505437D01*
X149305Y505419D01*
X149280Y505412D01*
X149253Y505408D01*
X149087Y505352D01*
X148920Y505301D01*
X148897Y505288D01*
X148871Y505280D01*
X148720Y505193D01*
X148566Y505109D01*
X148546Y505092D01*
X148523Y505079D01*
X148270Y504864D01*
X147619Y504213D01*
X144481Y504213D01*
X143830Y504864D01*
X143810Y504881D01*
X143792Y504902D01*
X143654Y505009D01*
X143519Y505119D01*
X143495Y505132D01*
X143474Y505148D01*
X143318Y505226D01*
X143163Y505308D01*
X143138Y505316D01*
X143114Y505328D01*
X142945Y505373D01*
X142777Y505423D01*
X142751Y505425D01*
X142725Y505432D01*
X142394Y505459D01*
X105256Y505459D01*
X105229Y505457D01*
X105203Y505459D01*
X105029Y505437D01*
X104855Y505419D01*
X104830Y505412D01*
X104803Y505408D01*
X104637Y505353D01*
X104470Y505301D01*
X104447Y505288D01*
X104421Y505280D01*
X104270Y505193D01*
X104116Y505109D01*
X104096Y505092D01*
X104073Y505079D01*
X103820Y504864D01*
X103169Y504213D01*
X100031Y504213D01*
X97813Y506431D01*
X97813Y509569D01*
X100031Y511787D01*
X103169Y511787D01*
X103820Y511136D01*
X103840Y511119D01*
X103858Y511098D01*
X103996Y510991D01*
X104131Y510881D01*
X104155Y510868D01*
X104176Y510852D01*
X104333Y510774D01*
X104487Y510692D01*
X104512Y510684D01*
X104536Y510672D01*
X104706Y510627D01*
X104873Y510577D01*
X104899Y510575D01*
X104925Y510568D01*
X105256Y510541D01*
X142394Y510541D01*
X142421Y510543D01*
X142447Y510541D01*
X142622Y510563D01*
X142795Y510581D01*
X142820Y510588D01*
X142847Y510592D01*
X143013Y510648D01*
X143180Y510699D01*
X143203Y510712D01*
X143229Y510720D01*
X143380Y510807D01*
X143534Y510891D01*
X143554Y510908D01*
X143577Y510921D01*
X143830Y511136D01*
X144481Y511787D01*
X147619Y511787D01*
X148270Y511136D01*
X148290Y511119D01*
X148308Y511098D01*
X148446Y510991D01*
X148581Y510881D01*
X148605Y510868D01*
X148626Y510852D01*
X148782Y510774D01*
X148937Y510692D01*
X148962Y510684D01*
X148986Y510672D01*
X149155Y510627D01*
X149323Y510577D01*
X149349Y510575D01*
X149375Y510568D01*
X149706Y510541D01*
X180494Y510541D01*
X180521Y510543D01*
X180547Y510541D01*
X180722Y510563D01*
X180895Y510581D01*
X180920Y510588D01*
X180947Y510592D01*
X181113Y510648D01*
X181280Y510699D01*
X181303Y510712D01*
X181329Y510720D01*
X181480Y510807D01*
X181634Y510891D01*
X181654Y510908D01*
X181677Y510921D01*
X181930Y511136D01*
X182581Y511787D01*
X185719Y511787D01*
X186370Y511136D01*
X186390Y511119D01*
X186408Y511098D01*
X186546Y510991D01*
X186681Y510881D01*
X186705Y510868D01*
X186726Y510852D01*
X186882Y510774D01*
X187037Y510692D01*
X187062Y510684D01*
X187086Y510672D01*
X187255Y510627D01*
X187423Y510577D01*
X187449Y510575D01*
X187475Y510568D01*
X187806Y510541D01*
X218594Y510541D01*
X218621Y510543D01*
X218647Y510541D01*
X218822Y510563D01*
X218995Y510581D01*
X219020Y510588D01*
X219047Y510592D01*
X219213Y510648D01*
X219380Y510699D01*
X219403Y510712D01*
X219429Y510720D01*
X219580Y510807D01*
X219734Y510891D01*
X219754Y510908D01*
X219777Y510921D01*
X220030Y511136D01*
X220681Y511787D01*
X223819Y511787D01*
X224470Y511136D01*
X224490Y511119D01*
X224508Y511098D01*
X224646Y510991D01*
X224781Y510881D01*
X224805Y510868D01*
X224826Y510852D01*
X224982Y510774D01*
X225137Y510692D01*
X225162Y510684D01*
X225186Y510672D01*
X225355Y510627D01*
X225523Y510577D01*
X225549Y510575D01*
X225575Y510568D01*
X225906Y510541D01*
X256694Y510541D01*
X256721Y510543D01*
X256747Y510541D01*
X256922Y510563D01*
X257095Y510581D01*
X257120Y510588D01*
X257147Y510592D01*
X257313Y510648D01*
X257480Y510699D01*
X257503Y510712D01*
X257529Y510720D01*
X257680Y510807D01*
X257834Y510891D01*
X257854Y510908D01*
X257877Y510921D01*
X258130Y511136D01*
X258781Y511787D01*
X261919Y511787D01*
X262570Y511136D01*
X262590Y511119D01*
X262608Y511098D01*
X262746Y510991D01*
X262881Y510881D01*
X262905Y510868D01*
X262926Y510852D01*
X263082Y510774D01*
X263237Y510692D01*
X263262Y510684D01*
X263286Y510672D01*
X263455Y510627D01*
X263623Y510577D01*
X263649Y510575D01*
X263675Y510568D01*
X264006Y510541D01*
X294794Y510541D01*
X294821Y510543D01*
X294847Y510541D01*
X295022Y510563D01*
X295195Y510581D01*
X295220Y510588D01*
X295247Y510592D01*
X295413Y510648D01*
X295580Y510699D01*
X295603Y510712D01*
X295629Y510720D01*
X295780Y510807D01*
X295934Y510891D01*
X295954Y510908D01*
X295977Y510921D01*
X296230Y511136D01*
X296881Y511787D01*
X300019Y511787D01*
X300670Y511136D01*
X300690Y511119D01*
X300708Y511098D01*
X300846Y510991D01*
X300981Y510881D01*
X301005Y510868D01*
X301026Y510852D01*
X301182Y510774D01*
X301337Y510692D01*
X301362Y510684D01*
X301386Y510672D01*
X301555Y510627D01*
X301723Y510577D01*
X301749Y510575D01*
X301775Y510568D01*
X302106Y510541D01*
X332894Y510541D01*
X332921Y510543D01*
X332947Y510541D01*
X333122Y510563D01*
X333295Y510581D01*
X333320Y510588D01*
X333347Y510592D01*
X333513Y510648D01*
X333680Y510699D01*
X333703Y510712D01*
X333729Y510720D01*
X333880Y510807D01*
X334034Y510891D01*
X334054Y510908D01*
X334077Y510921D01*
X334330Y511136D01*
X334981Y511787D01*
X338119Y511787D01*
X338770Y511136D01*
X338790Y511119D01*
X338808Y511098D01*
X338946Y510991D01*
X339081Y510881D01*
X339105Y510868D01*
X339126Y510852D01*
X339282Y510774D01*
X339437Y510692D01*
X339462Y510684D01*
X339486Y510672D01*
X339655Y510627D01*
X339823Y510577D01*
X339849Y510575D01*
X339875Y510568D01*
X340206Y510541D01*
X370994Y510541D01*
X371021Y510543D01*
X371047Y510541D01*
X371221Y510563D01*
X371395Y510581D01*
X371420Y510588D01*
X371447Y510592D01*
X371613Y510647D01*
X371780Y510699D01*
X371803Y510712D01*
X371829Y510720D01*
X371980Y510807D01*
X372134Y510891D01*
X372154Y510908D01*
X372177Y510921D01*
X372430Y511136D01*
X373081Y511787D01*
X376219Y511787D01*
X376870Y511136D01*
X376890Y511119D01*
X376908Y511098D01*
X377046Y510991D01*
X377181Y510881D01*
X377205Y510868D01*
X377226Y510852D01*
X377383Y510774D01*
X377537Y510692D01*
X377562Y510684D01*
X377586Y510672D01*
X377756Y510627D01*
X377923Y510577D01*
X377949Y510575D01*
X377975Y510568D01*
X378306Y510541D01*
X432852Y510541D01*
X434936Y508457D01*
X456272Y487121D01*
X456279Y487116D01*
X456284Y487109D01*
X456434Y486989D01*
X456583Y486866D01*
X456591Y486862D01*
X456598Y486857D01*
X456769Y486768D01*
X456939Y486678D01*
X456947Y486675D01*
X456955Y486671D01*
X457141Y486618D01*
X457325Y486563D01*
X457334Y486562D01*
X457342Y486560D01*
X457534Y486544D01*
X457726Y486527D01*
X457735Y486528D01*
X457744Y486527D01*
X457933Y486549D01*
X458126Y486570D01*
X458135Y486573D01*
X458143Y486574D01*
X458325Y486633D01*
X458510Y486691D01*
X458518Y486696D01*
X458526Y486699D01*
X458695Y486794D01*
X458862Y486886D01*
X458869Y486892D01*
X458877Y486896D01*
X459023Y487022D01*
X459169Y487147D01*
X459175Y487154D01*
X459182Y487160D01*
X459299Y487311D01*
X459419Y487463D01*
X459423Y487471D01*
X459428Y487478D01*
X459514Y487650D01*
X459601Y487822D01*
X459604Y487830D01*
X459608Y487838D01*
X459658Y488025D01*
X459709Y488210D01*
X459710Y488218D01*
X459712Y488227D01*
X459739Y488558D01*
X459739Y526426D01*
X459737Y526453D01*
X459739Y526480D01*
X459717Y526654D01*
X459699Y526827D01*
X459692Y526852D01*
X459688Y526879D01*
X459632Y527045D01*
X459581Y527212D01*
X459568Y527235D01*
X459560Y527261D01*
X459473Y527412D01*
X459389Y527566D01*
X459372Y527586D01*
X459359Y527610D01*
X459144Y527863D01*
X444043Y542964D01*
X444022Y542981D01*
X444004Y543002D01*
X443866Y543109D01*
X443731Y543219D01*
X443707Y543232D01*
X443686Y543248D01*
X443529Y543326D01*
X443375Y543408D01*
X443350Y543416D01*
X443326Y543428D01*
X443156Y543473D01*
X442989Y543523D01*
X442963Y543525D01*
X442937Y543532D01*
X442606Y543559D01*
X378306Y543559D01*
X378279Y543557D01*
X378253Y543559D01*
X378079Y543537D01*
X377905Y543519D01*
X377880Y543512D01*
X377853Y543508D01*
X377687Y543453D01*
X377520Y543401D01*
X377497Y543388D01*
X377471Y543380D01*
X377320Y543293D01*
X377166Y543209D01*
X377146Y543192D01*
X377123Y543179D01*
X376870Y542964D01*
X376219Y542313D01*
X373081Y542313D01*
X372430Y542964D01*
X372410Y542981D01*
X372392Y543002D01*
X372254Y543109D01*
X372119Y543219D01*
X372095Y543232D01*
X372074Y543248D01*
X371917Y543326D01*
X371763Y543408D01*
X371738Y543416D01*
X371714Y543428D01*
X371544Y543473D01*
X371377Y543523D01*
X371351Y543525D01*
X371325Y543532D01*
X370994Y543559D01*
X340206Y543559D01*
X340179Y543557D01*
X340153Y543559D01*
X339979Y543537D01*
X339805Y543519D01*
X339780Y543512D01*
X339753Y543508D01*
X339587Y543453D01*
X339420Y543401D01*
X339397Y543388D01*
X339371Y543380D01*
X339220Y543293D01*
X339066Y543209D01*
X339046Y543192D01*
X339023Y543179D01*
X338770Y542964D01*
X338119Y542313D01*
X334981Y542313D01*
X334330Y542964D01*
X334310Y542981D01*
X334292Y543002D01*
X334154Y543109D01*
X334019Y543219D01*
X333995Y543232D01*
X333974Y543248D01*
X333817Y543326D01*
X333663Y543408D01*
X333638Y543416D01*
X333614Y543428D01*
X333444Y543473D01*
X333277Y543523D01*
X333251Y543525D01*
X333225Y543532D01*
X332894Y543559D01*
X302106Y543559D01*
X302079Y543557D01*
X302053Y543559D01*
X301879Y543537D01*
X301705Y543519D01*
X301680Y543512D01*
X301653Y543508D01*
X301487Y543453D01*
X301320Y543401D01*
X301297Y543388D01*
X301271Y543380D01*
X301120Y543293D01*
X300966Y543209D01*
X300946Y543192D01*
X300923Y543179D01*
X300670Y542964D01*
X300019Y542313D01*
X296881Y542313D01*
X296230Y542964D01*
X296210Y542981D01*
X296192Y543002D01*
X296054Y543109D01*
X295919Y543219D01*
X295895Y543232D01*
X295874Y543248D01*
X295717Y543326D01*
X295563Y543408D01*
X295538Y543416D01*
X295514Y543428D01*
X295344Y543473D01*
X295177Y543523D01*
X295151Y543525D01*
X295125Y543532D01*
X294794Y543559D01*
X264006Y543559D01*
X263979Y543557D01*
X263953Y543559D01*
X263779Y543537D01*
X263605Y543519D01*
X263580Y543512D01*
X263553Y543508D01*
X263387Y543453D01*
X263220Y543401D01*
X263197Y543388D01*
X263171Y543380D01*
X263020Y543293D01*
X262866Y543209D01*
X262846Y543192D01*
X262823Y543179D01*
X262570Y542964D01*
X261919Y542313D01*
X258781Y542313D01*
X258130Y542964D01*
X258110Y542981D01*
X258092Y543002D01*
X257954Y543109D01*
X257819Y543219D01*
X257795Y543232D01*
X257774Y543248D01*
X257617Y543326D01*
X257463Y543408D01*
X257438Y543416D01*
X257414Y543428D01*
X257244Y543473D01*
X257077Y543523D01*
X257051Y543525D01*
X257025Y543532D01*
X256694Y543559D01*
X225906Y543559D01*
X225879Y543557D01*
X225853Y543559D01*
X225679Y543537D01*
X225505Y543519D01*
X225480Y543512D01*
X225453Y543508D01*
X225287Y543453D01*
X225120Y543401D01*
X225097Y543388D01*
X225071Y543380D01*
X224920Y543293D01*
X224766Y543209D01*
X224746Y543192D01*
X224723Y543179D01*
X224470Y542964D01*
X223819Y542313D01*
X220681Y542313D01*
X220030Y542964D01*
X220010Y542981D01*
X219992Y543002D01*
X219854Y543109D01*
X219719Y543219D01*
X219695Y543232D01*
X219674Y543248D01*
X219517Y543326D01*
X219363Y543408D01*
X219338Y543416D01*
X219314Y543428D01*
X219144Y543473D01*
X218977Y543523D01*
X218951Y543525D01*
X218925Y543532D01*
X218594Y543559D01*
X187806Y543559D01*
X187779Y543557D01*
X187753Y543559D01*
X187579Y543537D01*
X187405Y543519D01*
X187380Y543512D01*
X187353Y543508D01*
X187187Y543453D01*
X187020Y543401D01*
X186997Y543388D01*
X186971Y543380D01*
X186820Y543293D01*
X186666Y543209D01*
X186646Y543192D01*
X186623Y543179D01*
X186370Y542964D01*
X185719Y542313D01*
X182581Y542313D01*
X181930Y542964D01*
X181910Y542981D01*
X181892Y543002D01*
X181754Y543109D01*
X181619Y543219D01*
X181595Y543232D01*
X181574Y543248D01*
X181418Y543326D01*
X181263Y543408D01*
X181238Y543416D01*
X181214Y543428D01*
X181045Y543473D01*
X180877Y543523D01*
X180851Y543525D01*
X180825Y543532D01*
X180494Y543559D01*
X149706Y543559D01*
X149679Y543557D01*
X149653Y543559D01*
X149478Y543537D01*
X149305Y543519D01*
X149280Y543512D01*
X149253Y543508D01*
X149087Y543452D01*
X148920Y543401D01*
X148897Y543388D01*
X148871Y543380D01*
X148720Y543293D01*
X148566Y543209D01*
X148546Y543192D01*
X148523Y543179D01*
X148270Y542964D01*
X147619Y542313D01*
X144481Y542313D01*
X143830Y542964D01*
X143810Y542981D01*
X143792Y543002D01*
X143654Y543109D01*
X143519Y543219D01*
X143495Y543232D01*
X143474Y543248D01*
X143318Y543326D01*
X143163Y543408D01*
X143138Y543416D01*
X143114Y543428D01*
X142945Y543473D01*
X142777Y543523D01*
X142751Y543525D01*
X142725Y543532D01*
X142394Y543559D01*
X105256Y543559D01*
X105229Y543557D01*
X105203Y543559D01*
X105028Y543537D01*
X104855Y543519D01*
X104830Y543512D01*
X104803Y543508D01*
X104637Y543452D01*
X104470Y543401D01*
X104447Y543388D01*
X104421Y543380D01*
X104270Y543293D01*
X104116Y543209D01*
X104096Y543192D01*
X104073Y543179D01*
X103820Y542964D01*
X103169Y542313D01*
X100031Y542313D01*
X97813Y544531D01*
X97813Y547669D01*
X100031Y549887D01*
X103169Y549887D01*
X103820Y549236D01*
X103840Y549219D01*
X103858Y549198D01*
X103996Y549091D01*
X104131Y548981D01*
X104155Y548968D01*
X104176Y548952D01*
X104332Y548874D01*
X104487Y548792D01*
X104512Y548784D01*
X104536Y548772D01*
X104705Y548727D01*
X104873Y548677D01*
X104899Y548675D01*
X104925Y548668D01*
X105256Y548641D01*
X142394Y548641D01*
X142421Y548643D01*
X142447Y548641D01*
X142622Y548663D01*
X142795Y548681D01*
X142820Y548688D01*
X142847Y548692D01*
X143013Y548748D01*
X143180Y548799D01*
X143203Y548812D01*
X143229Y548820D01*
X143380Y548907D01*
X143534Y548991D01*
X143554Y549008D01*
X143577Y549021D01*
X143830Y549236D01*
X144481Y549887D01*
X147619Y549887D01*
X148270Y549236D01*
X148290Y549219D01*
X148308Y549198D01*
X148446Y549091D01*
X148581Y548981D01*
X148605Y548968D01*
X148626Y548952D01*
X148782Y548874D01*
X148937Y548792D01*
X148962Y548784D01*
X148986Y548772D01*
X149155Y548727D01*
X149323Y548677D01*
X149349Y548675D01*
X149375Y548668D01*
X149706Y548641D01*
X180494Y548641D01*
X180521Y548643D01*
X180547Y548641D01*
X180722Y548663D01*
X180895Y548681D01*
X180920Y548688D01*
X180947Y548692D01*
X181113Y548748D01*
X181280Y548799D01*
X181303Y548812D01*
X181329Y548820D01*
X181480Y548907D01*
X181634Y548991D01*
X181654Y549008D01*
X181677Y549021D01*
X181930Y549236D01*
X182581Y549887D01*
X185719Y549887D01*
X186370Y549236D01*
X186390Y549219D01*
X186408Y549198D01*
X186546Y549091D01*
X186681Y548981D01*
X186705Y548968D01*
X186726Y548952D01*
X186883Y548874D01*
X187037Y548792D01*
X187062Y548784D01*
X187086Y548772D01*
X187256Y548727D01*
X187423Y548677D01*
X187449Y548675D01*
X187475Y548668D01*
X187806Y548641D01*
X218594Y548641D01*
X218621Y548643D01*
X218647Y548641D01*
X218821Y548663D01*
X218995Y548681D01*
X219020Y548688D01*
X219047Y548692D01*
X219213Y548747D01*
X219380Y548799D01*
X219403Y548812D01*
X219429Y548820D01*
X219580Y548907D01*
X219734Y548991D01*
X219754Y549008D01*
X219777Y549021D01*
X220030Y549236D01*
X220681Y549887D01*
X223819Y549887D01*
X224470Y549236D01*
X224490Y549219D01*
X224508Y549198D01*
X224646Y549091D01*
X224781Y548981D01*
X224805Y548968D01*
X224826Y548952D01*
X224983Y548874D01*
X225137Y548792D01*
X225162Y548784D01*
X225186Y548772D01*
X225356Y548727D01*
X225523Y548677D01*
X225549Y548675D01*
X225575Y548668D01*
X225906Y548641D01*
X256694Y548641D01*
X256721Y548643D01*
X256747Y548641D01*
X256921Y548663D01*
X257095Y548681D01*
X257120Y548688D01*
X257147Y548692D01*
X257313Y548747D01*
X257480Y548799D01*
X257503Y548812D01*
X257529Y548820D01*
X257680Y548907D01*
X257834Y548991D01*
X257854Y549008D01*
X257877Y549021D01*
X258130Y549236D01*
X258781Y549887D01*
X261919Y549887D01*
X262570Y549236D01*
X262590Y549219D01*
X262608Y549198D01*
X262746Y549091D01*
X262881Y548981D01*
X262905Y548968D01*
X262926Y548952D01*
X263083Y548874D01*
X263237Y548792D01*
X263262Y548784D01*
X263286Y548772D01*
X263456Y548727D01*
X263623Y548677D01*
X263649Y548675D01*
X263675Y548668D01*
X264006Y548641D01*
X294794Y548641D01*
X294821Y548643D01*
X294847Y548641D01*
X295021Y548663D01*
X295195Y548681D01*
X295220Y548688D01*
X295247Y548692D01*
X295413Y548747D01*
X295580Y548799D01*
X295603Y548812D01*
X295629Y548820D01*
X295780Y548907D01*
X295934Y548991D01*
X295954Y549008D01*
X295977Y549021D01*
X296230Y549236D01*
X296881Y549887D01*
X300019Y549887D01*
X300670Y549236D01*
X300690Y549219D01*
X300708Y549198D01*
X300846Y549091D01*
X300981Y548981D01*
X301005Y548968D01*
X301026Y548952D01*
X301183Y548874D01*
X301337Y548792D01*
X301362Y548784D01*
X301386Y548772D01*
X301556Y548727D01*
X301723Y548677D01*
X301749Y548675D01*
X301775Y548668D01*
X302106Y548641D01*
X332894Y548641D01*
X332921Y548643D01*
X332947Y548641D01*
X333121Y548663D01*
X333295Y548681D01*
X333320Y548688D01*
X333347Y548692D01*
X333513Y548747D01*
X333680Y548799D01*
X333703Y548812D01*
X333729Y548820D01*
X333880Y548907D01*
X334034Y548991D01*
X334054Y549008D01*
X334077Y549021D01*
X334330Y549236D01*
X334981Y549887D01*
X338119Y549887D01*
X338770Y549236D01*
X338790Y549219D01*
X338808Y549198D01*
X338946Y549091D01*
X339081Y548981D01*
X339105Y548968D01*
X339126Y548952D01*
X339283Y548874D01*
X339437Y548792D01*
X339462Y548784D01*
X339486Y548772D01*
X339656Y548727D01*
X339823Y548677D01*
X339849Y548675D01*
X339875Y548668D01*
X340206Y548641D01*
X370994Y548641D01*
X371021Y548643D01*
X371047Y548641D01*
X371221Y548663D01*
X371395Y548681D01*
X371420Y548688D01*
X371447Y548692D01*
X371613Y548747D01*
X371780Y548799D01*
X371803Y548812D01*
X371829Y548820D01*
X371980Y548907D01*
X372134Y548991D01*
X372154Y549008D01*
X372177Y549021D01*
X372430Y549236D01*
X373081Y549887D01*
X376219Y549887D01*
X376870Y549236D01*
X376890Y549219D01*
X376908Y549198D01*
X377046Y549091D01*
X377181Y548981D01*
X377205Y548968D01*
X377226Y548952D01*
X377383Y548874D01*
X377537Y548792D01*
X377562Y548784D01*
X377586Y548772D01*
X377756Y548727D01*
X377923Y548677D01*
X377949Y548675D01*
X377975Y548668D01*
X378306Y548641D01*
X445552Y548641D01*
X461352Y532841D01*
X461359Y532836D01*
X461364Y532829D01*
X461514Y532709D01*
X461663Y532586D01*
X461671Y532582D01*
X461678Y532577D01*
X461848Y532488D01*
X462019Y532398D01*
X462028Y532395D01*
X462035Y532391D01*
X462220Y532338D01*
X462405Y532283D01*
X462414Y532282D01*
X462422Y532280D01*
X462614Y532264D01*
X462806Y532247D01*
X462815Y532248D01*
X462824Y532247D01*
X463013Y532269D01*
X463206Y532290D01*
X463215Y532293D01*
X463223Y532294D01*
X463405Y532353D01*
X463590Y532411D01*
X463598Y532416D01*
X463606Y532419D01*
X463775Y532514D01*
X463942Y532606D01*
X463949Y532612D01*
X463957Y532616D01*
X464103Y532742D01*
X464249Y532867D01*
X464255Y532874D01*
X464262Y532880D01*
X464379Y533031D01*
X464499Y533183D01*
X464503Y533191D01*
X464508Y533198D01*
X464594Y533370D01*
X464681Y533542D01*
X464684Y533550D01*
X464688Y533558D01*
X464738Y533745D01*
X464789Y533930D01*
X464790Y533938D01*
X464792Y533947D01*
X464819Y534278D01*
X464819Y559446D01*
X464817Y559473D01*
X464819Y559500D01*
X464797Y559673D01*
X464779Y559847D01*
X464772Y559872D01*
X464768Y559899D01*
X464713Y560065D01*
X464661Y560232D01*
X464648Y560255D01*
X464640Y560281D01*
X464553Y560432D01*
X464469Y560586D01*
X464452Y560606D01*
X464439Y560630D01*
X464224Y560883D01*
X444043Y581064D01*
X444022Y581081D01*
X444004Y581102D01*
X443866Y581209D01*
X443731Y581319D01*
X443707Y581332D01*
X443686Y581348D01*
X443529Y581426D01*
X443375Y581508D01*
X443350Y581516D01*
X443326Y581528D01*
X443156Y581573D01*
X442989Y581623D01*
X442963Y581625D01*
X442937Y581632D01*
X442606Y581659D01*
X378306Y581659D01*
X378279Y581657D01*
X378253Y581659D01*
X378079Y581637D01*
X377905Y581619D01*
X377880Y581612D01*
X377853Y581608D01*
X377687Y581553D01*
X377520Y581501D01*
X377497Y581488D01*
X377471Y581480D01*
X377320Y581393D01*
X377166Y581309D01*
X377146Y581292D01*
X377123Y581279D01*
X376870Y581064D01*
X376219Y580413D01*
X373081Y580413D01*
X372430Y581064D01*
X372410Y581081D01*
X372392Y581102D01*
X372254Y581209D01*
X372119Y581319D01*
X372095Y581332D01*
X372074Y581348D01*
X371917Y581426D01*
X371763Y581508D01*
X371738Y581516D01*
X371714Y581528D01*
X371544Y581573D01*
X371377Y581623D01*
X371351Y581625D01*
X371325Y581632D01*
X370994Y581659D01*
X340206Y581659D01*
X340179Y581657D01*
X340153Y581659D01*
X339979Y581637D01*
X339805Y581619D01*
X339780Y581612D01*
X339753Y581608D01*
X339587Y581553D01*
X339420Y581501D01*
X339397Y581488D01*
X339371Y581480D01*
X339220Y581393D01*
X339066Y581309D01*
X339046Y581292D01*
X339023Y581279D01*
X338770Y581064D01*
X338119Y580413D01*
X334981Y580413D01*
X334330Y581064D01*
X334310Y581081D01*
X334292Y581102D01*
X334154Y581209D01*
X334019Y581319D01*
X333995Y581332D01*
X333974Y581348D01*
X333817Y581426D01*
X333663Y581508D01*
X333638Y581516D01*
X333614Y581528D01*
X333444Y581573D01*
X333277Y581623D01*
X333251Y581625D01*
X333225Y581632D01*
X332894Y581659D01*
X302106Y581659D01*
X302079Y581657D01*
X302053Y581659D01*
X301879Y581637D01*
X301705Y581619D01*
X301680Y581612D01*
X301653Y581608D01*
X301487Y581553D01*
X301320Y581501D01*
X301297Y581488D01*
X301271Y581480D01*
X301120Y581393D01*
X300966Y581309D01*
X300946Y581292D01*
X300923Y581279D01*
X300670Y581064D01*
X300019Y580413D01*
X296881Y580413D01*
X296230Y581064D01*
X296210Y581081D01*
X296192Y581102D01*
X296054Y581209D01*
X295919Y581319D01*
X295895Y581332D01*
X295874Y581348D01*
X295717Y581426D01*
X295563Y581508D01*
X295538Y581516D01*
X295514Y581528D01*
X295344Y581573D01*
X295177Y581623D01*
X295151Y581625D01*
X295125Y581632D01*
X294794Y581659D01*
X264006Y581659D01*
X263979Y581657D01*
X263953Y581659D01*
X263779Y581637D01*
X263605Y581619D01*
X263580Y581612D01*
X263553Y581608D01*
X263387Y581553D01*
X263220Y581501D01*
X263197Y581488D01*
X263171Y581480D01*
X263020Y581393D01*
X262866Y581309D01*
X262846Y581292D01*
X262823Y581279D01*
X262570Y581064D01*
X261919Y580413D01*
X258781Y580413D01*
X258130Y581064D01*
X258110Y581081D01*
X258092Y581102D01*
X257954Y581209D01*
X257819Y581319D01*
X257795Y581332D01*
X257774Y581348D01*
X257617Y581426D01*
X257463Y581508D01*
X257438Y581516D01*
X257414Y581528D01*
X257244Y581573D01*
X257077Y581623D01*
X257051Y581625D01*
X257025Y581632D01*
X256694Y581659D01*
X225906Y581659D01*
X225879Y581657D01*
X225853Y581659D01*
X225679Y581637D01*
X225505Y581619D01*
X225480Y581612D01*
X225453Y581608D01*
X225287Y581553D01*
X225120Y581501D01*
X225097Y581488D01*
X225071Y581480D01*
X224920Y581393D01*
X224766Y581309D01*
X224746Y581292D01*
X224723Y581279D01*
X224470Y581064D01*
X223819Y580413D01*
X220681Y580413D01*
X220030Y581064D01*
X220010Y581081D01*
X219992Y581102D01*
X219854Y581209D01*
X219719Y581319D01*
X219695Y581332D01*
X219674Y581348D01*
X219517Y581426D01*
X219363Y581508D01*
X219338Y581516D01*
X219314Y581528D01*
X219144Y581573D01*
X218977Y581623D01*
X218951Y581625D01*
X218925Y581632D01*
X218594Y581659D01*
X187806Y581659D01*
X187779Y581657D01*
X187753Y581659D01*
X187579Y581637D01*
X187405Y581619D01*
X187380Y581612D01*
X187353Y581608D01*
X187187Y581553D01*
X187020Y581501D01*
X186997Y581488D01*
X186971Y581480D01*
X186820Y581393D01*
X186666Y581309D01*
X186646Y581292D01*
X186623Y581279D01*
X186370Y581064D01*
X185719Y580413D01*
X182581Y580413D01*
X181930Y581064D01*
X181910Y581081D01*
X181892Y581102D01*
X181754Y581209D01*
X181619Y581319D01*
X181595Y581332D01*
X181574Y581348D01*
X181417Y581426D01*
X181263Y581508D01*
X181238Y581516D01*
X181214Y581528D01*
X181044Y581573D01*
X180877Y581623D01*
X180851Y581625D01*
X180825Y581632D01*
X180494Y581659D01*
X149706Y581659D01*
X149679Y581657D01*
X149653Y581659D01*
X149479Y581637D01*
X149305Y581619D01*
X149280Y581612D01*
X149253Y581608D01*
X149087Y581553D01*
X148920Y581501D01*
X148897Y581488D01*
X148871Y581480D01*
X148720Y581393D01*
X148566Y581309D01*
X148546Y581292D01*
X148523Y581279D01*
X148270Y581064D01*
X147619Y580413D01*
X144481Y580413D01*
X143830Y581064D01*
X143810Y581081D01*
X143792Y581102D01*
X143654Y581209D01*
X143519Y581319D01*
X143495Y581332D01*
X143474Y581348D01*
X143317Y581426D01*
X143163Y581508D01*
X143138Y581516D01*
X143114Y581528D01*
X142944Y581573D01*
X142777Y581623D01*
X142751Y581625D01*
X142725Y581632D01*
X142394Y581659D01*
X105256Y581659D01*
X105229Y581657D01*
X105203Y581659D01*
X105029Y581637D01*
X104855Y581619D01*
X104830Y581612D01*
X104803Y581608D01*
X104637Y581553D01*
X104470Y581501D01*
X104447Y581488D01*
X104421Y581480D01*
X104270Y581393D01*
X104116Y581309D01*
X104096Y581292D01*
X104073Y581279D01*
X103820Y581064D01*
X103169Y580413D01*
X100031Y580413D01*
X97813Y582631D01*
X97813Y585769D01*
X100031Y587987D01*
X103169Y587987D01*
X103820Y587336D01*
X103840Y587319D01*
X103858Y587298D01*
X103996Y587191D01*
X104131Y587081D01*
X104155Y587068D01*
X104176Y587052D01*
X104333Y586974D01*
X104487Y586892D01*
X104512Y586884D01*
X104536Y586872D01*
X104706Y586827D01*
X104873Y586777D01*
X104899Y586775D01*
X104925Y586768D01*
X105256Y586741D01*
X142394Y586741D01*
X142421Y586743D01*
X142447Y586741D01*
X142621Y586763D01*
X142795Y586781D01*
X142820Y586788D01*
X142847Y586792D01*
X143013Y586847D01*
X143180Y586899D01*
X143203Y586912D01*
X143229Y586920D01*
X143380Y587007D01*
X143534Y587091D01*
X143554Y587108D01*
X143577Y587121D01*
X143830Y587336D01*
X144481Y587987D01*
X147619Y587987D01*
X148270Y587336D01*
X148290Y587319D01*
X148308Y587298D01*
X148446Y587191D01*
X148581Y587081D01*
X148605Y587068D01*
X148626Y587052D01*
X148783Y586974D01*
X148937Y586892D01*
X148962Y586884D01*
X148986Y586872D01*
X149156Y586827D01*
X149323Y586777D01*
X149349Y586775D01*
X149375Y586768D01*
X149706Y586741D01*
X180494Y586741D01*
X180521Y586743D01*
X180547Y586741D01*
X180721Y586763D01*
X180895Y586781D01*
X180920Y586788D01*
X180947Y586792D01*
X181113Y586847D01*
X181280Y586899D01*
X181303Y586912D01*
X181329Y586920D01*
X181480Y587007D01*
X181634Y587091D01*
X181654Y587108D01*
X181677Y587121D01*
X181930Y587336D01*
X182581Y587987D01*
X185719Y587987D01*
X186370Y587336D01*
X186390Y587319D01*
X186408Y587298D01*
X186546Y587191D01*
X186681Y587081D01*
X186705Y587068D01*
X186726Y587052D01*
X186883Y586974D01*
X187037Y586892D01*
X187062Y586884D01*
X187086Y586872D01*
X187256Y586827D01*
X187423Y586777D01*
X187449Y586775D01*
X187475Y586768D01*
X187806Y586741D01*
X218594Y586741D01*
X218621Y586743D01*
X218647Y586741D01*
X218821Y586763D01*
X218995Y586781D01*
X219020Y586788D01*
X219047Y586792D01*
X219213Y586847D01*
X219380Y586899D01*
X219403Y586912D01*
X219429Y586920D01*
X219580Y587007D01*
X219734Y587091D01*
X219754Y587108D01*
X219777Y587121D01*
X220030Y587336D01*
X220681Y587987D01*
X223819Y587987D01*
X224470Y587336D01*
X224490Y587319D01*
X224508Y587298D01*
X224646Y587191D01*
X224781Y587081D01*
X224805Y587068D01*
X224826Y587052D01*
X224983Y586974D01*
X225137Y586892D01*
X225162Y586884D01*
X225186Y586872D01*
X225356Y586827D01*
X225523Y586777D01*
X225549Y586775D01*
X225575Y586768D01*
X225906Y586741D01*
X256694Y586741D01*
X256721Y586743D01*
X256747Y586741D01*
X256921Y586763D01*
X257095Y586781D01*
X257120Y586788D01*
X257147Y586792D01*
X257313Y586847D01*
X257480Y586899D01*
X257503Y586912D01*
X257529Y586920D01*
X257680Y587007D01*
X257834Y587091D01*
X257854Y587108D01*
X257877Y587121D01*
X258130Y587336D01*
X258781Y587987D01*
X261919Y587987D01*
X262570Y587336D01*
X262590Y587319D01*
X262608Y587298D01*
X262746Y587191D01*
X262881Y587081D01*
X262905Y587068D01*
X262926Y587052D01*
X263083Y586974D01*
X263237Y586892D01*
X263262Y586884D01*
X263286Y586872D01*
X263456Y586827D01*
X263623Y586777D01*
X263649Y586775D01*
X263675Y586768D01*
X264006Y586741D01*
X294794Y586741D01*
X294821Y586743D01*
X294847Y586741D01*
X295021Y586763D01*
X295195Y586781D01*
X295220Y586788D01*
X295247Y586792D01*
X295413Y586847D01*
X295580Y586899D01*
X295603Y586912D01*
X295629Y586920D01*
X295780Y587007D01*
X295934Y587091D01*
X295954Y587108D01*
X295977Y587121D01*
X296230Y587336D01*
X296881Y587987D01*
X300019Y587987D01*
X300670Y587336D01*
X300690Y587319D01*
X300708Y587298D01*
X300846Y587191D01*
X300981Y587081D01*
X301005Y587068D01*
X301026Y587052D01*
X301183Y586974D01*
X301337Y586892D01*
X301362Y586884D01*
X301386Y586872D01*
X301556Y586827D01*
X301723Y586777D01*
X301749Y586775D01*
X301775Y586768D01*
X302106Y586741D01*
X332894Y586741D01*
X332921Y586743D01*
X332947Y586741D01*
X333121Y586763D01*
X333295Y586781D01*
X333320Y586788D01*
X333347Y586792D01*
X333513Y586847D01*
X333680Y586899D01*
X333703Y586912D01*
X333729Y586920D01*
X333880Y587007D01*
X334034Y587091D01*
X334054Y587108D01*
X334077Y587121D01*
X334330Y587336D01*
X334981Y587987D01*
X338119Y587987D01*
X338770Y587336D01*
X338790Y587319D01*
X338808Y587298D01*
X338946Y587191D01*
X339081Y587081D01*
X339105Y587068D01*
X339126Y587052D01*
X339283Y586974D01*
X339437Y586892D01*
X339462Y586884D01*
X339486Y586872D01*
X339656Y586827D01*
X339823Y586777D01*
X339849Y586775D01*
X339875Y586768D01*
X340206Y586741D01*
X370994Y586741D01*
X371021Y586743D01*
X371047Y586741D01*
X371221Y586763D01*
X371395Y586781D01*
X371420Y586788D01*
X371447Y586792D01*
X371613Y586847D01*
X371780Y586899D01*
X371803Y586912D01*
X371829Y586920D01*
X371980Y587007D01*
X372134Y587091D01*
X372154Y587108D01*
X372177Y587121D01*
X372430Y587336D01*
X373081Y587987D01*
X376219Y587987D01*
X376870Y587336D01*
X376890Y587319D01*
X376908Y587298D01*
X377046Y587191D01*
X377181Y587081D01*
X377205Y587068D01*
X377226Y587052D01*
X377383Y586974D01*
X377537Y586892D01*
X377562Y586884D01*
X377586Y586872D01*
X377756Y586827D01*
X377923Y586777D01*
X377949Y586775D01*
X377975Y586768D01*
X378306Y586741D01*
X445552Y586741D01*
X466432Y565861D01*
X466439Y565856D01*
X466444Y565849D01*
X466594Y565729D01*
X466743Y565606D01*
X466751Y565602D01*
X466758Y565597D01*
X466929Y565508D01*
X467099Y565418D01*
X467107Y565415D01*
X467115Y565411D01*
X467301Y565358D01*
X467485Y565303D01*
X467494Y565302D01*
X467502Y565300D01*
X467694Y565284D01*
X467886Y565267D01*
X467895Y565268D01*
X467904Y565267D01*
X468093Y565289D01*
X468286Y565310D01*
X468295Y565313D01*
X468303Y565314D01*
X468485Y565373D01*
X468670Y565431D01*
X468678Y565436D01*
X468686Y565439D01*
X468855Y565534D01*
X469022Y565626D01*
X469029Y565632D01*
X469037Y565636D01*
X469183Y565762D01*
X469329Y565887D01*
X469335Y565894D01*
X469342Y565900D01*
X469459Y566051D01*
X469579Y566203D01*
X469583Y566211D01*
X469588Y566218D01*
X469674Y566390D01*
X469761Y566562D01*
X469764Y566570D01*
X469768Y566578D01*
X469818Y566765D01*
X469869Y566950D01*
X469870Y566958D01*
X469872Y566967D01*
X469899Y567298D01*
X469899Y605166D01*
X469897Y605193D01*
X469899Y605220D01*
X469877Y605393D01*
X469859Y605567D01*
X469852Y605592D01*
X469848Y605619D01*
X469793Y605785D01*
X469741Y605952D01*
X469728Y605975D01*
X469720Y606001D01*
X469633Y606152D01*
X469549Y606306D01*
X469532Y606326D01*
X469519Y606350D01*
X469304Y606603D01*
X456743Y619164D01*
X456722Y619181D01*
X456704Y619202D01*
X456566Y619309D01*
X456431Y619419D01*
X456407Y619432D01*
X456386Y619448D01*
X456229Y619526D01*
X456075Y619608D01*
X456050Y619616D01*
X456026Y619628D01*
X455856Y619673D01*
X455689Y619723D01*
X455663Y619725D01*
X455637Y619732D01*
X455306Y619759D01*
X378306Y619759D01*
X378279Y619757D01*
X378253Y619759D01*
X378078Y619737D01*
X377905Y619719D01*
X377880Y619712D01*
X377853Y619708D01*
X377687Y619652D01*
X377520Y619601D01*
X377497Y619588D01*
X377471Y619580D01*
X377320Y619493D01*
X377166Y619409D01*
X377146Y619392D01*
X377123Y619379D01*
X376870Y619164D01*
X376219Y618513D01*
X373081Y618513D01*
X372430Y619164D01*
X372410Y619181D01*
X372392Y619202D01*
X372254Y619309D01*
X372119Y619419D01*
X372095Y619432D01*
X372074Y619448D01*
X371918Y619526D01*
X371763Y619608D01*
X371738Y619616D01*
X371714Y619628D01*
X371545Y619673D01*
X371377Y619723D01*
X371351Y619725D01*
X371325Y619732D01*
X370994Y619759D01*
X340206Y619759D01*
X340179Y619757D01*
X340153Y619759D01*
X339978Y619737D01*
X339805Y619719D01*
X339780Y619712D01*
X339753Y619708D01*
X339587Y619652D01*
X339420Y619601D01*
X339397Y619588D01*
X339371Y619580D01*
X339220Y619493D01*
X339066Y619409D01*
X339046Y619392D01*
X339023Y619379D01*
X338770Y619164D01*
X338119Y618513D01*
X334981Y618513D01*
X334330Y619164D01*
X334310Y619181D01*
X334292Y619202D01*
X334154Y619309D01*
X334019Y619419D01*
X333995Y619432D01*
X333974Y619448D01*
X333818Y619526D01*
X333663Y619608D01*
X333638Y619616D01*
X333614Y619628D01*
X333445Y619673D01*
X333277Y619723D01*
X333251Y619725D01*
X333225Y619732D01*
X332894Y619759D01*
X302106Y619759D01*
X302079Y619757D01*
X302053Y619759D01*
X301878Y619737D01*
X301705Y619719D01*
X301680Y619712D01*
X301653Y619708D01*
X301487Y619652D01*
X301320Y619601D01*
X301297Y619588D01*
X301271Y619580D01*
X301120Y619493D01*
X300966Y619409D01*
X300946Y619392D01*
X300923Y619379D01*
X300670Y619164D01*
X300019Y618513D01*
X296881Y618513D01*
X296230Y619164D01*
X296210Y619181D01*
X296192Y619202D01*
X296054Y619309D01*
X295919Y619419D01*
X295895Y619432D01*
X295874Y619448D01*
X295718Y619526D01*
X295563Y619608D01*
X295538Y619616D01*
X295514Y619628D01*
X295345Y619673D01*
X295177Y619723D01*
X295151Y619725D01*
X295125Y619732D01*
X294794Y619759D01*
X264006Y619759D01*
X263979Y619757D01*
X263953Y619759D01*
X263778Y619737D01*
X263605Y619719D01*
X263580Y619712D01*
X263553Y619708D01*
X263387Y619652D01*
X263220Y619601D01*
X263197Y619588D01*
X263171Y619580D01*
X263020Y619493D01*
X262866Y619409D01*
X262846Y619392D01*
X262823Y619379D01*
X262570Y619164D01*
X261919Y618513D01*
X258781Y618513D01*
X258130Y619164D01*
X258110Y619181D01*
X258092Y619202D01*
X257954Y619309D01*
X257819Y619419D01*
X257795Y619432D01*
X257774Y619448D01*
X257618Y619526D01*
X257463Y619608D01*
X257438Y619616D01*
X257414Y619628D01*
X257245Y619673D01*
X257077Y619723D01*
X257051Y619725D01*
X257025Y619732D01*
X256694Y619759D01*
X225906Y619759D01*
X225879Y619757D01*
X225853Y619759D01*
X225678Y619737D01*
X225505Y619719D01*
X225480Y619712D01*
X225453Y619708D01*
X225287Y619652D01*
X225120Y619601D01*
X225097Y619588D01*
X225071Y619580D01*
X224920Y619493D01*
X224766Y619409D01*
X224746Y619392D01*
X224723Y619379D01*
X224470Y619164D01*
X223819Y618513D01*
X220681Y618513D01*
X220030Y619164D01*
X220010Y619181D01*
X219992Y619202D01*
X219854Y619309D01*
X219719Y619419D01*
X219695Y619432D01*
X219674Y619448D01*
X219518Y619526D01*
X219363Y619608D01*
X219338Y619616D01*
X219314Y619628D01*
X219145Y619673D01*
X218977Y619723D01*
X218951Y619725D01*
X218925Y619732D01*
X218594Y619759D01*
X187806Y619759D01*
X187779Y619757D01*
X187753Y619759D01*
X187578Y619737D01*
X187405Y619719D01*
X187380Y619712D01*
X187353Y619708D01*
X187187Y619652D01*
X187020Y619601D01*
X186997Y619588D01*
X186971Y619580D01*
X186820Y619493D01*
X186666Y619409D01*
X186646Y619392D01*
X186623Y619379D01*
X186370Y619164D01*
X185719Y618513D01*
X182581Y618513D01*
X181930Y619164D01*
X181910Y619181D01*
X181892Y619202D01*
X181754Y619309D01*
X181619Y619419D01*
X181595Y619432D01*
X181574Y619448D01*
X181418Y619526D01*
X181263Y619608D01*
X181238Y619616D01*
X181214Y619628D01*
X181045Y619673D01*
X180877Y619723D01*
X180851Y619725D01*
X180825Y619732D01*
X180494Y619759D01*
X149706Y619759D01*
X149679Y619757D01*
X149653Y619759D01*
X149478Y619737D01*
X149305Y619719D01*
X149280Y619712D01*
X149253Y619708D01*
X149087Y619652D01*
X148920Y619601D01*
X148897Y619588D01*
X148871Y619580D01*
X148720Y619493D01*
X148566Y619409D01*
X148546Y619392D01*
X148523Y619379D01*
X148270Y619164D01*
X147619Y618513D01*
X144481Y618513D01*
X143830Y619164D01*
X143810Y619181D01*
X143792Y619202D01*
X143654Y619309D01*
X143519Y619419D01*
X143495Y619432D01*
X143474Y619448D01*
X143318Y619526D01*
X143163Y619608D01*
X143138Y619616D01*
X143114Y619628D01*
X142945Y619673D01*
X142777Y619723D01*
X142751Y619725D01*
X142725Y619732D01*
X142394Y619759D01*
X105256Y619759D01*
X105229Y619757D01*
X105203Y619759D01*
X105028Y619737D01*
X104855Y619719D01*
X104830Y619712D01*
X104803Y619708D01*
X104637Y619652D01*
X104470Y619601D01*
X104447Y619588D01*
X104421Y619580D01*
X104270Y619493D01*
X104116Y619409D01*
X104096Y619392D01*
X104073Y619379D01*
X103820Y619164D01*
X103169Y618513D01*
X100031Y618513D01*
X97813Y620731D01*
X97813Y623869D01*
X100031Y626087D01*
X103169Y626087D01*
X103820Y625436D01*
X103840Y625419D01*
X103858Y625398D01*
X103996Y625291D01*
X104131Y625181D01*
X104155Y625168D01*
X104176Y625152D01*
X104332Y625074D01*
X104487Y624992D01*
X104512Y624984D01*
X104536Y624972D01*
X104705Y624927D01*
X104873Y624877D01*
X104899Y624875D01*
X104925Y624868D01*
X105256Y624841D01*
X142394Y624841D01*
X142421Y624843D01*
X142447Y624841D01*
X142622Y624863D01*
X142795Y624881D01*
X142820Y624888D01*
X142847Y624892D01*
X143013Y624948D01*
X143180Y624999D01*
X143203Y625012D01*
X143229Y625020D01*
X143380Y625107D01*
X143534Y625191D01*
X143554Y625208D01*
X143577Y625221D01*
X143830Y625436D01*
X144481Y626087D01*
X147619Y626087D01*
X148270Y625436D01*
X148290Y625419D01*
X148308Y625398D01*
X148446Y625291D01*
X148581Y625181D01*
X148605Y625168D01*
X148626Y625152D01*
X148782Y625074D01*
X148937Y624992D01*
X148962Y624984D01*
X148986Y624972D01*
X149155Y624927D01*
X149323Y624877D01*
X149349Y624875D01*
X149375Y624868D01*
X149706Y624841D01*
X180494Y624841D01*
X180521Y624843D01*
X180547Y624841D01*
X180722Y624863D01*
X180895Y624881D01*
X180920Y624888D01*
X180947Y624892D01*
X181113Y624948D01*
X181280Y624999D01*
X181303Y625012D01*
X181329Y625020D01*
X181480Y625107D01*
X181634Y625191D01*
X181654Y625208D01*
X181677Y625221D01*
X181930Y625436D01*
X182581Y626087D01*
X185719Y626087D01*
X186370Y625436D01*
X186390Y625419D01*
X186408Y625398D01*
X186546Y625291D01*
X186681Y625181D01*
X186705Y625168D01*
X186726Y625152D01*
X186882Y625074D01*
X187037Y624992D01*
X187062Y624984D01*
X187086Y624972D01*
X187255Y624927D01*
X187423Y624877D01*
X187449Y624875D01*
X187475Y624868D01*
X187806Y624841D01*
X218594Y624841D01*
X218621Y624843D01*
X218647Y624841D01*
X218822Y624863D01*
X218995Y624881D01*
X219020Y624888D01*
X219047Y624892D01*
X219213Y624948D01*
X219380Y624999D01*
X219403Y625012D01*
X219429Y625020D01*
X219580Y625107D01*
X219734Y625191D01*
X219754Y625208D01*
X219777Y625221D01*
X220030Y625436D01*
X220681Y626087D01*
X223819Y626087D01*
X224470Y625436D01*
X224490Y625419D01*
X224508Y625398D01*
X224646Y625291D01*
X224781Y625181D01*
X224805Y625168D01*
X224826Y625152D01*
X224982Y625074D01*
X225137Y624992D01*
X225162Y624984D01*
X225186Y624972D01*
X225355Y624927D01*
X225523Y624877D01*
X225549Y624875D01*
X225575Y624868D01*
X225906Y624841D01*
X256694Y624841D01*
X256721Y624843D01*
X256747Y624841D01*
X256922Y624863D01*
X257095Y624881D01*
X257120Y624888D01*
X257147Y624892D01*
X257313Y624948D01*
X257480Y624999D01*
X257503Y625012D01*
X257529Y625020D01*
X257680Y625107D01*
X257834Y625191D01*
X257854Y625208D01*
X257877Y625221D01*
X258130Y625436D01*
X258781Y626087D01*
X261919Y626087D01*
X262570Y625436D01*
X262590Y625419D01*
X262608Y625398D01*
X262746Y625291D01*
X262881Y625181D01*
X262905Y625168D01*
X262926Y625152D01*
X263082Y625074D01*
X263237Y624992D01*
X263262Y624984D01*
X263286Y624972D01*
X263455Y624927D01*
X263623Y624877D01*
X263649Y624875D01*
X263675Y624868D01*
X264006Y624841D01*
X294794Y624841D01*
X294821Y624843D01*
X294847Y624841D01*
X295022Y624863D01*
X295195Y624881D01*
X295220Y624888D01*
X295247Y624892D01*
X295413Y624948D01*
X295580Y624999D01*
X295603Y625012D01*
X295629Y625020D01*
X295780Y625107D01*
X295934Y625191D01*
X295954Y625208D01*
X295977Y625221D01*
X296230Y625436D01*
X296881Y626087D01*
X300019Y626087D01*
X300670Y625436D01*
X300690Y625419D01*
X300708Y625398D01*
X300846Y625291D01*
X300981Y625181D01*
X301005Y625168D01*
X301026Y625152D01*
X301182Y625074D01*
X301337Y624992D01*
X301362Y624984D01*
X301386Y624972D01*
X301555Y624927D01*
X301723Y624877D01*
X301749Y624875D01*
X301775Y624868D01*
X302106Y624841D01*
X332894Y624841D01*
X332921Y624843D01*
X332947Y624841D01*
X333122Y624863D01*
X333295Y624881D01*
X333320Y624888D01*
X333347Y624892D01*
X333513Y624948D01*
X333680Y624999D01*
X333703Y625012D01*
X333729Y625020D01*
X333880Y625107D01*
X334034Y625191D01*
X334054Y625208D01*
X334077Y625221D01*
X334330Y625436D01*
X334981Y626087D01*
X338119Y626087D01*
X338770Y625436D01*
X338790Y625419D01*
X338808Y625398D01*
X338946Y625291D01*
X339081Y625181D01*
X339105Y625168D01*
X339126Y625152D01*
X339282Y625074D01*
X339437Y624992D01*
X339462Y624984D01*
X339486Y624972D01*
X339655Y624927D01*
X339823Y624877D01*
X339849Y624875D01*
X339875Y624868D01*
X340206Y624841D01*
X370994Y624841D01*
X371021Y624843D01*
X371047Y624841D01*
X371222Y624863D01*
X371395Y624881D01*
X371420Y624888D01*
X371447Y624892D01*
X371613Y624948D01*
X371780Y624999D01*
X371803Y625012D01*
X371829Y625020D01*
X371980Y625107D01*
X372134Y625191D01*
X372154Y625208D01*
X372177Y625221D01*
X372430Y625436D01*
X373081Y626087D01*
X376219Y626087D01*
X376870Y625436D01*
X376890Y625419D01*
X376908Y625398D01*
X377046Y625291D01*
X377181Y625181D01*
X377205Y625168D01*
X377226Y625152D01*
X377382Y625074D01*
X377537Y624992D01*
X377562Y624984D01*
X377586Y624972D01*
X377755Y624927D01*
X377923Y624877D01*
X377949Y624875D01*
X377975Y624868D01*
X378306Y624841D01*
X458252Y624841D01*
X460335Y622758D01*
X460336Y622757D01*
X471512Y611581D01*
X471519Y611576D01*
X471524Y611569D01*
X471674Y611449D01*
X471823Y611326D01*
X471831Y611322D01*
X471838Y611317D01*
X472009Y611228D01*
X472179Y611138D01*
X472187Y611135D01*
X472195Y611131D01*
X472381Y611078D01*
X472565Y611023D01*
X472574Y611022D01*
X472582Y611020D01*
X472774Y611004D01*
X472966Y610987D01*
X472975Y610988D01*
X472984Y610987D01*
X473173Y611009D01*
X473366Y611030D01*
X473375Y611033D01*
X473383Y611034D01*
X473565Y611093D01*
X473750Y611151D01*
X473758Y611156D01*
X473766Y611159D01*
X473935Y611254D01*
X474102Y611346D01*
X474109Y611352D01*
X474117Y611356D01*
X474263Y611482D01*
X474409Y611607D01*
X474415Y611614D01*
X474422Y611620D01*
X474539Y611771D01*
X474659Y611923D01*
X474663Y611931D01*
X474668Y611938D01*
X474754Y612110D01*
X474841Y612282D01*
X474844Y612290D01*
X474848Y612298D01*
X474898Y612485D01*
X474949Y612670D01*
X474950Y612678D01*
X474952Y612687D01*
X474979Y613018D01*
X474979Y638186D01*
X474977Y638213D01*
X474979Y638240D01*
X474957Y638413D01*
X474939Y638587D01*
X474932Y638612D01*
X474928Y638639D01*
X474873Y638805D01*
X474821Y638972D01*
X474808Y638995D01*
X474800Y639021D01*
X474713Y639172D01*
X474629Y639326D01*
X474612Y639346D01*
X474599Y639370D01*
X474384Y639623D01*
X456743Y657264D01*
X456722Y657281D01*
X456704Y657302D01*
X456566Y657409D01*
X456431Y657519D01*
X456407Y657532D01*
X456386Y657548D01*
X456229Y657626D01*
X456075Y657708D01*
X456050Y657716D01*
X456026Y657728D01*
X455856Y657773D01*
X455689Y657823D01*
X455663Y657825D01*
X455637Y657832D01*
X455306Y657859D01*
X378306Y657859D01*
X378279Y657857D01*
X378253Y657859D01*
X378079Y657837D01*
X377905Y657819D01*
X377880Y657812D01*
X377853Y657808D01*
X377687Y657753D01*
X377520Y657701D01*
X377497Y657688D01*
X377471Y657680D01*
X377320Y657593D01*
X377166Y657509D01*
X377146Y657492D01*
X377123Y657479D01*
X376870Y657264D01*
X376219Y656613D01*
X373081Y656613D01*
X372430Y657264D01*
X372410Y657281D01*
X372392Y657302D01*
X372254Y657409D01*
X372119Y657519D01*
X372095Y657532D01*
X372074Y657548D01*
X371917Y657626D01*
X371763Y657708D01*
X371738Y657716D01*
X371714Y657728D01*
X371544Y657773D01*
X371377Y657823D01*
X371351Y657825D01*
X371325Y657832D01*
X370994Y657859D01*
X340206Y657859D01*
X340179Y657857D01*
X340153Y657859D01*
X339979Y657837D01*
X339805Y657819D01*
X339780Y657812D01*
X339753Y657808D01*
X339587Y657753D01*
X339420Y657701D01*
X339397Y657688D01*
X339371Y657680D01*
X339220Y657593D01*
X339066Y657509D01*
X339046Y657492D01*
X339023Y657479D01*
X338770Y657264D01*
X338119Y656613D01*
X334981Y656613D01*
X334330Y657264D01*
X334310Y657281D01*
X334292Y657302D01*
X334154Y657409D01*
X334019Y657519D01*
X333995Y657532D01*
X333974Y657548D01*
X333817Y657626D01*
X333663Y657708D01*
X333638Y657716D01*
X333614Y657728D01*
X333444Y657773D01*
X333277Y657823D01*
X333251Y657825D01*
X333225Y657832D01*
X332894Y657859D01*
X302106Y657859D01*
X302079Y657857D01*
X302053Y657859D01*
X301879Y657837D01*
X301705Y657819D01*
X301680Y657812D01*
X301653Y657808D01*
X301487Y657753D01*
X301320Y657701D01*
X301297Y657688D01*
X301271Y657680D01*
X301120Y657593D01*
X300966Y657509D01*
X300946Y657492D01*
X300923Y657479D01*
X300670Y657264D01*
X300019Y656613D01*
X296881Y656613D01*
X296230Y657264D01*
X296210Y657281D01*
X296192Y657302D01*
X296054Y657409D01*
X295919Y657519D01*
X295895Y657532D01*
X295874Y657548D01*
X295717Y657626D01*
X295563Y657708D01*
X295538Y657716D01*
X295514Y657728D01*
X295344Y657773D01*
X295177Y657823D01*
X295151Y657825D01*
X295125Y657832D01*
X294794Y657859D01*
X264006Y657859D01*
X263979Y657857D01*
X263953Y657859D01*
X263779Y657837D01*
X263605Y657819D01*
X263580Y657812D01*
X263553Y657808D01*
X263387Y657753D01*
X263220Y657701D01*
X263197Y657688D01*
X263171Y657680D01*
X263020Y657593D01*
X262866Y657509D01*
X262846Y657492D01*
X262823Y657479D01*
X262570Y657264D01*
X261919Y656613D01*
X258781Y656613D01*
X258130Y657264D01*
X258110Y657281D01*
X258092Y657302D01*
X257954Y657409D01*
X257819Y657519D01*
X257795Y657532D01*
X257774Y657548D01*
X257617Y657626D01*
X257463Y657708D01*
X257438Y657716D01*
X257414Y657728D01*
X257244Y657773D01*
X257077Y657823D01*
X257051Y657825D01*
X257025Y657832D01*
X256694Y657859D01*
X225906Y657859D01*
X225879Y657857D01*
X225853Y657859D01*
X225679Y657837D01*
X225505Y657819D01*
X225480Y657812D01*
X225453Y657808D01*
X225287Y657753D01*
X225120Y657701D01*
X225097Y657688D01*
X225071Y657680D01*
X224920Y657593D01*
X224766Y657509D01*
X224746Y657492D01*
X224723Y657479D01*
X224470Y657264D01*
X223819Y656613D01*
X220681Y656613D01*
X220030Y657264D01*
X220010Y657281D01*
X219992Y657302D01*
X219854Y657409D01*
X219719Y657519D01*
X219695Y657532D01*
X219674Y657548D01*
X219517Y657626D01*
X219363Y657708D01*
X219338Y657716D01*
X219314Y657728D01*
X219144Y657773D01*
X218977Y657823D01*
X218951Y657825D01*
X218925Y657832D01*
X218594Y657859D01*
X187806Y657859D01*
X187779Y657857D01*
X187753Y657859D01*
X187579Y657837D01*
X187405Y657819D01*
X187380Y657812D01*
X187353Y657808D01*
X187187Y657753D01*
X187020Y657701D01*
X186997Y657688D01*
X186971Y657680D01*
X186820Y657593D01*
X186666Y657509D01*
X186646Y657492D01*
X186623Y657479D01*
X186370Y657264D01*
X185719Y656613D01*
X182581Y656613D01*
X181930Y657264D01*
X181910Y657281D01*
X181892Y657302D01*
X181754Y657409D01*
X181619Y657519D01*
X181595Y657532D01*
X181574Y657548D01*
X181417Y657626D01*
X181263Y657708D01*
X181238Y657716D01*
X181214Y657728D01*
X181044Y657773D01*
X180877Y657823D01*
X180851Y657825D01*
X180825Y657832D01*
X180494Y657859D01*
X149706Y657859D01*
X149679Y657857D01*
X149653Y657859D01*
X149479Y657837D01*
X149305Y657819D01*
X149280Y657812D01*
X149253Y657808D01*
X149087Y657753D01*
X148920Y657701D01*
X148897Y657688D01*
X148871Y657680D01*
X148720Y657593D01*
X148566Y657509D01*
X148546Y657492D01*
X148523Y657479D01*
X148270Y657264D01*
X147619Y656613D01*
X144481Y656613D01*
X143830Y657264D01*
X143810Y657281D01*
X143792Y657302D01*
X143654Y657409D01*
X143519Y657519D01*
X143495Y657532D01*
X143474Y657548D01*
X143317Y657626D01*
X143163Y657708D01*
X143138Y657716D01*
X143114Y657728D01*
X142944Y657773D01*
X142777Y657823D01*
X142751Y657825D01*
X142725Y657832D01*
X142394Y657859D01*
X105256Y657859D01*
X105229Y657857D01*
X105203Y657859D01*
X105029Y657837D01*
X104855Y657819D01*
X104830Y657812D01*
X104803Y657808D01*
X104637Y657753D01*
X104470Y657701D01*
X104447Y657688D01*
X104421Y657680D01*
X104270Y657593D01*
X104116Y657509D01*
X104096Y657492D01*
X104073Y657479D01*
X103820Y657264D01*
X103169Y656613D01*
X100031Y656613D01*
X97813Y658831D01*
X97813Y661969D01*
X100031Y664187D01*
X103169Y664187D01*
X103820Y663536D01*
X103840Y663519D01*
X103858Y663498D01*
X103996Y663391D01*
X104131Y663281D01*
X104155Y663268D01*
X104176Y663252D01*
X104333Y663174D01*
X104487Y663092D01*
X104512Y663084D01*
X104536Y663072D01*
X104706Y663027D01*
X104873Y662977D01*
X104899Y662975D01*
X104925Y662968D01*
X105256Y662941D01*
X142394Y662941D01*
X142421Y662943D01*
X142447Y662941D01*
X142621Y662963D01*
X142795Y662981D01*
X142820Y662988D01*
X142847Y662992D01*
X143013Y663047D01*
X143180Y663099D01*
X143203Y663112D01*
X143229Y663120D01*
X143380Y663207D01*
X143534Y663291D01*
X143554Y663308D01*
X143577Y663321D01*
X143830Y663536D01*
X144481Y664187D01*
X147619Y664187D01*
X148270Y663536D01*
X148290Y663519D01*
X148308Y663498D01*
X148446Y663391D01*
X148581Y663281D01*
X148605Y663268D01*
X148626Y663252D01*
X148783Y663174D01*
X148937Y663092D01*
X148962Y663084D01*
X148986Y663072D01*
X149156Y663027D01*
X149323Y662977D01*
X149349Y662975D01*
X149375Y662968D01*
X149706Y662941D01*
X180494Y662941D01*
X180521Y662943D01*
X180547Y662941D01*
X180721Y662963D01*
X180895Y662981D01*
X180920Y662988D01*
X180947Y662992D01*
X181113Y663047D01*
X181280Y663099D01*
X181303Y663112D01*
X181329Y663120D01*
X181480Y663207D01*
X181634Y663291D01*
X181654Y663308D01*
X181677Y663321D01*
X181930Y663536D01*
X182581Y664187D01*
X185719Y664187D01*
X186370Y663536D01*
X186390Y663519D01*
X186408Y663498D01*
X186546Y663391D01*
X186681Y663281D01*
X186705Y663268D01*
X186726Y663252D01*
X186883Y663174D01*
X187037Y663092D01*
X187062Y663084D01*
X187086Y663072D01*
X187256Y663027D01*
X187423Y662977D01*
X187449Y662975D01*
X187475Y662968D01*
X187806Y662941D01*
X218594Y662941D01*
X218621Y662943D01*
X218647Y662941D01*
X218821Y662963D01*
X218995Y662981D01*
X219020Y662988D01*
X219047Y662992D01*
X219213Y663047D01*
X219380Y663099D01*
X219403Y663112D01*
X219429Y663120D01*
X219580Y663207D01*
X219734Y663291D01*
X219754Y663308D01*
X219777Y663321D01*
X220030Y663536D01*
X220681Y664187D01*
X223819Y664187D01*
X224470Y663536D01*
X224490Y663519D01*
X224508Y663498D01*
X224646Y663391D01*
X224781Y663281D01*
X224805Y663268D01*
X224826Y663252D01*
X224983Y663174D01*
X225137Y663092D01*
X225162Y663084D01*
X225186Y663072D01*
X225356Y663027D01*
X225523Y662977D01*
X225549Y662975D01*
X225575Y662968D01*
X225906Y662941D01*
X256694Y662941D01*
X256721Y662943D01*
X256747Y662941D01*
X256921Y662963D01*
X257095Y662981D01*
X257120Y662988D01*
X257147Y662992D01*
X257313Y663047D01*
X257480Y663099D01*
X257503Y663112D01*
X257529Y663120D01*
X257680Y663207D01*
X257834Y663291D01*
X257854Y663308D01*
X257877Y663321D01*
X258130Y663536D01*
X258781Y664187D01*
X261919Y664187D01*
X262570Y663536D01*
X262590Y663519D01*
X262608Y663498D01*
X262746Y663391D01*
X262881Y663281D01*
X262905Y663268D01*
X262926Y663252D01*
X263083Y663174D01*
X263237Y663092D01*
X263262Y663084D01*
X263286Y663072D01*
X263456Y663027D01*
X263623Y662977D01*
X263649Y662975D01*
X263675Y662968D01*
X264006Y662941D01*
X294794Y662941D01*
X294821Y662943D01*
X294847Y662941D01*
X295021Y662963D01*
X295195Y662981D01*
X295220Y662988D01*
X295247Y662992D01*
X295413Y663047D01*
X295580Y663099D01*
X295603Y663112D01*
X295629Y663120D01*
X295780Y663207D01*
X295934Y663291D01*
X295954Y663308D01*
X295977Y663321D01*
X296230Y663536D01*
X296881Y664187D01*
X300019Y664187D01*
X300670Y663536D01*
X300690Y663519D01*
X300708Y663498D01*
X300846Y663391D01*
X300981Y663281D01*
X301005Y663268D01*
X301026Y663252D01*
X301183Y663174D01*
X301337Y663092D01*
X301362Y663084D01*
X301386Y663072D01*
X301556Y663027D01*
X301723Y662977D01*
X301749Y662975D01*
X301775Y662968D01*
X302106Y662941D01*
X332894Y662941D01*
X332921Y662943D01*
X332947Y662941D01*
X333121Y662963D01*
X333295Y662981D01*
X333320Y662988D01*
X333347Y662992D01*
X333513Y663047D01*
X333680Y663099D01*
X333703Y663112D01*
X333729Y663120D01*
X333880Y663207D01*
X334034Y663291D01*
X334054Y663308D01*
X334077Y663321D01*
X334330Y663536D01*
X334981Y664187D01*
X338119Y664187D01*
X338770Y663536D01*
X338790Y663519D01*
X338808Y663498D01*
X338946Y663391D01*
X339081Y663281D01*
X339105Y663268D01*
X339126Y663252D01*
X339283Y663174D01*
X339437Y663092D01*
X339462Y663084D01*
X339486Y663072D01*
X339656Y663027D01*
X339823Y662977D01*
X339849Y662975D01*
X339875Y662968D01*
X340206Y662941D01*
X370994Y662941D01*
X371021Y662943D01*
X371047Y662941D01*
X371221Y662963D01*
X371395Y662981D01*
X371420Y662988D01*
X371447Y662992D01*
X371613Y663047D01*
X371780Y663099D01*
X371803Y663112D01*
X371829Y663120D01*
X371980Y663207D01*
X372134Y663291D01*
X372154Y663308D01*
X372177Y663321D01*
X372430Y663536D01*
X373081Y664187D01*
X376219Y664187D01*
X376870Y663536D01*
X376890Y663519D01*
X376908Y663498D01*
X377046Y663391D01*
X377181Y663281D01*
X377205Y663268D01*
X377226Y663252D01*
X377383Y663174D01*
X377537Y663092D01*
X377562Y663084D01*
X377586Y663072D01*
X377756Y663027D01*
X377923Y662977D01*
X377949Y662975D01*
X377975Y662968D01*
X378306Y662941D01*
X458252Y662941D01*
X476592Y644601D01*
X476599Y644596D01*
X476604Y644589D01*
X476754Y644469D01*
X476903Y644346D01*
X476911Y644342D01*
X476918Y644337D01*
X477088Y644248D01*
X477259Y644158D01*
X477268Y644155D01*
X477275Y644151D01*
X477460Y644098D01*
X477645Y644043D01*
X477654Y644042D01*
X477662Y644040D01*
X477854Y644024D01*
X478046Y644007D01*
X478055Y644008D01*
X478064Y644007D01*
X478253Y644029D01*
X478446Y644050D01*
X478455Y644053D01*
X478463Y644054D01*
X478645Y644113D01*
X478830Y644171D01*
X478838Y644176D01*
X478846Y644179D01*
X479015Y644274D01*
X479182Y644366D01*
X479189Y644372D01*
X479197Y644376D01*
X479343Y644502D01*
X479489Y644627D01*
X479495Y644634D01*
X479502Y644640D01*
X479619Y644791D01*
X479739Y644943D01*
X479743Y644951D01*
X479748Y644958D01*
X479834Y645130D01*
X479921Y645302D01*
X479924Y645310D01*
X479928Y645318D01*
X479978Y645505D01*
X480029Y645690D01*
X480030Y645698D01*
X480032Y645707D01*
X480059Y646038D01*
X480059Y671206D01*
X480057Y671233D01*
X480059Y671260D01*
X480037Y671433D01*
X480019Y671607D01*
X480012Y671632D01*
X480008Y671659D01*
X479953Y671825D01*
X479901Y671992D01*
X479888Y672015D01*
X479880Y672041D01*
X479793Y672192D01*
X479709Y672346D01*
X479692Y672366D01*
X479679Y672390D01*
X479464Y672643D01*
X456743Y695364D01*
X456722Y695381D01*
X456704Y695402D01*
X456566Y695509D01*
X456431Y695619D01*
X456407Y695632D01*
X456386Y695648D01*
X456229Y695726D01*
X456075Y695808D01*
X456050Y695816D01*
X456026Y695828D01*
X455856Y695873D01*
X455689Y695923D01*
X455663Y695925D01*
X455637Y695932D01*
X455306Y695959D01*
X378306Y695959D01*
X378279Y695957D01*
X378253Y695959D01*
X378078Y695937D01*
X377905Y695919D01*
X377880Y695912D01*
X377853Y695908D01*
X377687Y695852D01*
X377520Y695801D01*
X377497Y695788D01*
X377471Y695780D01*
X377320Y695693D01*
X377166Y695609D01*
X377146Y695592D01*
X377123Y695579D01*
X376870Y695364D01*
X376219Y694713D01*
X373081Y694713D01*
X372430Y695364D01*
X372410Y695381D01*
X372392Y695402D01*
X372254Y695509D01*
X372119Y695619D01*
X372095Y695632D01*
X372074Y695648D01*
X371918Y695726D01*
X371763Y695808D01*
X371738Y695816D01*
X371714Y695828D01*
X371545Y695873D01*
X371377Y695923D01*
X371351Y695925D01*
X371325Y695932D01*
X370994Y695959D01*
X340206Y695959D01*
X340179Y695957D01*
X340153Y695959D01*
X339978Y695937D01*
X339805Y695919D01*
X339780Y695912D01*
X339753Y695908D01*
X339587Y695852D01*
X339420Y695801D01*
X339397Y695788D01*
X339371Y695780D01*
X339220Y695693D01*
X339066Y695609D01*
X339046Y695592D01*
X339023Y695579D01*
X338770Y695364D01*
X338119Y694713D01*
X334981Y694713D01*
X334330Y695364D01*
X334310Y695381D01*
X334292Y695402D01*
X334154Y695509D01*
X334019Y695619D01*
X333995Y695632D01*
X333974Y695648D01*
X333818Y695726D01*
X333663Y695808D01*
X333638Y695816D01*
X333614Y695828D01*
X333445Y695873D01*
X333277Y695923D01*
X333251Y695925D01*
X333225Y695932D01*
X332894Y695959D01*
X302106Y695959D01*
X302079Y695957D01*
X302053Y695959D01*
X301878Y695937D01*
X301705Y695919D01*
X301680Y695912D01*
X301653Y695908D01*
X301487Y695852D01*
X301320Y695801D01*
X301297Y695788D01*
X301271Y695780D01*
X301120Y695693D01*
X300966Y695609D01*
X300946Y695592D01*
X300923Y695579D01*
X300670Y695364D01*
X300019Y694713D01*
X296881Y694713D01*
X296230Y695364D01*
X296210Y695381D01*
X296192Y695402D01*
X296054Y695509D01*
X295919Y695619D01*
X295895Y695632D01*
X295874Y695648D01*
X295718Y695726D01*
X295563Y695808D01*
X295538Y695816D01*
X295514Y695828D01*
X295345Y695873D01*
X295177Y695923D01*
X295151Y695925D01*
X295125Y695932D01*
X294794Y695959D01*
X264006Y695959D01*
X263979Y695957D01*
X263953Y695959D01*
X263778Y695937D01*
X263605Y695919D01*
X263580Y695912D01*
X263553Y695908D01*
X263387Y695852D01*
X263220Y695801D01*
X263197Y695788D01*
X263171Y695780D01*
X263020Y695693D01*
X262866Y695609D01*
X262846Y695592D01*
X262823Y695579D01*
X262570Y695364D01*
X261919Y694713D01*
X258781Y694713D01*
X258130Y695364D01*
X258110Y695381D01*
X258092Y695402D01*
X257954Y695509D01*
X257819Y695619D01*
X257795Y695632D01*
X257774Y695648D01*
X257618Y695726D01*
X257463Y695808D01*
X257438Y695816D01*
X257414Y695828D01*
X257245Y695873D01*
X257077Y695923D01*
X257051Y695925D01*
X257025Y695932D01*
X256694Y695959D01*
X225906Y695959D01*
X225879Y695957D01*
X225853Y695959D01*
X225678Y695937D01*
X225505Y695919D01*
X225480Y695912D01*
X225453Y695908D01*
X225287Y695852D01*
X225120Y695801D01*
X225097Y695788D01*
X225071Y695780D01*
X224920Y695693D01*
X224766Y695609D01*
X224746Y695592D01*
X224723Y695579D01*
X224470Y695364D01*
X223819Y694713D01*
X220681Y694713D01*
X220030Y695364D01*
X220010Y695381D01*
X219992Y695402D01*
X219854Y695509D01*
X219719Y695619D01*
X219695Y695632D01*
X219674Y695648D01*
X219518Y695726D01*
X219363Y695808D01*
X219338Y695816D01*
X219314Y695828D01*
X219145Y695873D01*
X218977Y695923D01*
X218951Y695925D01*
X218925Y695932D01*
X218594Y695959D01*
X187806Y695959D01*
X187779Y695957D01*
X187753Y695959D01*
X187578Y695937D01*
X187405Y695919D01*
X187380Y695912D01*
X187353Y695908D01*
X187187Y695852D01*
X187020Y695801D01*
X186997Y695788D01*
X186971Y695780D01*
X186820Y695693D01*
X186666Y695609D01*
X186646Y695592D01*
X186623Y695579D01*
X186370Y695364D01*
X185719Y694713D01*
X182581Y694713D01*
X181930Y695364D01*
X181910Y695381D01*
X181892Y695402D01*
X181754Y695509D01*
X181619Y695619D01*
X181595Y695632D01*
X181574Y695648D01*
X181418Y695726D01*
X181263Y695808D01*
X181238Y695816D01*
X181214Y695828D01*
X181045Y695873D01*
X180877Y695923D01*
X180851Y695925D01*
X180825Y695932D01*
X180494Y695959D01*
X149706Y695959D01*
X149679Y695957D01*
X149653Y695959D01*
X149478Y695937D01*
X149305Y695919D01*
X149280Y695912D01*
X149253Y695908D01*
X149087Y695852D01*
X148920Y695801D01*
X148897Y695788D01*
X148871Y695780D01*
X148720Y695693D01*
X148566Y695609D01*
X148546Y695592D01*
X148523Y695579D01*
X148270Y695364D01*
X147619Y694713D01*
X144481Y694713D01*
X143830Y695364D01*
X143810Y695381D01*
X143792Y695402D01*
X143654Y695509D01*
X143519Y695619D01*
X143495Y695632D01*
X143474Y695648D01*
X143318Y695726D01*
X143163Y695808D01*
X143138Y695816D01*
X143114Y695828D01*
X142945Y695873D01*
X142777Y695923D01*
X142751Y695925D01*
X142725Y695932D01*
X142394Y695959D01*
X105256Y695959D01*
X105229Y695957D01*
X105203Y695959D01*
X105028Y695937D01*
X104855Y695919D01*
X104830Y695912D01*
X104803Y695908D01*
X104637Y695852D01*
X104470Y695801D01*
X104447Y695788D01*
X104421Y695780D01*
X104270Y695693D01*
X104116Y695609D01*
X104096Y695592D01*
X104073Y695579D01*
X103820Y695364D01*
X103169Y694713D01*
X100031Y694713D01*
X97813Y696931D01*
X97813Y700069D01*
X100031Y702287D01*
X103169Y702287D01*
X103820Y701636D01*
X103840Y701619D01*
X103858Y701598D01*
X103996Y701491D01*
X104131Y701381D01*
X104155Y701368D01*
X104176Y701352D01*
X104332Y701274D01*
X104487Y701192D01*
X104512Y701184D01*
X104536Y701172D01*
X104705Y701127D01*
X104873Y701077D01*
X104899Y701075D01*
X104925Y701068D01*
X105256Y701041D01*
X142394Y701041D01*
X142421Y701043D01*
X142447Y701041D01*
X142622Y701063D01*
X142795Y701081D01*
X142820Y701088D01*
X142847Y701092D01*
X143013Y701148D01*
X143180Y701199D01*
X143203Y701212D01*
X143229Y701220D01*
X143380Y701307D01*
X143534Y701391D01*
X143554Y701408D01*
X143577Y701421D01*
X143830Y701636D01*
X144481Y702287D01*
X147619Y702287D01*
X148270Y701636D01*
X148290Y701619D01*
X148308Y701598D01*
X148446Y701491D01*
X148581Y701381D01*
X148605Y701368D01*
X148626Y701352D01*
X148782Y701274D01*
X148937Y701192D01*
X148962Y701184D01*
X148986Y701172D01*
X149155Y701127D01*
X149323Y701077D01*
X149349Y701075D01*
X149375Y701068D01*
X149706Y701041D01*
X180494Y701041D01*
X180521Y701043D01*
X180547Y701041D01*
X180722Y701063D01*
X180895Y701081D01*
X180920Y701088D01*
X180947Y701092D01*
X181113Y701148D01*
X181280Y701199D01*
X181303Y701212D01*
X181329Y701220D01*
X181480Y701307D01*
X181634Y701391D01*
X181654Y701408D01*
X181677Y701421D01*
X181930Y701636D01*
X182581Y702287D01*
X185719Y702287D01*
X186370Y701636D01*
X186390Y701619D01*
X186408Y701598D01*
X186546Y701491D01*
X186681Y701381D01*
X186705Y701368D01*
X186726Y701352D01*
X186882Y701274D01*
X187037Y701192D01*
X187062Y701184D01*
X187086Y701172D01*
X187255Y701127D01*
X187423Y701077D01*
X187449Y701075D01*
X187475Y701068D01*
X187806Y701041D01*
X218594Y701041D01*
X218621Y701043D01*
X218647Y701041D01*
X218822Y701063D01*
X218995Y701081D01*
X219020Y701088D01*
X219047Y701092D01*
X219213Y701148D01*
X219380Y701199D01*
X219403Y701212D01*
X219429Y701220D01*
X219580Y701307D01*
X219734Y701391D01*
X219754Y701408D01*
X219777Y701421D01*
X220030Y701636D01*
X220681Y702287D01*
X223819Y702287D01*
X224470Y701636D01*
X224490Y701619D01*
X224508Y701598D01*
X224646Y701491D01*
X224781Y701381D01*
X224805Y701368D01*
X224826Y701352D01*
X224982Y701274D01*
X225137Y701192D01*
X225162Y701184D01*
X225186Y701172D01*
X225355Y701127D01*
X225523Y701077D01*
X225549Y701075D01*
X225575Y701068D01*
X225906Y701041D01*
X256694Y701041D01*
X256721Y701043D01*
X256747Y701041D01*
X256922Y701063D01*
X257095Y701081D01*
X257120Y701088D01*
X257147Y701092D01*
X257313Y701148D01*
X257480Y701199D01*
X257503Y701212D01*
X257529Y701220D01*
X257680Y701307D01*
X257834Y701391D01*
X257854Y701408D01*
X257877Y701421D01*
X258130Y701636D01*
X258781Y702287D01*
X261919Y702287D01*
X262570Y701636D01*
X262590Y701619D01*
X262608Y701598D01*
X262746Y701491D01*
X262881Y701381D01*
X262905Y701368D01*
X262926Y701352D01*
X263082Y701274D01*
X263237Y701192D01*
X263262Y701184D01*
X263286Y701172D01*
X263455Y701127D01*
X263623Y701077D01*
X263649Y701075D01*
X263675Y701068D01*
X264006Y701041D01*
X294794Y701041D01*
X294821Y701043D01*
X294847Y701041D01*
X295022Y701063D01*
X295195Y701081D01*
X295220Y701088D01*
X295247Y701092D01*
X295413Y701148D01*
X295580Y701199D01*
X295603Y701212D01*
X295629Y701220D01*
X295780Y701307D01*
X295934Y701391D01*
X295954Y701408D01*
X295977Y701421D01*
X296230Y701636D01*
X296881Y702287D01*
X300019Y702287D01*
X300670Y701636D01*
X300690Y701619D01*
X300708Y701598D01*
X300846Y701491D01*
X300981Y701381D01*
X301005Y701368D01*
X301026Y701352D01*
X301182Y701274D01*
X301337Y701192D01*
X301362Y701184D01*
X301386Y701172D01*
X301555Y701127D01*
X301723Y701077D01*
X301749Y701075D01*
X301775Y701068D01*
X302106Y701041D01*
X332894Y701041D01*
X332921Y701043D01*
X332947Y701041D01*
X333122Y701063D01*
X333295Y701081D01*
X333320Y701088D01*
X333347Y701092D01*
X333513Y701148D01*
X333680Y701199D01*
X333703Y701212D01*
X333729Y701220D01*
X333880Y701307D01*
X334034Y701391D01*
X334054Y701408D01*
X334077Y701421D01*
X334330Y701636D01*
X334981Y702287D01*
X338119Y702287D01*
X338770Y701636D01*
X338790Y701619D01*
X338808Y701598D01*
X338946Y701491D01*
X339081Y701381D01*
X339105Y701368D01*
X339126Y701352D01*
X339282Y701274D01*
X339437Y701192D01*
X339462Y701184D01*
X339486Y701172D01*
X339655Y701127D01*
X339823Y701077D01*
X339849Y701075D01*
X339875Y701068D01*
X340206Y701041D01*
X370994Y701041D01*
X371021Y701043D01*
X371047Y701041D01*
X371222Y701063D01*
X371395Y701081D01*
X371420Y701088D01*
X371447Y701092D01*
X371613Y701148D01*
X371780Y701199D01*
X371803Y701212D01*
X371829Y701220D01*
X371980Y701307D01*
X372134Y701391D01*
X372154Y701408D01*
X372177Y701421D01*
X372430Y701636D01*
X373081Y702287D01*
X376219Y702287D01*
X376870Y701636D01*
X376890Y701619D01*
X376908Y701598D01*
X377046Y701491D01*
X377181Y701381D01*
X377205Y701368D01*
X377226Y701352D01*
X377382Y701274D01*
X377537Y701192D01*
X377562Y701184D01*
X377586Y701172D01*
X377755Y701127D01*
X377923Y701077D01*
X377949Y701075D01*
X377975Y701068D01*
X378306Y701041D01*
X458252Y701041D01*
X481672Y677621D01*
X481679Y677616D01*
X481684Y677609D01*
X481834Y677489D01*
X481983Y677366D01*
X481991Y677362D01*
X481998Y677357D01*
X482169Y677268D01*
X482339Y677178D01*
X482347Y677175D01*
X482355Y677171D01*
X482541Y677118D01*
X482725Y677063D01*
X482734Y677062D01*
X482742Y677060D01*
X482934Y677044D01*
X483126Y677027D01*
X483135Y677028D01*
X483144Y677027D01*
X483333Y677049D01*
X483526Y677070D01*
X483535Y677073D01*
X483543Y677074D01*
X483725Y677133D01*
X483910Y677191D01*
X483918Y677196D01*
X483926Y677199D01*
X484095Y677294D01*
X484262Y677386D01*
X484269Y677392D01*
X484277Y677396D01*
X484423Y677522D01*
X484569Y677647D01*
X484575Y677654D01*
X484582Y677660D01*
X484699Y677811D01*
X484819Y677963D01*
X484823Y677971D01*
X484828Y677978D01*
X484914Y678150D01*
X485001Y678322D01*
X485004Y678330D01*
X485008Y678338D01*
X485058Y678525D01*
X485109Y678710D01*
X485110Y678718D01*
X485112Y678727D01*
X485139Y679058D01*
X485139Y716926D01*
X485137Y716953D01*
X485139Y716980D01*
X485117Y717154D01*
X485099Y717327D01*
X485092Y717352D01*
X485088Y717379D01*
X485032Y717545D01*
X484981Y717712D01*
X484968Y717735D01*
X484960Y717761D01*
X484873Y717912D01*
X484789Y718066D01*
X484772Y718086D01*
X484759Y718110D01*
X484544Y718363D01*
X469443Y733464D01*
X469422Y733481D01*
X469404Y733502D01*
X469266Y733609D01*
X469131Y733719D01*
X469107Y733732D01*
X469086Y733748D01*
X468929Y733826D01*
X468775Y733908D01*
X468750Y733916D01*
X468726Y733928D01*
X468556Y733973D01*
X468389Y734023D01*
X468363Y734025D01*
X468337Y734032D01*
X468006Y734059D01*
X378306Y734059D01*
X378279Y734057D01*
X378253Y734059D01*
X378079Y734037D01*
X377905Y734019D01*
X377880Y734012D01*
X377853Y734008D01*
X377687Y733953D01*
X377520Y733901D01*
X377497Y733888D01*
X377471Y733880D01*
X377320Y733793D01*
X377166Y733709D01*
X377146Y733692D01*
X377123Y733679D01*
X376870Y733464D01*
X376219Y732813D01*
X373081Y732813D01*
X372430Y733464D01*
X372410Y733481D01*
X372392Y733502D01*
X372254Y733609D01*
X372119Y733719D01*
X372095Y733732D01*
X372074Y733748D01*
X371917Y733826D01*
X371763Y733908D01*
X371738Y733916D01*
X371714Y733928D01*
X371544Y733973D01*
X371377Y734023D01*
X371351Y734025D01*
X371325Y734032D01*
X370994Y734059D01*
X340206Y734059D01*
X340179Y734057D01*
X340153Y734059D01*
X339979Y734037D01*
X339805Y734019D01*
X339780Y734012D01*
X339753Y734008D01*
X339587Y733953D01*
X339420Y733901D01*
X339397Y733888D01*
X339371Y733880D01*
X339220Y733793D01*
X339066Y733709D01*
X339046Y733692D01*
X339023Y733679D01*
X338770Y733464D01*
X338119Y732813D01*
X334981Y732813D01*
X334330Y733464D01*
X334310Y733481D01*
X334292Y733502D01*
X334154Y733609D01*
X334019Y733719D01*
X333995Y733732D01*
X333974Y733748D01*
X333817Y733826D01*
X333663Y733908D01*
X333638Y733916D01*
X333614Y733928D01*
X333444Y733973D01*
X333277Y734023D01*
X333251Y734025D01*
X333225Y734032D01*
X332894Y734059D01*
X302106Y734059D01*
X302079Y734057D01*
X302053Y734059D01*
X301879Y734037D01*
X301705Y734019D01*
X301680Y734012D01*
X301653Y734008D01*
X301487Y733953D01*
X301320Y733901D01*
X301297Y733888D01*
X301271Y733880D01*
X301120Y733793D01*
X300966Y733709D01*
X300946Y733692D01*
X300923Y733679D01*
X300670Y733464D01*
X300019Y732813D01*
X296881Y732813D01*
X296230Y733464D01*
X296210Y733481D01*
X296192Y733502D01*
X296054Y733609D01*
X295919Y733719D01*
X295895Y733732D01*
X295874Y733748D01*
X295717Y733826D01*
X295563Y733908D01*
X295538Y733916D01*
X295514Y733928D01*
X295344Y733973D01*
X295177Y734023D01*
X295151Y734025D01*
X295125Y734032D01*
X294794Y734059D01*
X264006Y734059D01*
X263979Y734057D01*
X263953Y734059D01*
X263779Y734037D01*
X263605Y734019D01*
X263580Y734012D01*
X263553Y734008D01*
X263387Y733953D01*
X263220Y733901D01*
X263197Y733888D01*
X263171Y733880D01*
X263020Y733793D01*
X262866Y733709D01*
X262846Y733692D01*
X262823Y733679D01*
X262570Y733464D01*
X261919Y732813D01*
X258781Y732813D01*
X258130Y733464D01*
X258110Y733481D01*
X258092Y733502D01*
X257954Y733609D01*
X257819Y733719D01*
X257795Y733732D01*
X257774Y733748D01*
X257617Y733826D01*
X257463Y733908D01*
X257438Y733916D01*
X257414Y733928D01*
X257244Y733973D01*
X257077Y734023D01*
X257051Y734025D01*
X257025Y734032D01*
X256694Y734059D01*
X225906Y734059D01*
X225879Y734057D01*
X225853Y734059D01*
X225679Y734037D01*
X225505Y734019D01*
X225480Y734012D01*
X225453Y734008D01*
X225287Y733953D01*
X225120Y733901D01*
X225097Y733888D01*
X225071Y733880D01*
X224920Y733793D01*
X224766Y733709D01*
X224746Y733692D01*
X224723Y733679D01*
X224470Y733464D01*
X223819Y732813D01*
X220681Y732813D01*
X220030Y733464D01*
X220010Y733481D01*
X219992Y733502D01*
X219854Y733609D01*
X219719Y733719D01*
X219695Y733732D01*
X219674Y733748D01*
X219517Y733826D01*
X219363Y733908D01*
X219338Y733916D01*
X219314Y733928D01*
X219144Y733973D01*
X218977Y734023D01*
X218951Y734025D01*
X218925Y734032D01*
X218594Y734059D01*
X187806Y734059D01*
X187779Y734057D01*
X187753Y734059D01*
X187579Y734037D01*
X187405Y734019D01*
X187380Y734012D01*
X187353Y734008D01*
X187187Y733953D01*
X187020Y733901D01*
X186997Y733888D01*
X186971Y733880D01*
X186820Y733793D01*
X186666Y733709D01*
X186646Y733692D01*
X186623Y733679D01*
X186370Y733464D01*
X185719Y732813D01*
X182581Y732813D01*
X181930Y733464D01*
X181910Y733481D01*
X181892Y733502D01*
X181754Y733609D01*
X181619Y733719D01*
X181595Y733732D01*
X181574Y733748D01*
X181417Y733826D01*
X181263Y733908D01*
X181238Y733916D01*
X181214Y733928D01*
X181044Y733973D01*
X180877Y734023D01*
X180851Y734025D01*
X180825Y734032D01*
X180494Y734059D01*
X149706Y734059D01*
X149679Y734057D01*
X149653Y734059D01*
X149479Y734037D01*
X149305Y734019D01*
X149280Y734012D01*
X149253Y734008D01*
X149087Y733953D01*
X148920Y733901D01*
X148897Y733888D01*
X148871Y733880D01*
X148720Y733793D01*
X148566Y733709D01*
X148546Y733692D01*
X148523Y733679D01*
X148270Y733464D01*
X147619Y732813D01*
X144481Y732813D01*
X143830Y733464D01*
X143810Y733481D01*
X143792Y733502D01*
X143654Y733609D01*
X143519Y733719D01*
X143495Y733732D01*
X143474Y733748D01*
X143317Y733826D01*
X143163Y733908D01*
X143138Y733916D01*
X143114Y733928D01*
X142944Y733973D01*
X142777Y734023D01*
X142751Y734025D01*
X142725Y734032D01*
X142394Y734059D01*
X105256Y734059D01*
X105229Y734057D01*
X105203Y734059D01*
X105029Y734037D01*
X104855Y734019D01*
X104830Y734012D01*
X104803Y734008D01*
X104637Y733953D01*
X104470Y733901D01*
X104447Y733888D01*
X104421Y733880D01*
X104270Y733793D01*
X104116Y733709D01*
X104096Y733692D01*
X104073Y733679D01*
X103820Y733464D01*
X103169Y732813D01*
X100031Y732813D01*
X97813Y735031D01*
X97813Y738169D01*
X100031Y740387D01*
X103169Y740387D01*
X103820Y739736D01*
X103840Y739719D01*
X103858Y739698D01*
X103996Y739591D01*
X104131Y739481D01*
X104155Y739468D01*
X104176Y739452D01*
X104333Y739374D01*
X104487Y739292D01*
X104512Y739284D01*
X104536Y739272D01*
X104706Y739227D01*
X104873Y739177D01*
X104899Y739175D01*
X104925Y739168D01*
X105256Y739141D01*
X142394Y739141D01*
X142421Y739143D01*
X142447Y739141D01*
X142621Y739163D01*
X142795Y739181D01*
X142820Y739188D01*
X142847Y739192D01*
X143013Y739247D01*
X143180Y739299D01*
X143203Y739312D01*
X143229Y739320D01*
X143380Y739407D01*
X143534Y739491D01*
X143554Y739508D01*
X143577Y739521D01*
X143830Y739736D01*
X144481Y740387D01*
X147619Y740387D01*
X148270Y739736D01*
X148290Y739719D01*
X148308Y739698D01*
X148446Y739591D01*
X148581Y739481D01*
X148605Y739468D01*
X148626Y739452D01*
X148783Y739374D01*
X148937Y739292D01*
X148962Y739284D01*
X148986Y739272D01*
X149156Y739227D01*
X149323Y739177D01*
X149349Y739175D01*
X149375Y739168D01*
X149706Y739141D01*
X180494Y739141D01*
X180521Y739143D01*
X180547Y739141D01*
X180721Y739163D01*
X180895Y739181D01*
X180920Y739188D01*
X180947Y739192D01*
X181113Y739247D01*
X181280Y739299D01*
X181303Y739312D01*
X181329Y739320D01*
X181480Y739407D01*
X181634Y739491D01*
X181654Y739508D01*
X181677Y739521D01*
X181930Y739736D01*
X182581Y740387D01*
X185719Y740387D01*
X186370Y739736D01*
X186390Y739719D01*
X186408Y739698D01*
X186546Y739591D01*
X186681Y739481D01*
X186705Y739468D01*
X186726Y739452D01*
X186883Y739374D01*
X187037Y739292D01*
X187062Y739284D01*
X187086Y739272D01*
X187256Y739227D01*
X187423Y739177D01*
X187449Y739175D01*
X187475Y739168D01*
X187806Y739141D01*
X218594Y739141D01*
X218621Y739143D01*
X218647Y739141D01*
X218821Y739163D01*
X218995Y739181D01*
X219020Y739188D01*
X219047Y739192D01*
X219213Y739247D01*
X219380Y739299D01*
X219403Y739312D01*
X219429Y739320D01*
X219580Y739407D01*
X219734Y739491D01*
X219754Y739508D01*
X219777Y739521D01*
X220030Y739736D01*
X220681Y740387D01*
X223819Y740387D01*
X224470Y739736D01*
X224490Y739719D01*
X224508Y739698D01*
X224646Y739591D01*
X224781Y739481D01*
X224805Y739468D01*
X224826Y739452D01*
X224983Y739374D01*
X225137Y739292D01*
X225162Y739284D01*
X225186Y739272D01*
X225356Y739227D01*
X225523Y739177D01*
X225549Y739175D01*
X225575Y739168D01*
X225906Y739141D01*
X256694Y739141D01*
X256721Y739143D01*
X256747Y739141D01*
X256921Y739163D01*
X257095Y739181D01*
X257120Y739188D01*
X257147Y739192D01*
X257313Y739247D01*
X257480Y739299D01*
X257503Y739312D01*
X257529Y739320D01*
X257680Y739407D01*
X257834Y739491D01*
X257854Y739508D01*
X257877Y739521D01*
X258130Y739736D01*
X258781Y740387D01*
X261919Y740387D01*
X262570Y739736D01*
X262590Y739719D01*
X262608Y739698D01*
X262746Y739591D01*
X262881Y739481D01*
X262905Y739468D01*
X262926Y739452D01*
X263083Y739374D01*
X263237Y739292D01*
X263262Y739284D01*
X263286Y739272D01*
X263456Y739227D01*
X263623Y739177D01*
X263649Y739175D01*
X263675Y739168D01*
X264006Y739141D01*
X294794Y739141D01*
X294821Y739143D01*
X294847Y739141D01*
X295021Y739163D01*
X295195Y739181D01*
X295220Y739188D01*
X295247Y739192D01*
X295413Y739247D01*
X295580Y739299D01*
X295603Y739312D01*
X295629Y739320D01*
X295780Y739407D01*
X295934Y739491D01*
X295954Y739508D01*
X295977Y739521D01*
X296230Y739736D01*
X296881Y740387D01*
X300019Y740387D01*
X300670Y739736D01*
X300690Y739719D01*
X300708Y739698D01*
X300846Y739591D01*
X300981Y739481D01*
X301005Y739468D01*
X301026Y739452D01*
X301183Y739374D01*
X301337Y739292D01*
X301362Y739284D01*
X301386Y739272D01*
X301556Y739227D01*
X301723Y739177D01*
X301749Y739175D01*
X301775Y739168D01*
X302106Y739141D01*
X332894Y739141D01*
X332921Y739143D01*
X332947Y739141D01*
X333121Y739163D01*
X333295Y739181D01*
X333320Y739188D01*
X333347Y739192D01*
X333513Y739247D01*
X333680Y739299D01*
X333703Y739312D01*
X333729Y739320D01*
X333880Y739407D01*
X334034Y739491D01*
X334054Y739508D01*
X334077Y739521D01*
X334330Y739736D01*
X334981Y740387D01*
X338119Y740387D01*
X338770Y739736D01*
X338790Y739719D01*
X338808Y739698D01*
X338946Y739591D01*
X339081Y739481D01*
X339105Y739468D01*
X339126Y739452D01*
X339283Y739374D01*
X339437Y739292D01*
X339462Y739284D01*
X339486Y739272D01*
X339656Y739227D01*
X339823Y739177D01*
X339849Y739175D01*
X339875Y739168D01*
X340206Y739141D01*
X370994Y739141D01*
X371021Y739143D01*
X371047Y739141D01*
X371221Y739163D01*
X371395Y739181D01*
X371420Y739188D01*
X371447Y739192D01*
X371613Y739247D01*
X371780Y739299D01*
X371803Y739312D01*
X371829Y739320D01*
X371980Y739407D01*
X372134Y739491D01*
X372154Y739508D01*
X372177Y739521D01*
X372430Y739736D01*
X373081Y740387D01*
X376219Y740387D01*
X376870Y739736D01*
X376890Y739719D01*
X376908Y739698D01*
X377046Y739591D01*
X377181Y739481D01*
X377205Y739468D01*
X377226Y739452D01*
X377383Y739374D01*
X377537Y739292D01*
X377562Y739284D01*
X377586Y739272D01*
X377756Y739227D01*
X377923Y739177D01*
X377949Y739175D01*
X377975Y739168D01*
X378306Y739141D01*
X470952Y739141D01*
X486752Y723341D01*
X486759Y723336D01*
X486764Y723329D01*
X486914Y723209D01*
X487063Y723086D01*
X487071Y723082D01*
X487078Y723077D01*
X487248Y722988D01*
X487419Y722898D01*
X487428Y722895D01*
X487435Y722891D01*
X487620Y722838D01*
X487805Y722783D01*
X487814Y722782D01*
X487822Y722780D01*
X488014Y722764D01*
X488206Y722747D01*
X488215Y722748D01*
X488224Y722747D01*
X488413Y722769D01*
X488606Y722790D01*
X488615Y722793D01*
X488623Y722794D01*
X488805Y722853D01*
X488990Y722911D01*
X488998Y722916D01*
X489006Y722919D01*
X489175Y723014D01*
X489342Y723106D01*
X489349Y723112D01*
X489357Y723116D01*
X489503Y723242D01*
X489649Y723367D01*
X489655Y723374D01*
X489662Y723380D01*
X489778Y723530D01*
X489899Y723683D01*
X489903Y723691D01*
X489908Y723698D01*
X489994Y723870D01*
X490081Y724042D01*
X490084Y724050D01*
X490088Y724058D01*
X490138Y724245D01*
X490189Y724430D01*
X490190Y724438D01*
X490192Y724447D01*
X490219Y724778D01*
X490219Y757566D01*
X490217Y757593D01*
X490219Y757620D01*
X490197Y757793D01*
X490179Y757967D01*
X490172Y757992D01*
X490168Y758019D01*
X490113Y758185D01*
X490061Y758352D01*
X490048Y758375D01*
X490040Y758401D01*
X489953Y758552D01*
X489869Y758706D01*
X489852Y758726D01*
X489839Y758750D01*
X489624Y759003D01*
X477063Y771564D01*
X477042Y771581D01*
X477024Y771602D01*
X476886Y771709D01*
X476751Y771819D01*
X476727Y771832D01*
X476706Y771848D01*
X476549Y771926D01*
X476395Y772008D01*
X476370Y772016D01*
X476346Y772028D01*
X476176Y772073D01*
X476009Y772123D01*
X475983Y772125D01*
X475957Y772132D01*
X475626Y772159D01*
X378306Y772159D01*
X378279Y772157D01*
X378253Y772159D01*
X378078Y772137D01*
X377905Y772119D01*
X377880Y772112D01*
X377853Y772108D01*
X377687Y772052D01*
X377520Y772001D01*
X377497Y771988D01*
X377471Y771980D01*
X377320Y771893D01*
X377166Y771809D01*
X377146Y771792D01*
X377123Y771779D01*
X376870Y771564D01*
X376219Y770913D01*
X373081Y770913D01*
X372430Y771564D01*
X372410Y771581D01*
X372392Y771602D01*
X372254Y771709D01*
X372119Y771819D01*
X372095Y771832D01*
X372074Y771848D01*
X371918Y771926D01*
X371763Y772008D01*
X371738Y772016D01*
X371714Y772028D01*
X371545Y772073D01*
X371377Y772123D01*
X371351Y772125D01*
X371325Y772132D01*
X370994Y772159D01*
X340206Y772159D01*
X340179Y772157D01*
X340153Y772159D01*
X339978Y772137D01*
X339805Y772119D01*
X339780Y772112D01*
X339753Y772108D01*
X339587Y772052D01*
X339420Y772001D01*
X339397Y771988D01*
X339371Y771980D01*
X339220Y771893D01*
X339066Y771809D01*
X339046Y771792D01*
X339023Y771779D01*
X338770Y771564D01*
X338119Y770913D01*
X334981Y770913D01*
X334330Y771564D01*
X334310Y771581D01*
X334292Y771602D01*
X334154Y771709D01*
X334019Y771819D01*
X333995Y771832D01*
X333974Y771848D01*
X333818Y771926D01*
X333663Y772008D01*
X333638Y772016D01*
X333614Y772028D01*
X333445Y772073D01*
X333277Y772123D01*
X333251Y772125D01*
X333225Y772132D01*
X332894Y772159D01*
X302106Y772159D01*
X302079Y772157D01*
X302053Y772159D01*
X301878Y772137D01*
X301705Y772119D01*
X301680Y772112D01*
X301653Y772108D01*
X301487Y772052D01*
X301320Y772001D01*
X301297Y771988D01*
X301271Y771980D01*
X301120Y771893D01*
X300966Y771809D01*
X300946Y771792D01*
X300923Y771779D01*
X300670Y771564D01*
X300019Y770913D01*
X296881Y770913D01*
X296230Y771564D01*
X296210Y771581D01*
X296192Y771602D01*
X296054Y771709D01*
X295919Y771819D01*
X295895Y771832D01*
X295874Y771848D01*
X295718Y771926D01*
X295563Y772008D01*
X295538Y772016D01*
X295514Y772028D01*
X295345Y772073D01*
X295177Y772123D01*
X295151Y772125D01*
X295125Y772132D01*
X294794Y772159D01*
X264006Y772159D01*
X263979Y772157D01*
X263953Y772159D01*
X263778Y772137D01*
X263605Y772119D01*
X263580Y772112D01*
X263553Y772108D01*
X263387Y772052D01*
X263220Y772001D01*
X263197Y771988D01*
X263171Y771980D01*
X263020Y771893D01*
X262866Y771809D01*
X262846Y771792D01*
X262823Y771779D01*
X262570Y771564D01*
X261919Y770913D01*
X258781Y770913D01*
X258130Y771564D01*
X258110Y771581D01*
X258092Y771602D01*
X257954Y771709D01*
X257819Y771819D01*
X257795Y771832D01*
X257774Y771848D01*
X257618Y771926D01*
X257463Y772008D01*
X257438Y772016D01*
X257414Y772028D01*
X257245Y772073D01*
X257077Y772123D01*
X257051Y772125D01*
X257025Y772132D01*
X256694Y772159D01*
X225906Y772159D01*
X225879Y772157D01*
X225853Y772159D01*
X225678Y772137D01*
X225505Y772119D01*
X225480Y772112D01*
X225453Y772108D01*
X225287Y772052D01*
X225120Y772001D01*
X225097Y771988D01*
X225071Y771980D01*
X224920Y771893D01*
X224766Y771809D01*
X224746Y771792D01*
X224723Y771779D01*
X224470Y771564D01*
X223819Y770913D01*
X220681Y770913D01*
X220030Y771564D01*
X220010Y771581D01*
X219992Y771602D01*
X219854Y771709D01*
X219719Y771819D01*
X219695Y771832D01*
X219674Y771848D01*
X219518Y771926D01*
X219363Y772008D01*
X219338Y772016D01*
X219314Y772028D01*
X219145Y772073D01*
X218977Y772123D01*
X218951Y772125D01*
X218925Y772132D01*
X218594Y772159D01*
X187806Y772159D01*
X187779Y772157D01*
X187753Y772159D01*
X187578Y772137D01*
X187405Y772119D01*
X187380Y772112D01*
X187353Y772108D01*
X187187Y772052D01*
X187020Y772001D01*
X186997Y771988D01*
X186971Y771980D01*
X186820Y771893D01*
X186666Y771809D01*
X186646Y771792D01*
X186623Y771779D01*
X186370Y771564D01*
X185719Y770913D01*
X182581Y770913D01*
X181930Y771564D01*
X181910Y771581D01*
X181892Y771602D01*
X181754Y771709D01*
X181619Y771819D01*
X181595Y771832D01*
X181574Y771848D01*
X181418Y771926D01*
X181263Y772008D01*
X181238Y772016D01*
X181214Y772028D01*
X181045Y772073D01*
X180877Y772123D01*
X180851Y772125D01*
X180825Y772132D01*
X180494Y772159D01*
X149706Y772159D01*
X149679Y772157D01*
X149653Y772159D01*
X149478Y772137D01*
X149305Y772119D01*
X149280Y772112D01*
X149253Y772108D01*
X149087Y772052D01*
X148920Y772001D01*
X148897Y771988D01*
X148871Y771980D01*
X148720Y771893D01*
X148566Y771809D01*
X148546Y771792D01*
X148523Y771779D01*
X148270Y771564D01*
X147619Y770913D01*
X144481Y770913D01*
X143830Y771564D01*
X143810Y771581D01*
X143792Y771602D01*
X143654Y771709D01*
X143519Y771819D01*
X143495Y771832D01*
X143474Y771848D01*
X143318Y771926D01*
X143163Y772008D01*
X143138Y772016D01*
X143114Y772028D01*
X142945Y772073D01*
X142777Y772123D01*
X142751Y772125D01*
X142725Y772132D01*
X142394Y772159D01*
X105256Y772159D01*
X105229Y772157D01*
X105203Y772159D01*
X105029Y772137D01*
X104855Y772119D01*
X104830Y772112D01*
X104803Y772108D01*
X104637Y772053D01*
X104470Y772001D01*
X104447Y771988D01*
X104421Y771980D01*
X104270Y771893D01*
X104116Y771809D01*
X104096Y771792D01*
X104073Y771779D01*
X103820Y771564D01*
X103169Y770913D01*
X100031Y770913D01*
X97813Y773131D01*
X97813Y776269D01*
X100031Y778487D01*
X103169Y778487D01*
X103820Y777836D01*
X103840Y777819D01*
X103858Y777798D01*
X103996Y777691D01*
X104131Y777581D01*
X104155Y777568D01*
X104176Y777552D01*
X104333Y777474D01*
X104487Y777392D01*
X104512Y777384D01*
X104536Y777372D01*
X104706Y777327D01*
X104873Y777277D01*
X104899Y777275D01*
X104925Y777268D01*
X105256Y777241D01*
X142394Y777241D01*
X142421Y777243D01*
X142447Y777241D01*
X142622Y777263D01*
X142795Y777281D01*
X142820Y777288D01*
X142847Y777292D01*
X143013Y777348D01*
X143180Y777399D01*
X143203Y777412D01*
X143229Y777420D01*
X143380Y777507D01*
X143534Y777591D01*
X143554Y777608D01*
X143577Y777621D01*
X143830Y777836D01*
X144481Y778487D01*
X147619Y778487D01*
X148270Y777836D01*
X148290Y777819D01*
X148308Y777798D01*
X148446Y777691D01*
X148581Y777581D01*
X148605Y777568D01*
X148626Y777552D01*
X148782Y777474D01*
X148937Y777392D01*
X148962Y777384D01*
X148986Y777372D01*
X149155Y777327D01*
X149323Y777277D01*
X149349Y777275D01*
X149375Y777268D01*
X149706Y777241D01*
X180494Y777241D01*
X180521Y777243D01*
X180547Y777241D01*
X180722Y777263D01*
X180895Y777281D01*
X180920Y777288D01*
X180947Y777292D01*
X181113Y777348D01*
X181280Y777399D01*
X181303Y777412D01*
X181329Y777420D01*
X181480Y777507D01*
X181634Y777591D01*
X181654Y777608D01*
X181677Y777621D01*
X181930Y777836D01*
X182581Y778487D01*
X185719Y778487D01*
X186370Y777836D01*
X186390Y777819D01*
X186408Y777798D01*
X186546Y777691D01*
X186681Y777581D01*
X186705Y777568D01*
X186726Y777552D01*
X186882Y777474D01*
X187037Y777392D01*
X187062Y777384D01*
X187086Y777372D01*
X187255Y777327D01*
X187423Y777277D01*
X187449Y777275D01*
X187475Y777268D01*
X187806Y777241D01*
X218594Y777241D01*
X218621Y777243D01*
X218647Y777241D01*
X218822Y777263D01*
X218995Y777281D01*
X219020Y777288D01*
X219047Y777292D01*
X219213Y777348D01*
X219380Y777399D01*
X219403Y777412D01*
X219429Y777420D01*
X219580Y777507D01*
X219734Y777591D01*
X219754Y777608D01*
X219777Y777621D01*
X220030Y777836D01*
X220681Y778487D01*
X223819Y778487D01*
X224470Y777836D01*
X224490Y777819D01*
X224508Y777798D01*
X224646Y777691D01*
X224781Y777581D01*
X224805Y777568D01*
X224826Y777552D01*
X224982Y777474D01*
X225137Y777392D01*
X225162Y777384D01*
X225186Y777372D01*
X225355Y777327D01*
X225523Y777277D01*
X225549Y777275D01*
X225575Y777268D01*
X225906Y777241D01*
X256694Y777241D01*
X256721Y777243D01*
X256747Y777241D01*
X256922Y777263D01*
X257095Y777281D01*
X257120Y777288D01*
X257147Y777292D01*
X257313Y777348D01*
X257480Y777399D01*
X257503Y777412D01*
X257529Y777420D01*
X257680Y777507D01*
X257834Y777591D01*
X257854Y777608D01*
X257877Y777621D01*
X258130Y777836D01*
X258781Y778487D01*
X261919Y778487D01*
X262570Y777836D01*
X262590Y777819D01*
X262608Y777798D01*
X262746Y777691D01*
X262881Y777581D01*
X262905Y777568D01*
X262926Y777552D01*
X263082Y777474D01*
X263237Y777392D01*
X263262Y777384D01*
X263286Y777372D01*
X263455Y777327D01*
X263623Y777277D01*
X263649Y777275D01*
X263675Y777268D01*
X264006Y777241D01*
X294794Y777241D01*
X294821Y777243D01*
X294847Y777241D01*
X295022Y777263D01*
X295195Y777281D01*
X295220Y777288D01*
X295247Y777292D01*
X295413Y777348D01*
X295580Y777399D01*
X295603Y777412D01*
X295629Y777420D01*
X295780Y777507D01*
X295934Y777591D01*
X295954Y777608D01*
X295977Y777621D01*
X296230Y777836D01*
X296881Y778487D01*
X300019Y778487D01*
X300670Y777836D01*
X300690Y777819D01*
X300708Y777798D01*
X300846Y777691D01*
X300981Y777581D01*
X301005Y777568D01*
X301026Y777552D01*
X301182Y777474D01*
X301337Y777392D01*
X301362Y777384D01*
X301386Y777372D01*
X301555Y777327D01*
X301723Y777277D01*
X301749Y777275D01*
X301775Y777268D01*
X302106Y777241D01*
X332894Y777241D01*
X332921Y777243D01*
X332947Y777241D01*
X333122Y777263D01*
X333295Y777281D01*
X333320Y777288D01*
X333347Y777292D01*
X333513Y777348D01*
X333680Y777399D01*
X333703Y777412D01*
X333729Y777420D01*
X333880Y777507D01*
X334034Y777591D01*
X334054Y777608D01*
X334077Y777621D01*
X334330Y777836D01*
X334981Y778487D01*
X338119Y778487D01*
X338770Y777836D01*
X338790Y777819D01*
X338808Y777798D01*
X338946Y777691D01*
X339081Y777581D01*
X339105Y777568D01*
X339126Y777552D01*
X339282Y777474D01*
X339437Y777392D01*
X339462Y777384D01*
X339486Y777372D01*
X339655Y777327D01*
X339823Y777277D01*
X339849Y777275D01*
X339875Y777268D01*
X340206Y777241D01*
X370994Y777241D01*
X371021Y777243D01*
X371047Y777241D01*
X371222Y777263D01*
X371395Y777281D01*
X371420Y777288D01*
X371447Y777292D01*
X371613Y777348D01*
X371780Y777399D01*
X371803Y777412D01*
X371829Y777420D01*
X371980Y777507D01*
X372134Y777591D01*
X372154Y777608D01*
X372177Y777621D01*
X372430Y777836D01*
X373081Y778487D01*
X376219Y778487D01*
X376870Y777836D01*
X376890Y777819D01*
X376908Y777798D01*
X377046Y777691D01*
X377181Y777581D01*
X377205Y777568D01*
X377226Y777552D01*
X377382Y777474D01*
X377537Y777392D01*
X377562Y777384D01*
X377586Y777372D01*
X377755Y777327D01*
X377923Y777277D01*
X377949Y777275D01*
X377975Y777268D01*
X378306Y777241D01*
X478572Y777241D01*
X495301Y760512D01*
X495301Y143728D01*
X476032Y124459D01*
X424918Y124459D01*
X424900Y124457D01*
X424882Y124459D01*
X424700Y124438D01*
X424517Y124419D01*
X424500Y124414D01*
X424483Y124412D01*
X424308Y124355D01*
X424132Y124301D01*
X424117Y124293D01*
X424100Y124287D01*
X423940Y124197D01*
X423778Y124109D01*
X423765Y124098D01*
X423749Y124089D01*
X423610Y123969D01*
X423469Y123852D01*
X423458Y123838D01*
X423444Y123826D01*
X423332Y123681D01*
X423217Y123538D01*
X423209Y123522D01*
X423198Y123508D01*
X423116Y123343D01*
X423031Y123181D01*
X423026Y123164D01*
X423018Y123148D01*
X422971Y122969D01*
X422920Y122794D01*
X422918Y122776D01*
X422914Y122759D01*
X422887Y122428D01*
X422887Y119081D01*
X422236Y118430D01*
X422219Y118410D01*
X422198Y118392D01*
X422091Y118254D01*
X421981Y118119D01*
X421968Y118095D01*
X421952Y118074D01*
X421874Y117917D01*
X421792Y117763D01*
X421784Y117738D01*
X421772Y117714D01*
X421727Y117544D01*
X421677Y117377D01*
X421675Y117351D01*
X421668Y117325D01*
X421641Y116994D01*
X421641Y106898D01*
X419811Y105068D01*
X419806Y105061D01*
X419799Y105056D01*
X419679Y104906D01*
X419556Y104757D01*
X419552Y104749D01*
X419547Y104742D01*
X419458Y104572D01*
X419368Y104401D01*
X419365Y104392D01*
X419361Y104385D01*
X419308Y104200D01*
X419253Y104015D01*
X419252Y104006D01*
X419250Y103998D01*
X419234Y103807D01*
X419217Y103614D01*
X419218Y103605D01*
X419217Y103596D01*
X419239Y103407D01*
X419260Y103214D01*
X419263Y103205D01*
X419264Y103197D01*
X419323Y103015D01*
X419381Y102830D01*
X419386Y102822D01*
X419389Y102814D01*
X419484Y102645D01*
X419576Y102478D01*
X419582Y102471D01*
X419586Y102463D01*
X419712Y102317D01*
X419837Y102171D01*
X419844Y102165D01*
X419850Y102158D01*
X420001Y102041D01*
X420153Y101921D01*
X420161Y101917D01*
X420168Y101912D01*
X420340Y101826D01*
X420512Y101739D01*
X420520Y101736D01*
X420528Y101732D01*
X420714Y101682D01*
X420899Y101631D01*
X420908Y101630D01*
X420917Y101628D01*
X421248Y101601D01*
X422692Y101601D01*
X424775Y99518D01*
X424776Y99517D01*
X429717Y94576D01*
X431801Y92492D01*
X431801Y84936D01*
X431803Y84909D01*
X431801Y84883D01*
X431823Y84709D01*
X431841Y84535D01*
X431848Y84510D01*
X431852Y84483D01*
X431907Y84317D01*
X431959Y84150D01*
X431972Y84127D01*
X431980Y84101D01*
X432067Y83950D01*
X432151Y83796D01*
X432168Y83776D01*
X432181Y83753D01*
X432396Y83500D01*
X433047Y82849D01*
X433047Y82018D01*
X433049Y82000D01*
X433047Y81982D01*
X433068Y81800D01*
X433087Y81617D01*
X433092Y81600D01*
X433094Y81583D01*
X433151Y81408D01*
X433205Y81232D01*
X433213Y81217D01*
X433219Y81200D01*
X433309Y81040D01*
X433397Y80878D01*
X433408Y80865D01*
X433417Y80849D01*
X433537Y80710D01*
X433654Y80569D01*
X433668Y80558D01*
X433680Y80544D01*
X433825Y80432D01*
X433968Y80317D01*
X433984Y80309D01*
X433998Y80298D01*
X434163Y80216D01*
X434325Y80131D01*
X434342Y80126D01*
X434358Y80118D01*
X434537Y80071D01*
X434712Y80020D01*
X434730Y80018D01*
X434747Y80014D01*
X435078Y79987D01*
X435909Y79987D01*
X438253Y77642D01*
X438285Y77538D01*
X438289Y77530D01*
X438292Y77522D01*
X438385Y77353D01*
X438477Y77184D01*
X438482Y77177D01*
X438487Y77170D01*
X438611Y77022D01*
X438734Y76875D01*
X438741Y76869D01*
X438747Y76863D01*
X438899Y76743D01*
X439048Y76623D01*
X439056Y76618D01*
X439063Y76613D01*
X439236Y76525D01*
X439405Y76437D01*
X439414Y76435D01*
X439422Y76431D01*
X439608Y76379D01*
X439792Y76326D01*
X439801Y76325D01*
X439810Y76323D01*
X440003Y76308D01*
X440194Y76293D01*
X440202Y76294D01*
X440211Y76293D01*
X440404Y76317D01*
X440593Y76340D01*
X440602Y76342D01*
X440611Y76344D01*
X440794Y76405D01*
X440976Y76465D01*
X440984Y76469D01*
X440992Y76472D01*
X441159Y76568D01*
X441327Y76662D01*
X441334Y76668D01*
X441341Y76673D01*
X441594Y76887D01*
X459144Y94437D01*
X459161Y94458D01*
X459182Y94476D01*
X459289Y94614D01*
X459399Y94749D01*
X459412Y94773D01*
X459428Y94794D01*
X459506Y94951D01*
X459588Y95105D01*
X459596Y95130D01*
X459608Y95154D01*
X459653Y95324D01*
X459703Y95491D01*
X459705Y95517D01*
X459712Y95543D01*
X459739Y95874D01*
X459739Y108104D01*
X459737Y108131D01*
X459739Y108157D01*
X459717Y108331D01*
X459699Y108505D01*
X459692Y108530D01*
X459688Y108557D01*
X459633Y108723D01*
X459581Y108890D01*
X459568Y108913D01*
X459560Y108939D01*
X459473Y109090D01*
X459389Y109244D01*
X459372Y109264D01*
X459359Y109287D01*
X459144Y109540D01*
X458493Y110191D01*
X458493Y113329D01*
X460711Y115547D01*
X463849Y115547D01*
X466067Y113329D01*
X466067Y110191D01*
X465416Y109540D01*
X465399Y109520D01*
X465378Y109502D01*
X465271Y109364D01*
X465161Y109229D01*
X465148Y109205D01*
X465132Y109184D01*
X465054Y109027D01*
X464972Y108873D01*
X464964Y108848D01*
X464952Y108824D01*
X464907Y108654D01*
X464857Y108487D01*
X464855Y108461D01*
X464848Y108435D01*
X464821Y108104D01*
X464821Y92928D01*
X462737Y90844D01*
X458881Y86988D01*
X458876Y86981D01*
X458869Y86976D01*
X458749Y86826D01*
X458626Y86677D01*
X458622Y86669D01*
X458617Y86662D01*
X458528Y86492D01*
X458438Y86321D01*
X458435Y86312D01*
X458431Y86305D01*
X458378Y86120D01*
X458323Y85935D01*
X458322Y85926D01*
X458320Y85918D01*
X458304Y85727D01*
X458287Y85534D01*
X458288Y85525D01*
X458287Y85516D01*
X458309Y85327D01*
X458330Y85134D01*
X458333Y85125D01*
X458334Y85117D01*
X458394Y84932D01*
X458451Y84750D01*
X458456Y84742D01*
X458459Y84734D01*
X458554Y84565D01*
X458646Y84398D01*
X458652Y84391D01*
X458656Y84383D01*
X458782Y84237D01*
X458907Y84091D01*
X458914Y84085D01*
X458920Y84078D01*
X459071Y83961D01*
X459223Y83841D01*
X459231Y83837D01*
X459238Y83832D01*
X459410Y83746D01*
X459582Y83659D01*
X459590Y83656D01*
X459598Y83652D01*
X459784Y83602D01*
X459969Y83551D01*
X459978Y83550D01*
X459987Y83548D01*
X460318Y83521D01*
X468230Y83521D01*
X468252Y83523D01*
X468274Y83521D01*
X468451Y83543D01*
X468630Y83561D01*
X468652Y83567D01*
X468674Y83570D01*
X468844Y83626D01*
X469015Y83679D01*
X469035Y83689D01*
X469056Y83696D01*
X469212Y83785D01*
X469369Y83871D01*
X469386Y83885D01*
X469406Y83896D01*
X469541Y84014D01*
X469678Y84128D01*
X469692Y84146D01*
X469709Y84160D01*
X469819Y84303D01*
X469931Y84442D01*
X469941Y84462D01*
X469955Y84479D01*
X470059Y84683D01*
X471921Y86545D01*
X474334Y87545D01*
X487026Y87545D01*
X489439Y86545D01*
X491285Y84699D01*
X492285Y82286D01*
X492285Y79674D01*
X491285Y77261D01*
X490190Y76166D01*
X490179Y76152D01*
X490165Y76141D01*
X490052Y75997D01*
X489935Y75855D01*
X489927Y75839D01*
X489916Y75825D01*
X489833Y75661D01*
X489747Y75499D01*
X489741Y75482D01*
X489733Y75466D01*
X489684Y75289D01*
X489632Y75113D01*
X489630Y75095D01*
X489625Y75078D01*
X489612Y74895D01*
X489595Y74712D01*
X489597Y74694D01*
X489596Y74677D01*
X489619Y74495D01*
X489639Y74312D01*
X489644Y74295D01*
X489646Y74277D01*
X489705Y74103D01*
X489760Y73928D01*
X489769Y73912D01*
X489775Y73896D01*
X489866Y73737D01*
X489955Y73576D01*
X489967Y73562D01*
X489976Y73547D01*
X490190Y73294D01*
X491285Y72199D01*
X492285Y69786D01*
X492285Y67174D01*
X491285Y64761D01*
X490190Y63666D01*
X490179Y63653D01*
X490165Y63641D01*
X490051Y63496D01*
X489935Y63355D01*
X489927Y63339D01*
X489916Y63325D01*
X489832Y63161D01*
X489747Y62999D01*
X489741Y62982D01*
X489733Y62966D01*
X489684Y62789D01*
X489632Y62613D01*
X489630Y62595D01*
X489625Y62578D01*
X489612Y62395D01*
X489595Y62212D01*
X489597Y62194D01*
X489596Y62177D01*
X489619Y61995D01*
X489639Y61812D01*
X489644Y61795D01*
X489646Y61777D01*
X489705Y61604D01*
X489760Y61428D01*
X489769Y61412D01*
X489775Y61396D01*
X489866Y61237D01*
X489955Y61076D01*
X489967Y61062D01*
X489976Y61047D01*
X490190Y60794D01*
X491285Y59699D01*
X492285Y57286D01*
X492285Y54674D01*
X491285Y52261D01*
X490190Y51166D01*
X490179Y51153D01*
X490165Y51141D01*
X490051Y50996D01*
X489935Y50855D01*
X489927Y50839D01*
X489916Y50825D01*
X489832Y50661D01*
X489747Y50499D01*
X489741Y50482D01*
X489733Y50466D01*
X489684Y50289D01*
X489632Y50113D01*
X489630Y50095D01*
X489625Y50078D01*
X489612Y49895D01*
X489595Y49712D01*
X489597Y49694D01*
X489596Y49677D01*
X489619Y49495D01*
X489639Y49312D01*
X489644Y49295D01*
X489646Y49277D01*
X489705Y49104D01*
X489760Y48928D01*
X489769Y48912D01*
X489775Y48896D01*
X489866Y48737D01*
X489955Y48576D01*
X489967Y48562D01*
X489976Y48547D01*
X490190Y48294D01*
X491285Y47199D01*
X492285Y44786D01*
X492285Y42174D01*
X491285Y39761D01*
X489439Y37915D01*
X487026Y36915D01*
X474334Y36915D01*
G37*
%LPD*%
%LPC*%
G36*
X267707Y12549D02*
X267707Y12549D01*
X265318Y13539D01*
X263489Y15368D01*
X262499Y17757D01*
X262499Y20343D01*
X263489Y22732D01*
X265318Y24561D01*
X267707Y25551D01*
X270293Y25551D01*
X272682Y24561D01*
X274511Y22732D01*
X275501Y20343D01*
X275501Y17757D01*
X274511Y15368D01*
X272682Y13539D01*
X270293Y12549D01*
X267707Y12549D01*
G37*
%LPD*%
%LPC*%
G36*
X237707Y12549D02*
X237707Y12549D01*
X235318Y13539D01*
X233489Y15368D01*
X232499Y17757D01*
X232499Y20343D01*
X233489Y22732D01*
X235318Y24561D01*
X237707Y25551D01*
X240293Y25551D01*
X242682Y24561D01*
X244511Y22732D01*
X245501Y20343D01*
X245501Y17757D01*
X244511Y15368D01*
X242682Y13539D01*
X240293Y12549D01*
X237707Y12549D01*
G37*
%LPD*%
D10*
X485720Y80980D02*
X475640Y80980D01*
X475640Y68480D02*
X485720Y68480D01*
X485720Y55980D02*
X475640Y55980D01*
X475640Y43480D02*
X485720Y43480D01*
D11*
X287020Y167640D03*
X431800Y43180D03*
X287020Y111760D03*
X467360Y182880D03*
D12*
X228600Y57150D03*
D13*
X452020Y68480D02*
X485720Y68480D01*
X452020Y68480D02*
X444500Y60960D01*
X340360Y60960D02*
X299720Y101600D01*
X340360Y60960D02*
X444500Y60960D01*
X299720Y101600D02*
X299720Y200660D01*
D11*
X299720Y200660D03*
D13*
X456900Y80980D02*
X485720Y80980D01*
X441960Y66040D02*
X408940Y66040D01*
X408900Y66000D01*
D11*
X408900Y66000D03*
D13*
X441960Y66040D02*
X456900Y80980D01*
X456900Y43480D02*
X485720Y43480D01*
X456900Y43480D02*
X444500Y55880D01*
X337820Y55880D01*
X294640Y99060D01*
D11*
X294640Y172720D03*
D13*
X294640Y99060D01*
X146050Y774700D02*
X101600Y774700D01*
X146050Y774700D02*
X184150Y774700D01*
X222250Y774700D01*
X260350Y774700D01*
X298450Y774700D01*
X336550Y774700D01*
X374650Y774700D01*
X477520Y774700D01*
X492760Y759460D01*
X474980Y127000D02*
X347980Y127000D01*
D11*
X347980Y127000D03*
D13*
X492760Y144780D02*
X492760Y759460D01*
X492760Y144780D02*
X474980Y127000D01*
D11*
X101600Y774700D03*
X222250Y774700D03*
X184150Y774700D03*
X146050Y774700D03*
X260350Y774700D03*
X336550Y774700D03*
X298450Y774700D03*
X374650Y774700D03*
D13*
X107950Y876300D02*
X19050Y876300D01*
X12700Y869950D01*
X320040Y114300D02*
X330200Y104140D01*
X415290Y104140D01*
X419100Y107950D01*
X419100Y120650D01*
D11*
X419100Y120650D03*
D13*
X320040Y114300D02*
X320040Y218440D01*
X264160Y274320D01*
X264160Y307340D01*
X22860Y269240D02*
X12700Y279400D01*
D11*
X22860Y269240D03*
D13*
X12700Y279400D02*
X12700Y869950D01*
D11*
X256540Y314960D03*
D13*
X264160Y307340D01*
D11*
X107950Y876300D03*
D13*
X25400Y869950D02*
X19050Y863600D01*
X25400Y869950D02*
X146050Y869950D01*
X325120Y116840D02*
X332740Y109220D01*
X407670Y109220D01*
X412750Y114300D01*
X412750Y120650D01*
D11*
X412750Y120650D03*
D13*
X325120Y220980D02*
X269240Y276860D01*
X325120Y220980D02*
X325120Y116840D01*
X27940Y274320D02*
X19050Y283210D01*
D11*
X27940Y274320D03*
D13*
X19050Y283210D02*
X19050Y863600D01*
D11*
X261620Y320040D03*
D13*
X269240Y312420D01*
X269240Y276860D01*
D11*
X146050Y869950D03*
D13*
X222250Y857250D02*
X38100Y857250D01*
X31750Y850900D01*
D11*
X337820Y157480D03*
D13*
X335280Y226060D02*
X279400Y281940D01*
X335280Y160020D02*
X337820Y157480D01*
X335280Y160020D02*
X335280Y226060D01*
X31750Y290830D02*
X31750Y850900D01*
X31750Y290830D02*
X38100Y284480D01*
D11*
X38100Y284480D03*
X271780Y330200D03*
D13*
X279400Y322580D01*
X279400Y281940D01*
D11*
X222250Y857250D03*
D13*
X31750Y863600D02*
X25400Y857250D01*
X25400Y288290D01*
X31750Y863600D02*
X184150Y863600D01*
X330200Y223520D02*
X330200Y119380D01*
X335280Y114300D01*
X400050Y114300D02*
X406400Y120650D01*
D11*
X406400Y120650D03*
D13*
X400050Y114300D02*
X335280Y114300D01*
X330200Y223520D02*
X274320Y279400D01*
X33020Y279400D02*
X33020Y280670D01*
X25400Y288290D01*
D11*
X33020Y279400D03*
X266700Y325120D03*
D13*
X274320Y317500D01*
X274320Y279400D01*
D11*
X184150Y863600D03*
D13*
X44450Y850900D02*
X38100Y844550D01*
X38100Y469900D01*
X44450Y850900D02*
X254000Y850900D01*
D11*
X342900Y152400D03*
D13*
X58420Y449580D02*
X38100Y469900D01*
X243840Y449580D02*
X284480Y408940D01*
X243840Y449580D02*
X58420Y449580D01*
X340360Y165100D02*
X342900Y162560D01*
X342900Y152400D01*
X284480Y284480D02*
X284480Y408940D01*
X284480Y284480D02*
X340360Y228600D01*
X340360Y165100D01*
D11*
X254000Y850900D03*
D13*
X292100Y844550D02*
X50800Y844550D01*
X44450Y838200D01*
X44450Y469900D01*
D11*
X347980Y147320D03*
D13*
X59690Y454660D02*
X44450Y469900D01*
X246380Y454660D02*
X289560Y411480D01*
X246380Y454660D02*
X59690Y454660D01*
X345440Y167640D02*
X347980Y165100D01*
X347980Y147320D01*
X289560Y287020D02*
X289560Y411480D01*
X289560Y287020D02*
X345440Y231140D01*
X345440Y167640D01*
D11*
X292100Y844550D03*
D13*
X368300Y831850D02*
X63500Y831850D01*
X57150Y825500D01*
X57150Y469900D01*
X62230Y464820D01*
D11*
X347980Y137160D03*
D13*
X251460Y464820D02*
X62230Y464820D01*
X251460Y464820D02*
X299720Y416560D01*
X299720Y292100D02*
X355600Y236220D01*
X355600Y172720D02*
X358140Y170180D01*
X358140Y139700D02*
X355600Y137160D01*
X347980Y137160D01*
X299720Y292100D02*
X299720Y416560D01*
X355600Y236220D02*
X355600Y172720D01*
X358140Y170180D02*
X358140Y139700D01*
D11*
X368300Y831850D03*
D13*
X146050Y736600D02*
X101600Y736600D01*
X146050Y736600D02*
X184150Y736600D01*
X222250Y736600D01*
X260350Y736600D01*
X298450Y736600D01*
X336550Y736600D01*
X374650Y736600D01*
X469900Y736600D01*
X487680Y718820D01*
X472440Y132080D02*
X342900Y132080D01*
X337820Y127000D01*
X337820Y121920D01*
D11*
X337820Y121920D03*
D13*
X487680Y147320D02*
X487680Y718820D01*
X487680Y147320D02*
X472440Y132080D01*
D11*
X101600Y736600D03*
X146050Y736600D03*
X184150Y736600D03*
X222250Y736600D03*
X260350Y736600D03*
X374650Y736600D03*
X336550Y736600D03*
X298450Y736600D03*
D13*
X146050Y698500D02*
X101600Y698500D01*
X146050Y698500D02*
X184150Y698500D01*
X222250Y698500D01*
X260350Y698500D01*
X298450Y698500D01*
X336550Y698500D01*
X374650Y698500D01*
X457200Y698500D01*
X482600Y673100D01*
D11*
X472440Y152400D03*
D13*
X482600Y162560D02*
X482600Y673100D01*
X482600Y162560D02*
X472440Y152400D01*
D11*
X101600Y698500D03*
X146050Y698500D03*
X184150Y698500D03*
X222250Y698500D03*
X260350Y698500D03*
X298450Y698500D03*
X336550Y698500D03*
X374650Y698500D03*
D13*
X146050Y660400D02*
X101600Y660400D01*
X146050Y660400D02*
X184150Y660400D01*
X222250Y660400D01*
X260350Y660400D01*
X298450Y660400D01*
X336550Y660400D01*
X374650Y660400D01*
X457200Y660400D01*
X477520Y640080D01*
D11*
X467360Y157480D03*
D13*
X477520Y167640D02*
X477520Y640080D01*
X477520Y167640D02*
X467360Y157480D01*
D11*
X101600Y660400D03*
X374650Y660400D03*
X336550Y660400D03*
X298450Y660400D03*
X260350Y660400D03*
X222250Y660400D03*
X184150Y660400D03*
X146050Y660400D03*
D13*
X146050Y622300D02*
X101600Y622300D01*
X146050Y622300D02*
X184150Y622300D01*
X222250Y622300D01*
X260350Y622300D01*
X298450Y622300D01*
X336550Y622300D01*
X374650Y622300D01*
X457200Y622300D01*
X472440Y607060D01*
X472440Y210820D02*
X457200Y195580D01*
X434340Y195580D01*
D11*
X434340Y195580D03*
D13*
X472440Y210820D02*
X472440Y607060D01*
D11*
X101600Y622300D03*
X146050Y622300D03*
X184150Y622300D03*
X222250Y622300D03*
X260350Y622300D03*
X298450Y622300D03*
X336550Y622300D03*
X374650Y622300D03*
D13*
X146050Y584200D02*
X101600Y584200D01*
X146050Y584200D02*
X184150Y584200D01*
X222250Y584200D01*
X260350Y584200D01*
X298450Y584200D01*
X336550Y584200D01*
X374650Y584200D01*
X444500Y584200D01*
X467360Y561340D01*
X467360Y215900D02*
X452120Y200660D01*
X429260Y200660D01*
D11*
X429260Y200660D03*
D13*
X467360Y215900D02*
X467360Y561340D01*
D11*
X101600Y584200D03*
X374650Y584200D03*
X336550Y584200D03*
X298450Y584200D03*
X260350Y584200D03*
X222250Y584200D03*
X184150Y584200D03*
X146050Y584200D03*
D13*
X146050Y546100D02*
X101600Y546100D01*
X146050Y546100D02*
X184150Y546100D01*
X222250Y546100D01*
X260350Y546100D01*
X298450Y546100D01*
X336550Y546100D01*
X374650Y546100D01*
X444500Y546100D01*
X462280Y528320D01*
X462280Y220980D02*
X447040Y205740D01*
X424180Y205740D01*
D11*
X424180Y205740D03*
D13*
X462280Y220980D02*
X462280Y528320D01*
D11*
X101600Y546100D03*
X146050Y546100D03*
X184150Y546100D03*
X222250Y546100D03*
X260350Y546100D03*
X298450Y546100D03*
X336550Y546100D03*
X374650Y546100D03*
D13*
X431800Y508000D02*
X457200Y482600D01*
X431800Y508000D02*
X374650Y508000D01*
X336550Y508000D01*
X298450Y508000D01*
X260350Y508000D01*
X222250Y508000D01*
X184150Y508000D01*
X146050Y508000D01*
X101600Y508000D01*
X439420Y210820D02*
X457200Y228600D01*
X457200Y482600D01*
X421640Y210820D02*
X419100Y208280D01*
X419100Y200660D01*
D11*
X419100Y200660D03*
D13*
X421640Y210820D02*
X439420Y210820D01*
D11*
X101600Y508000D03*
X374650Y508000D03*
X336550Y508000D03*
X298450Y508000D03*
X260350Y508000D03*
X222250Y508000D03*
X184150Y508000D03*
X146050Y508000D03*
D13*
X57150Y838200D02*
X330200Y838200D01*
X57150Y838200D02*
X50800Y831850D01*
X50800Y469900D01*
D11*
X342900Y142240D03*
D13*
X60960Y459740D02*
X50800Y469900D01*
X248920Y459740D02*
X294640Y414020D01*
X248920Y459740D02*
X60960Y459740D01*
X350520Y170180D02*
X353060Y167640D01*
X353060Y144780D02*
X350520Y142240D01*
X342900Y142240D01*
X294640Y289560D02*
X294640Y414020D01*
X294640Y289560D02*
X350520Y233680D01*
X350520Y170180D01*
X353060Y167640D02*
X353060Y144780D01*
D11*
X330200Y838200D03*
D13*
X231140Y292100D02*
X309880Y213360D01*
X309880Y106680D01*
X231140Y292100D02*
X134620Y292100D01*
X309880Y106680D02*
X340360Y76200D01*
X434340Y76200D01*
D11*
X434340Y76200D03*
D13*
X101600Y325120D02*
X101600Y347980D01*
D11*
X101600Y347980D03*
D13*
X101600Y325120D02*
X134620Y292100D01*
X304800Y210820D02*
X304800Y104140D01*
X337820Y71120D02*
X439420Y71120D01*
X462280Y93980D01*
X462280Y111760D01*
D11*
X462280Y111760D03*
D13*
X337820Y71120D02*
X304800Y104140D01*
X304800Y210820D02*
X228600Y287020D01*
X129540Y287020D01*
X123420Y293140D01*
D11*
X123420Y293140D03*
D13*
X314960Y215900D02*
X314960Y109220D01*
X421640Y99060D02*
X429260Y91440D01*
X429260Y81280D01*
D11*
X429260Y81280D03*
D13*
X325120Y99060D02*
X314960Y109220D01*
X325120Y99060D02*
X421640Y99060D01*
X231140Y299720D02*
X231140Y388620D01*
X213360Y406400D01*
X231140Y299720D02*
X314960Y215900D01*
X213360Y406400D02*
X160760Y406400D01*
D11*
X160760Y406400D03*
M02*
