G04 EAGLE Gerber RS-274X export*
G75*
%MOMM*%
%FSLAX34Y34*%
%LPD*%
%INSilkscreen Top*%
%IPPOS*%
%AMOC8*
5,1,8,0,0,1.08239X$1,22.5*%
G01*
%ADD10C,0.406400*%
%ADD11C,0.609600*%
%ADD12C,0.812800*%
%ADD13C,0.304800*%
%ADD14C,0.076200*%

G36*
X152429Y430789D02*
X152429Y430789D01*
X152458Y430786D01*
X152569Y430809D01*
X152682Y430825D01*
X152708Y430837D01*
X152737Y430842D01*
X152838Y430895D01*
X152941Y430941D01*
X152963Y430960D01*
X152989Y430973D01*
X153071Y431051D01*
X153158Y431125D01*
X153174Y431149D01*
X153195Y431169D01*
X153253Y431267D01*
X153316Y431361D01*
X153324Y431389D01*
X153339Y431414D01*
X153367Y431524D01*
X153401Y431632D01*
X153402Y431662D01*
X153409Y431690D01*
X153406Y431803D01*
X153409Y431916D01*
X153401Y431945D01*
X153400Y431974D01*
X153365Y432082D01*
X153337Y432191D01*
X153322Y432217D01*
X153313Y432245D01*
X153267Y432308D01*
X153192Y432436D01*
X153146Y432479D01*
X153118Y432518D01*
X115018Y470618D01*
X114971Y470653D01*
X114931Y470695D01*
X114858Y470738D01*
X114791Y470789D01*
X114736Y470810D01*
X114686Y470839D01*
X114604Y470860D01*
X114525Y470890D01*
X114467Y470895D01*
X114410Y470909D01*
X114326Y470907D01*
X114242Y470914D01*
X114184Y470902D01*
X114126Y470900D01*
X114046Y470874D01*
X113963Y470858D01*
X113911Y470831D01*
X113855Y470813D01*
X113799Y470773D01*
X113711Y470727D01*
X113638Y470658D01*
X113582Y470618D01*
X75482Y432518D01*
X75465Y432495D01*
X75442Y432476D01*
X75379Y432381D01*
X75311Y432291D01*
X75301Y432263D01*
X75285Y432239D01*
X75250Y432131D01*
X75210Y432025D01*
X75208Y431996D01*
X75199Y431968D01*
X75196Y431854D01*
X75186Y431742D01*
X75192Y431713D01*
X75191Y431684D01*
X75220Y431574D01*
X75242Y431463D01*
X75256Y431437D01*
X75263Y431409D01*
X75321Y431311D01*
X75373Y431211D01*
X75394Y431189D01*
X75409Y431164D01*
X75491Y431087D01*
X75569Y431005D01*
X75594Y430990D01*
X75616Y430970D01*
X75717Y430918D01*
X75814Y430861D01*
X75843Y430854D01*
X75869Y430840D01*
X75946Y430827D01*
X76090Y430791D01*
X76152Y430793D01*
X76200Y430785D01*
X152400Y430785D01*
X152429Y430789D01*
G37*
G36*
X184153Y329194D02*
X184153Y329194D01*
X184266Y329191D01*
X184295Y329199D01*
X184324Y329200D01*
X184432Y329235D01*
X184541Y329263D01*
X184567Y329278D01*
X184595Y329287D01*
X184658Y329333D01*
X184786Y329409D01*
X184829Y329454D01*
X184868Y329482D01*
X222968Y367582D01*
X223003Y367629D01*
X223045Y367669D01*
X223088Y367742D01*
X223139Y367809D01*
X223160Y367864D01*
X223189Y367914D01*
X223210Y367996D01*
X223240Y368075D01*
X223245Y368133D01*
X223259Y368190D01*
X223257Y368274D01*
X223264Y368358D01*
X223252Y368416D01*
X223250Y368474D01*
X223224Y368554D01*
X223208Y368637D01*
X223181Y368689D01*
X223163Y368745D01*
X223123Y368801D01*
X223077Y368889D01*
X223008Y368962D01*
X222968Y369018D01*
X184868Y407118D01*
X184845Y407135D01*
X184826Y407158D01*
X184731Y407221D01*
X184641Y407289D01*
X184613Y407299D01*
X184589Y407316D01*
X184481Y407350D01*
X184375Y407390D01*
X184346Y407392D01*
X184318Y407401D01*
X184204Y407404D01*
X184092Y407414D01*
X184063Y407408D01*
X184034Y407409D01*
X183924Y407380D01*
X183813Y407358D01*
X183787Y407344D01*
X183759Y407337D01*
X183661Y407279D01*
X183561Y407227D01*
X183539Y407207D01*
X183514Y407192D01*
X183437Y407109D01*
X183355Y407031D01*
X183340Y407006D01*
X183320Y406984D01*
X183268Y406883D01*
X183211Y406786D01*
X183204Y406757D01*
X183190Y406731D01*
X183177Y406654D01*
X183141Y406510D01*
X183143Y406448D01*
X183135Y406400D01*
X183135Y330200D01*
X183139Y330171D01*
X183136Y330142D01*
X183159Y330031D01*
X183175Y329919D01*
X183187Y329892D01*
X183192Y329863D01*
X183245Y329763D01*
X183291Y329659D01*
X183310Y329637D01*
X183323Y329611D01*
X183401Y329529D01*
X183475Y329442D01*
X183499Y329426D01*
X183519Y329405D01*
X183617Y329347D01*
X183711Y329285D01*
X183739Y329276D01*
X183764Y329261D01*
X183874Y329233D01*
X183982Y329199D01*
X184012Y329198D01*
X184040Y329191D01*
X184153Y329194D01*
G37*
G36*
X114416Y265698D02*
X114416Y265698D01*
X114474Y265700D01*
X114554Y265726D01*
X114637Y265742D01*
X114689Y265769D01*
X114745Y265787D01*
X114801Y265827D01*
X114889Y265873D01*
X114962Y265942D01*
X115018Y265982D01*
X153118Y304082D01*
X153135Y304106D01*
X153158Y304125D01*
X153221Y304219D01*
X153289Y304309D01*
X153299Y304337D01*
X153316Y304361D01*
X153350Y304469D01*
X153390Y304575D01*
X153392Y304604D01*
X153401Y304632D01*
X153404Y304746D01*
X153414Y304858D01*
X153408Y304887D01*
X153409Y304916D01*
X153380Y305026D01*
X153358Y305137D01*
X153344Y305163D01*
X153337Y305191D01*
X153279Y305289D01*
X153227Y305389D01*
X153207Y305411D01*
X153192Y305436D01*
X153109Y305513D01*
X153031Y305595D01*
X153006Y305610D01*
X152984Y305630D01*
X152883Y305682D01*
X152786Y305739D01*
X152757Y305746D01*
X152731Y305760D01*
X152654Y305773D01*
X152510Y305809D01*
X152448Y305807D01*
X152400Y305815D01*
X76200Y305815D01*
X76171Y305811D01*
X76142Y305814D01*
X76031Y305791D01*
X75919Y305775D01*
X75892Y305763D01*
X75863Y305758D01*
X75763Y305706D01*
X75659Y305659D01*
X75637Y305640D01*
X75611Y305627D01*
X75529Y305549D01*
X75442Y305476D01*
X75426Y305451D01*
X75405Y305431D01*
X75347Y305333D01*
X75285Y305239D01*
X75276Y305211D01*
X75261Y305186D01*
X75233Y305076D01*
X75199Y304968D01*
X75198Y304938D01*
X75191Y304910D01*
X75194Y304797D01*
X75191Y304684D01*
X75199Y304655D01*
X75200Y304626D01*
X75235Y304518D01*
X75263Y304409D01*
X75278Y304383D01*
X75287Y304355D01*
X75333Y304292D01*
X75409Y304164D01*
X75454Y304121D01*
X75482Y304082D01*
X113582Y265982D01*
X113629Y265947D01*
X113669Y265905D01*
X113742Y265862D01*
X113809Y265811D01*
X113864Y265790D01*
X113914Y265761D01*
X113996Y265740D01*
X114075Y265710D01*
X114133Y265705D01*
X114190Y265691D01*
X114274Y265693D01*
X114358Y265686D01*
X114416Y265698D01*
G37*
G36*
X44537Y329192D02*
X44537Y329192D01*
X44566Y329191D01*
X44676Y329220D01*
X44787Y329242D01*
X44813Y329256D01*
X44841Y329263D01*
X44939Y329321D01*
X45039Y329373D01*
X45061Y329394D01*
X45086Y329409D01*
X45163Y329491D01*
X45245Y329569D01*
X45260Y329594D01*
X45280Y329616D01*
X45332Y329717D01*
X45389Y329814D01*
X45396Y329843D01*
X45410Y329869D01*
X45423Y329946D01*
X45459Y330090D01*
X45457Y330152D01*
X45465Y330200D01*
X45465Y406400D01*
X45461Y406429D01*
X45464Y406458D01*
X45441Y406569D01*
X45425Y406682D01*
X45413Y406708D01*
X45408Y406737D01*
X45356Y406838D01*
X45309Y406941D01*
X45290Y406963D01*
X45277Y406989D01*
X45199Y407071D01*
X45126Y407158D01*
X45101Y407174D01*
X45081Y407195D01*
X44983Y407253D01*
X44889Y407316D01*
X44861Y407324D01*
X44836Y407339D01*
X44726Y407367D01*
X44618Y407401D01*
X44588Y407402D01*
X44560Y407409D01*
X44447Y407406D01*
X44334Y407409D01*
X44305Y407401D01*
X44276Y407400D01*
X44168Y407365D01*
X44059Y407337D01*
X44033Y407322D01*
X44005Y407313D01*
X43942Y407267D01*
X43814Y407192D01*
X43771Y407146D01*
X43732Y407118D01*
X5632Y369018D01*
X5597Y368971D01*
X5555Y368931D01*
X5512Y368858D01*
X5461Y368791D01*
X5440Y368736D01*
X5411Y368686D01*
X5390Y368604D01*
X5360Y368525D01*
X5355Y368467D01*
X5341Y368410D01*
X5343Y368326D01*
X5336Y368242D01*
X5348Y368184D01*
X5350Y368126D01*
X5376Y368046D01*
X5392Y367963D01*
X5419Y367911D01*
X5437Y367855D01*
X5477Y367799D01*
X5523Y367711D01*
X5592Y367638D01*
X5632Y367582D01*
X43732Y329482D01*
X43756Y329465D01*
X43775Y329442D01*
X43869Y329379D01*
X43959Y329311D01*
X43987Y329301D01*
X44011Y329285D01*
X44119Y329250D01*
X44225Y329210D01*
X44254Y329208D01*
X44282Y329199D01*
X44396Y329196D01*
X44508Y329186D01*
X44537Y329192D01*
G37*
D10*
X393700Y312420D02*
X393700Y344170D01*
X400050Y350520D01*
X425450Y350520D01*
X431800Y344170D01*
X431800Y312420D01*
X419100Y312420D01*
X419100Y325120D01*
X406400Y325120D01*
X406400Y312420D01*
X393700Y312420D01*
X406400Y332740D02*
X419100Y332740D01*
X406400Y332740D02*
X406400Y342900D01*
X419100Y342900D01*
X419100Y332740D01*
X361950Y425450D02*
X336550Y425450D01*
X361950Y425450D02*
X368300Y419100D01*
X368300Y412750D01*
X361950Y406400D01*
X368300Y400050D01*
X368300Y393700D01*
X361950Y387350D01*
X336550Y387350D01*
X336550Y425450D01*
X345440Y419100D02*
X355600Y419100D01*
X355600Y410210D01*
X345440Y410210D01*
X345440Y419100D01*
X345440Y402590D02*
X355600Y402590D01*
X355600Y393700D01*
X345440Y393700D01*
X345440Y402590D01*
D11*
X330200Y368300D02*
X304800Y368300D01*
X330200Y368300D02*
X431800Y368300D01*
X431800Y292100D02*
X304800Y292100D01*
X303872Y292111D01*
X302945Y292145D01*
X302019Y292202D01*
X301094Y292281D01*
X300172Y292382D01*
X299253Y292506D01*
X298336Y292652D01*
X297424Y292821D01*
X296516Y293012D01*
X295613Y293224D01*
X294715Y293459D01*
X293823Y293715D01*
X292938Y293994D01*
X292060Y294293D01*
X291190Y294614D01*
X290327Y294956D01*
X289473Y295319D01*
X288628Y295702D01*
X287793Y296106D01*
X286968Y296531D01*
X286153Y296975D01*
X285350Y297439D01*
X284558Y297922D01*
X283778Y298425D01*
X283010Y298946D01*
X282256Y299486D01*
X281514Y300044D01*
X280787Y300620D01*
X280074Y301213D01*
X279375Y301824D01*
X278692Y302452D01*
X278024Y303096D01*
X277372Y303756D01*
X276736Y304432D01*
X276117Y305123D01*
X275515Y305828D01*
X274930Y306549D01*
X274363Y307283D01*
X273814Y308031D01*
X273283Y308792D01*
X272771Y309566D01*
X272278Y310352D01*
X271804Y311150D01*
X271350Y311959D01*
X270916Y312779D01*
X270502Y313609D01*
X270108Y314449D01*
X269735Y315299D01*
X269382Y316157D01*
X269051Y317024D01*
X268741Y317898D01*
X268452Y318780D01*
X268184Y319668D01*
X267939Y320563D01*
X267715Y321464D01*
X267513Y322369D01*
X267334Y323280D01*
X267176Y324194D01*
X267041Y325112D01*
X266929Y326033D01*
X266838Y326956D01*
X266771Y327882D01*
X266725Y328809D01*
X266703Y329736D01*
X266703Y330664D01*
X266725Y331591D01*
X266771Y332518D01*
X266838Y333444D01*
X266929Y334367D01*
X267041Y335288D01*
X267176Y336206D01*
X267334Y337120D01*
X267513Y338031D01*
X267715Y338936D01*
X267939Y339837D01*
X268184Y340732D01*
X268452Y341620D01*
X268741Y342502D01*
X269051Y343376D01*
X269382Y344243D01*
X269735Y345101D01*
X270108Y345951D01*
X270502Y346791D01*
X270916Y347621D01*
X271350Y348441D01*
X271804Y349250D01*
X272278Y350048D01*
X272771Y350834D01*
X273283Y351608D01*
X273814Y352369D01*
X274363Y353117D01*
X274930Y353851D01*
X275515Y354572D01*
X276117Y355277D01*
X276736Y355968D01*
X277372Y356644D01*
X278024Y357304D01*
X278692Y357948D01*
X279375Y358576D01*
X280074Y359187D01*
X280787Y359780D01*
X281514Y360356D01*
X282256Y360914D01*
X283010Y361454D01*
X283778Y361975D01*
X284558Y362478D01*
X285350Y362961D01*
X286153Y363425D01*
X286968Y363869D01*
X287793Y364294D01*
X288628Y364698D01*
X289473Y365081D01*
X290327Y365444D01*
X291190Y365786D01*
X292060Y366107D01*
X292938Y366406D01*
X293823Y366685D01*
X294715Y366941D01*
X295613Y367176D01*
X296516Y367388D01*
X297424Y367579D01*
X298336Y367748D01*
X299253Y367894D01*
X300172Y368018D01*
X301094Y368119D01*
X302019Y368198D01*
X302945Y368255D01*
X303872Y368289D01*
X304800Y368300D01*
X431800Y368300D02*
X432728Y368289D01*
X433655Y368255D01*
X434581Y368198D01*
X435506Y368119D01*
X436428Y368018D01*
X437347Y367894D01*
X438264Y367748D01*
X439176Y367579D01*
X440084Y367388D01*
X440987Y367176D01*
X441885Y366941D01*
X442777Y366685D01*
X443662Y366406D01*
X444540Y366107D01*
X445410Y365786D01*
X446273Y365444D01*
X447127Y365081D01*
X447972Y364698D01*
X448807Y364294D01*
X449632Y363869D01*
X450447Y363425D01*
X451250Y362961D01*
X452042Y362478D01*
X452822Y361975D01*
X453590Y361454D01*
X454344Y360914D01*
X455086Y360356D01*
X455813Y359780D01*
X456526Y359187D01*
X457225Y358576D01*
X457908Y357948D01*
X458576Y357304D01*
X459228Y356644D01*
X459864Y355968D01*
X460483Y355277D01*
X461085Y354572D01*
X461670Y353851D01*
X462237Y353117D01*
X462786Y352369D01*
X463317Y351608D01*
X463829Y350834D01*
X464322Y350048D01*
X464796Y349250D01*
X465250Y348441D01*
X465684Y347621D01*
X466098Y346791D01*
X466492Y345951D01*
X466865Y345101D01*
X467218Y344243D01*
X467549Y343376D01*
X467859Y342502D01*
X468148Y341620D01*
X468416Y340732D01*
X468661Y339837D01*
X468885Y338936D01*
X469087Y338031D01*
X469266Y337120D01*
X469424Y336206D01*
X469559Y335288D01*
X469671Y334367D01*
X469762Y333444D01*
X469829Y332518D01*
X469875Y331591D01*
X469897Y330664D01*
X469897Y329736D01*
X469875Y328809D01*
X469829Y327882D01*
X469762Y326956D01*
X469671Y326033D01*
X469559Y325112D01*
X469424Y324194D01*
X469266Y323280D01*
X469087Y322369D01*
X468885Y321464D01*
X468661Y320563D01*
X468416Y319668D01*
X468148Y318780D01*
X467859Y317898D01*
X467549Y317024D01*
X467218Y316157D01*
X466865Y315299D01*
X466492Y314449D01*
X466098Y313609D01*
X465684Y312779D01*
X465250Y311959D01*
X464796Y311150D01*
X464322Y310352D01*
X463829Y309566D01*
X463317Y308792D01*
X462786Y308031D01*
X462237Y307283D01*
X461670Y306549D01*
X461085Y305828D01*
X460483Y305123D01*
X459864Y304432D01*
X459228Y303756D01*
X458576Y303096D01*
X457908Y302452D01*
X457225Y301824D01*
X456526Y301213D01*
X455813Y300620D01*
X455086Y300044D01*
X454344Y299486D01*
X453590Y298946D01*
X452822Y298425D01*
X452042Y297922D01*
X451250Y297439D01*
X450447Y296975D01*
X449632Y296531D01*
X448807Y296106D01*
X447972Y295702D01*
X447127Y295319D01*
X446273Y294956D01*
X445410Y294614D01*
X444540Y294293D01*
X443662Y293994D01*
X442777Y293715D01*
X441885Y293459D01*
X440987Y293224D01*
X440084Y293012D01*
X439176Y292821D01*
X438264Y292652D01*
X437347Y292506D01*
X436428Y292382D01*
X435506Y292281D01*
X434581Y292202D01*
X433655Y292145D01*
X432728Y292111D01*
X431800Y292100D01*
X330200Y368300D02*
X329272Y368311D01*
X328345Y368345D01*
X327419Y368402D01*
X326494Y368481D01*
X325572Y368582D01*
X324653Y368706D01*
X323736Y368852D01*
X322824Y369021D01*
X321916Y369212D01*
X321013Y369424D01*
X320115Y369659D01*
X319223Y369915D01*
X318338Y370194D01*
X317460Y370493D01*
X316590Y370814D01*
X315727Y371156D01*
X314873Y371519D01*
X314028Y371902D01*
X313193Y372306D01*
X312368Y372731D01*
X311553Y373175D01*
X310750Y373639D01*
X309958Y374122D01*
X309178Y374625D01*
X308410Y375146D01*
X307656Y375686D01*
X306914Y376244D01*
X306187Y376820D01*
X305474Y377413D01*
X304775Y378024D01*
X304092Y378652D01*
X303424Y379296D01*
X302772Y379956D01*
X302136Y380632D01*
X301517Y381323D01*
X300915Y382028D01*
X300330Y382749D01*
X299763Y383483D01*
X299214Y384231D01*
X298683Y384992D01*
X298171Y385766D01*
X297678Y386552D01*
X297204Y387350D01*
X296750Y388159D01*
X296316Y388979D01*
X295902Y389809D01*
X295508Y390649D01*
X295135Y391499D01*
X294782Y392357D01*
X294451Y393224D01*
X294141Y394098D01*
X293852Y394980D01*
X293584Y395868D01*
X293339Y396763D01*
X293115Y397664D01*
X292913Y398569D01*
X292734Y399480D01*
X292576Y400394D01*
X292441Y401312D01*
X292329Y402233D01*
X292238Y403156D01*
X292171Y404082D01*
X292125Y405009D01*
X292103Y405936D01*
X292103Y406864D01*
X292125Y407791D01*
X292171Y408718D01*
X292238Y409644D01*
X292329Y410567D01*
X292441Y411488D01*
X292576Y412406D01*
X292734Y413320D01*
X292913Y414231D01*
X293115Y415136D01*
X293339Y416037D01*
X293584Y416932D01*
X293852Y417820D01*
X294141Y418702D01*
X294451Y419576D01*
X294782Y420443D01*
X295135Y421301D01*
X295508Y422151D01*
X295902Y422991D01*
X296316Y423821D01*
X296750Y424641D01*
X297204Y425450D01*
X297678Y426248D01*
X298171Y427034D01*
X298683Y427808D01*
X299214Y428569D01*
X299763Y429317D01*
X300330Y430051D01*
X300915Y430772D01*
X301517Y431477D01*
X302136Y432168D01*
X302772Y432844D01*
X303424Y433504D01*
X304092Y434148D01*
X304775Y434776D01*
X305474Y435387D01*
X306187Y435980D01*
X306914Y436556D01*
X307656Y437114D01*
X308410Y437654D01*
X309178Y438175D01*
X309958Y438678D01*
X310750Y439161D01*
X311553Y439625D01*
X312368Y440069D01*
X313193Y440494D01*
X314028Y440898D01*
X314873Y441281D01*
X315727Y441644D01*
X316590Y441986D01*
X317460Y442307D01*
X318338Y442606D01*
X319223Y442885D01*
X320115Y443141D01*
X321013Y443376D01*
X321916Y443588D01*
X322824Y443779D01*
X323736Y443948D01*
X324653Y444094D01*
X325572Y444218D01*
X326494Y444319D01*
X327419Y444398D01*
X328345Y444455D01*
X329272Y444489D01*
X330200Y444500D01*
X457200Y444500D02*
X458128Y444489D01*
X459055Y444455D01*
X459981Y444398D01*
X460906Y444319D01*
X461828Y444218D01*
X462747Y444094D01*
X463664Y443948D01*
X464576Y443779D01*
X465484Y443588D01*
X466387Y443376D01*
X467285Y443141D01*
X468177Y442885D01*
X469062Y442606D01*
X469940Y442307D01*
X470810Y441986D01*
X471673Y441644D01*
X472527Y441281D01*
X473372Y440898D01*
X474207Y440494D01*
X475032Y440069D01*
X475847Y439625D01*
X476650Y439161D01*
X477442Y438678D01*
X478222Y438175D01*
X478990Y437654D01*
X479744Y437114D01*
X480486Y436556D01*
X481213Y435980D01*
X481926Y435387D01*
X482625Y434776D01*
X483308Y434148D01*
X483976Y433504D01*
X484628Y432844D01*
X485264Y432168D01*
X485883Y431477D01*
X486485Y430772D01*
X487070Y430051D01*
X487637Y429317D01*
X488186Y428569D01*
X488717Y427808D01*
X489229Y427034D01*
X489722Y426248D01*
X490196Y425450D01*
X490650Y424641D01*
X491084Y423821D01*
X491498Y422991D01*
X491892Y422151D01*
X492265Y421301D01*
X492618Y420443D01*
X492949Y419576D01*
X493259Y418702D01*
X493548Y417820D01*
X493816Y416932D01*
X494061Y416037D01*
X494285Y415136D01*
X494487Y414231D01*
X494666Y413320D01*
X494824Y412406D01*
X494959Y411488D01*
X495071Y410567D01*
X495162Y409644D01*
X495229Y408718D01*
X495275Y407791D01*
X495297Y406864D01*
X495297Y405936D01*
X495275Y405009D01*
X495229Y404082D01*
X495162Y403156D01*
X495071Y402233D01*
X494959Y401312D01*
X494824Y400394D01*
X494666Y399480D01*
X494487Y398569D01*
X494285Y397664D01*
X494061Y396763D01*
X493816Y395868D01*
X493548Y394980D01*
X493259Y394098D01*
X492949Y393224D01*
X492618Y392357D01*
X492265Y391499D01*
X491892Y390649D01*
X491498Y389809D01*
X491084Y388979D01*
X490650Y388159D01*
X490196Y387350D01*
X489722Y386552D01*
X489229Y385766D01*
X488717Y384992D01*
X488186Y384231D01*
X487637Y383483D01*
X487070Y382749D01*
X486485Y382028D01*
X485883Y381323D01*
X485264Y380632D01*
X484628Y379956D01*
X483976Y379296D01*
X483308Y378652D01*
X482625Y378024D01*
X481926Y377413D01*
X481213Y376820D01*
X480486Y376244D01*
X479744Y375686D01*
X478990Y375146D01*
X478222Y374625D01*
X477442Y374122D01*
X476650Y373639D01*
X475847Y373175D01*
X475032Y372731D01*
X474207Y372306D01*
X473372Y371902D01*
X472527Y371519D01*
X471673Y371156D01*
X470810Y370814D01*
X469940Y370493D01*
X469062Y370194D01*
X468177Y369915D01*
X467285Y369659D01*
X466387Y369424D01*
X465484Y369212D01*
X464576Y369021D01*
X463664Y368852D01*
X462747Y368706D01*
X461828Y368582D01*
X460906Y368481D01*
X459981Y368402D01*
X459055Y368345D01*
X458128Y368311D01*
X457200Y368300D01*
X457200Y444500D02*
X330200Y444500D01*
X431800Y368300D02*
X457200Y368300D01*
D12*
X76200Y533400D02*
X76200Y774700D01*
X127000Y825500D02*
X381000Y825500D01*
X431800Y774700D02*
X431800Y533400D01*
X381000Y482600D02*
X127000Y482600D01*
X381000Y482600D02*
X382228Y482615D01*
X383454Y482659D01*
X384680Y482733D01*
X385903Y482837D01*
X387123Y482970D01*
X388340Y483133D01*
X389553Y483325D01*
X390760Y483546D01*
X391962Y483797D01*
X393157Y484076D01*
X394346Y484384D01*
X395526Y484721D01*
X396698Y485086D01*
X397861Y485480D01*
X399014Y485901D01*
X400156Y486350D01*
X401288Y486827D01*
X402407Y487331D01*
X403514Y487862D01*
X404608Y488419D01*
X405688Y489002D01*
X406754Y489612D01*
X407804Y490247D01*
X408839Y490907D01*
X409858Y491592D01*
X410859Y492302D01*
X411844Y493035D01*
X412810Y493793D01*
X413758Y494573D01*
X414687Y495376D01*
X415596Y496201D01*
X416484Y497048D01*
X417352Y497916D01*
X418199Y498804D01*
X419024Y499713D01*
X419827Y500642D01*
X420607Y501590D01*
X421365Y502556D01*
X422098Y503541D01*
X422808Y504542D01*
X423493Y505561D01*
X424153Y506596D01*
X424788Y507646D01*
X425398Y508712D01*
X425981Y509792D01*
X426538Y510886D01*
X427069Y511993D01*
X427573Y513112D01*
X428050Y514244D01*
X428499Y515386D01*
X428920Y516539D01*
X429314Y517702D01*
X429679Y518874D01*
X430016Y520054D01*
X430324Y521243D01*
X430603Y522438D01*
X430854Y523640D01*
X431075Y524847D01*
X431267Y526060D01*
X431430Y527277D01*
X431563Y528497D01*
X431667Y529720D01*
X431741Y530946D01*
X431785Y532172D01*
X431800Y533400D01*
X431800Y774700D02*
X431785Y775928D01*
X431741Y777154D01*
X431667Y778380D01*
X431563Y779603D01*
X431430Y780823D01*
X431267Y782040D01*
X431075Y783253D01*
X430854Y784460D01*
X430603Y785662D01*
X430324Y786857D01*
X430016Y788046D01*
X429679Y789226D01*
X429314Y790398D01*
X428920Y791561D01*
X428499Y792714D01*
X428050Y793856D01*
X427573Y794988D01*
X427069Y796107D01*
X426538Y797214D01*
X425981Y798308D01*
X425398Y799388D01*
X424788Y800454D01*
X424153Y801504D01*
X423493Y802539D01*
X422808Y803558D01*
X422098Y804559D01*
X421365Y805544D01*
X420607Y806510D01*
X419827Y807458D01*
X419024Y808387D01*
X418199Y809296D01*
X417352Y810184D01*
X416484Y811052D01*
X415596Y811899D01*
X414687Y812724D01*
X413758Y813527D01*
X412810Y814307D01*
X411844Y815065D01*
X410859Y815798D01*
X409858Y816508D01*
X408839Y817193D01*
X407804Y817853D01*
X406754Y818488D01*
X405688Y819098D01*
X404608Y819681D01*
X403514Y820238D01*
X402407Y820769D01*
X401288Y821273D01*
X400156Y821750D01*
X399014Y822199D01*
X397861Y822620D01*
X396698Y823014D01*
X395526Y823379D01*
X394346Y823716D01*
X393157Y824024D01*
X391962Y824303D01*
X390760Y824554D01*
X389553Y824775D01*
X388340Y824967D01*
X387123Y825130D01*
X385903Y825263D01*
X384680Y825367D01*
X383454Y825441D01*
X382228Y825485D01*
X381000Y825500D01*
X127000Y825500D02*
X125772Y825485D01*
X124546Y825441D01*
X123320Y825367D01*
X122097Y825263D01*
X120877Y825130D01*
X119660Y824967D01*
X118447Y824775D01*
X117240Y824554D01*
X116038Y824303D01*
X114843Y824024D01*
X113654Y823716D01*
X112474Y823379D01*
X111302Y823014D01*
X110139Y822620D01*
X108986Y822199D01*
X107844Y821750D01*
X106712Y821273D01*
X105593Y820769D01*
X104486Y820238D01*
X103392Y819681D01*
X102312Y819098D01*
X101246Y818488D01*
X100196Y817853D01*
X99161Y817193D01*
X98142Y816508D01*
X97141Y815798D01*
X96156Y815065D01*
X95190Y814307D01*
X94242Y813527D01*
X93313Y812724D01*
X92404Y811899D01*
X91516Y811052D01*
X90648Y810184D01*
X89801Y809296D01*
X88976Y808387D01*
X88173Y807458D01*
X87393Y806510D01*
X86635Y805544D01*
X85902Y804559D01*
X85192Y803558D01*
X84507Y802539D01*
X83847Y801504D01*
X83212Y800454D01*
X82602Y799388D01*
X82019Y798308D01*
X81462Y797214D01*
X80931Y796107D01*
X80427Y794988D01*
X79950Y793856D01*
X79501Y792714D01*
X79080Y791561D01*
X78686Y790398D01*
X78321Y789226D01*
X77984Y788046D01*
X77676Y786857D01*
X77397Y785662D01*
X77146Y784460D01*
X76925Y783253D01*
X76733Y782040D01*
X76570Y780823D01*
X76437Y779603D01*
X76333Y778380D01*
X76259Y777154D01*
X76215Y775928D01*
X76200Y774700D01*
X76200Y533400D02*
X76215Y532172D01*
X76259Y530946D01*
X76333Y529720D01*
X76437Y528497D01*
X76570Y527277D01*
X76733Y526060D01*
X76925Y524847D01*
X77146Y523640D01*
X77397Y522438D01*
X77676Y521243D01*
X77984Y520054D01*
X78321Y518874D01*
X78686Y517702D01*
X79080Y516539D01*
X79501Y515386D01*
X79950Y514244D01*
X80427Y513112D01*
X80931Y511993D01*
X81462Y510886D01*
X82019Y509792D01*
X82602Y508712D01*
X83212Y507646D01*
X83847Y506596D01*
X84507Y505561D01*
X85192Y504542D01*
X85902Y503541D01*
X86635Y502556D01*
X87393Y501590D01*
X88173Y500642D01*
X88976Y499713D01*
X89801Y498804D01*
X90648Y497916D01*
X91516Y497048D01*
X92404Y496201D01*
X93313Y495376D01*
X94242Y494573D01*
X95190Y493793D01*
X96156Y493035D01*
X97141Y492302D01*
X98142Y491592D01*
X99161Y490907D01*
X100196Y490247D01*
X101246Y489612D01*
X102312Y489002D01*
X103392Y488419D01*
X104486Y487862D01*
X105593Y487331D01*
X106712Y486827D01*
X107844Y486350D01*
X108986Y485901D01*
X110139Y485480D01*
X111302Y485086D01*
X112474Y484721D01*
X113654Y484384D01*
X114843Y484076D01*
X116038Y483797D01*
X117240Y483546D01*
X118447Y483325D01*
X119660Y483133D01*
X120877Y482970D01*
X122097Y482837D01*
X123320Y482733D01*
X124546Y482659D01*
X125772Y482615D01*
X127000Y482600D01*
D13*
X198374Y262805D02*
X221742Y262805D01*
X210058Y251121D02*
X210058Y274489D01*
D14*
X365716Y517473D02*
X370146Y521903D01*
X376492Y528249D02*
X380922Y532680D01*
X376492Y532680D02*
X380922Y528249D01*
M02*
