G04 EAGLE Gerber RS-274X export*
G75*
%MOMM*%
%FSLAX34Y34*%
%LPD*%
%INSoldermask Bottom*%
%IPPOS*%
%AMOC8*
5,1,8,0,0,1.08239X$1,22.5*%
G01*
%ADD10C,1.211200*%
%ADD11C,1.103200*%
%ADD12C,0.655600*%
%ADD13C,0.705600*%


D10*
X485720Y80980D02*
X475640Y80980D01*
X475640Y68480D02*
X485720Y68480D01*
X485720Y55980D02*
X475640Y55980D01*
X475640Y43480D02*
X485720Y43480D01*
D11*
X269000Y19050D03*
X239000Y19050D03*
D12*
X287020Y167640D03*
X431800Y43180D03*
X287020Y111760D03*
X467360Y182880D03*
D13*
X228600Y57150D03*
D12*
X299720Y200660D03*
X408900Y66000D03*
X294640Y172720D03*
X347980Y127000D03*
X101600Y774700D03*
X222250Y774700D03*
X184150Y774700D03*
X146050Y774700D03*
X260350Y774700D03*
X336550Y774700D03*
X298450Y774700D03*
X374650Y774700D03*
X419100Y120650D03*
X22860Y269240D03*
X256540Y314960D03*
X107950Y876300D03*
X412750Y120650D03*
X27940Y274320D03*
X261620Y320040D03*
X146050Y869950D03*
X337820Y157480D03*
X38100Y284480D03*
X271780Y330200D03*
X222250Y857250D03*
X406400Y120650D03*
X33020Y279400D03*
X266700Y325120D03*
X184150Y863600D03*
X342900Y152400D03*
X254000Y850900D03*
X347980Y147320D03*
X292100Y844550D03*
X347980Y137160D03*
X368300Y831850D03*
X337820Y121920D03*
X101600Y736600D03*
X146050Y736600D03*
X184150Y736600D03*
X222250Y736600D03*
X260350Y736600D03*
X374650Y736600D03*
X336550Y736600D03*
X298450Y736600D03*
X472440Y152400D03*
X101600Y698500D03*
X146050Y698500D03*
X184150Y698500D03*
X222250Y698500D03*
X260350Y698500D03*
X298450Y698500D03*
X336550Y698500D03*
X374650Y698500D03*
X467360Y157480D03*
X101600Y660400D03*
X374650Y660400D03*
X336550Y660400D03*
X298450Y660400D03*
X260350Y660400D03*
X222250Y660400D03*
X184150Y660400D03*
X146050Y660400D03*
X434340Y195580D03*
X101600Y622300D03*
X146050Y622300D03*
X184150Y622300D03*
X222250Y622300D03*
X260350Y622300D03*
X298450Y622300D03*
X336550Y622300D03*
X374650Y622300D03*
X429260Y200660D03*
X101600Y584200D03*
X374650Y584200D03*
X336550Y584200D03*
X298450Y584200D03*
X260350Y584200D03*
X222250Y584200D03*
X184150Y584200D03*
X146050Y584200D03*
X424180Y205740D03*
X101600Y546100D03*
X146050Y546100D03*
X184150Y546100D03*
X222250Y546100D03*
X260350Y546100D03*
X298450Y546100D03*
X336550Y546100D03*
X374650Y546100D03*
X419100Y200660D03*
X101600Y508000D03*
X374650Y508000D03*
X336550Y508000D03*
X298450Y508000D03*
X260350Y508000D03*
X222250Y508000D03*
X184150Y508000D03*
X146050Y508000D03*
X342900Y142240D03*
X330200Y838200D03*
X434340Y76200D03*
X101600Y347980D03*
X462280Y111760D03*
X123420Y293140D03*
X429260Y81280D03*
X160760Y406400D03*
M02*
