M48
;GenerationSoftware,Autodesk,EAGLE,9.6.2*%
;CreationDate,2024-06-29T16:05:12Z*%
FMAT,2
ICI,OFF
METRIC,TZ,000.000
T5C0.300
T4C0.350
T3C0.500
T2C0.900
%
G90
M71
T2
X23900Y1905
X26900Y1905
T3
X48572Y4348
X48572Y5598
X48572Y6848
X48572Y8098
T4
X22860Y5715
T5
X29845Y62230
X14605Y58420
X33655Y62230
X37465Y62230
X42926Y20066
X10160Y58420
X37465Y58420
X33655Y58420
X29845Y58420
X26035Y58420
X22225Y58420
X18415Y58420
X37465Y66040
X26035Y62230
X22225Y62230
X18415Y62230
X14605Y62230
X10160Y62230
X43434Y19558
X14605Y66040
X18415Y66040
X22225Y66040
X26035Y66040
X29845Y66040
X33655Y66040
X10160Y66040
X29845Y50800
X16076Y40640
X42926Y8128
X12342Y29314
X46228Y11176
X10160Y34798
X43434Y7620
X33020Y83820
X34290Y14224
X14605Y50800
X18415Y50800
X22225Y50800
X26035Y50800
X42418Y20574
X33655Y50800
X37465Y50800
X10160Y50800
X41910Y20066
X37465Y54610
X33655Y54610
X29845Y54610
X26035Y54610
X22225Y54610
X18415Y54610
X14605Y54610
X10160Y54610
X29845Y77470
X40640Y12065
X22225Y85725
X27178Y33020
X3810Y28448
X33782Y15748
X14605Y86995
X26162Y32004
X2794Y27432
X41275Y12065
X10795Y87630
X25654Y31496
X2286Y26924
X41910Y12065
X37465Y77470
X3302Y27940
X33655Y77470
X26035Y77470
X14605Y77470
X18415Y77470
X22225Y77470
X10160Y77470
X34798Y12700
X29464Y17272
X40890Y6600
X29972Y20066
X46736Y18288
X28702Y11176
X43180Y4318
X26035Y73660
X46736Y15748
X37465Y69850
X33655Y69850
X29845Y69850
X26035Y69850
X22225Y69850
X18415Y69850
X14605Y69850
X10160Y69850
X47244Y15240
X29845Y73660
X33655Y73660
X37465Y73660
X28702Y16764
X22225Y73660
X18415Y73660
X14605Y73660
X10160Y73660
X33782Y12192
X36830Y83185
X34798Y13716
X29210Y84455
X34798Y14732
X25400Y85090
X34290Y15240
X18415Y86360
X26670Y32512
M30